<svg id="icone_danger" data-name="icone danger" xmlns="http://www.w3.org/2000/svg" viewBox="0 0 1080 940"><defs><style>.cls-1{isolation:isolate;}.cls-2{fill:#fdf3f8;}.cls-3{fill:#fdf3f9;}</style></defs><title>pericolo_car</title><g id="car"><g class="cls-1"><path class="cls-2" d="M333.4,594.1l25.7-2.8H362a5.9,5.9,0,0,1,3,1.3c2.1,1.9,2.5,5.5,4.8,5.8q.1.1.6,0l-25.7,2.8h-.6c-2.3-.3-2.7-3.9-4.7-5.8a6.2,6.2,0,0,0-3.1-1.3A14,14,0,0,0,333.4,594.1Z"/><path class="cls-2" d="M369,637.6l-25.7,2.8a7.2,7.2,0,0,0,2.9-1,25.1,25.1,0,0,0,9-8.2l25.7-2.8a25.1,25.1,0,0,1-9,8.2A7.2,7.2,0,0,1,369,637.6Z"/><path class="cls-2" d="M356.4,594.5l25.7-2.8a6,6,0,0,1,1.9,0l-25.7,2.8A6.1,6.1,0,0,0,356.4,594.5Z"/><path class="cls-2" d="M358.3,594.5l25.7-2.8h.4a8.4,8.4,0,0,1,6.4,7.6,12.8,12.8,0,0,0,.1,3.9,3.1,3.1,0,0,0,2.4,2.3l-25.7,2.8a3.3,3.3,0,0,1-2.4-2.3,12.8,12.8,0,0,1-.1-3.9,8.2,8.2,0,0,0-6.4-7.6Z"/><path class="cls-2" d="M370.8,607.1l25.7-2.8h2.7c2.7.4,5.5,1.7,6.8,3.6a17.5,17.5,0,0,1,2,5.1c1.3,5.4,2,11.2.4,16.2a13.6,13.6,0,0,1-11.3,9.5l-25.6,2.8a13.5,13.5,0,0,0,11.2-9.5c1.6-5,.9-10.8-.4-16.2a13.3,13.3,0,0,0-2-5.1c-1.3-1.9-4.1-3.2-6.8-3.6A12.2,12.2,0,0,0,370.8,607.1Z"/><path class="cls-2" d="M358.3,594.5h.4a8.2,8.2,0,0,1,6.4,7.6,12.8,12.8,0,0,0,.1,3.9,3.3,3.3,0,0,0,2.4,2.3c1.2-1.2,3.5-1.6,5.9-1.3s5.5,1.7,6.8,3.6a13.3,13.3,0,0,1,2,5.1c1.3,5.4,2,11.2.4,16.2s-7.5,9.9-13.1,9.6h-1.1c-5.3-.8-10.4-4.8-13.3-10.3a25.1,25.1,0,0,1-9,8.2,7.9,7.9,0,0,1-4.3,1c-2.7-.4-4.7-2.7-5.3-6.9s.8-7.1-1.1-10.2-6.4-4.5-8.8-8a19.6,19.6,0,0,1-3.3-13.7,8.4,8.4,0,0,1,2-4.7,7.1,7.1,0,0,1,3.2-1.7,20.8,20.8,0,0,1,7.7-1.1,6.2,6.2,0,0,1,3.1,1.3c2,1.9,2.4,5.5,4.7,5.8a4.2,4.2,0,0,0,2.6-.7,16.9,16.9,0,0,0,3.2-2.8C352.3,595.6,355.3,594.1,358.3,594.5Z"/></g><g class="cls-1"><path class="cls-2" d="M354.5,680.8l25.6-2.8a12.2,12.2,0,0,1,3.3,0l1.9.4c1.9.5,3.9,1.4,5.8,1.7h2.5l-25.7,2.8h-2.5a46.9,46.9,0,0,1-5.8-1.7l-1.9-.4A11.4,11.4,0,0,0,354.5,680.8Z"/><path class="cls-2" d="M376.1,681.2l25.6-2.8a12.2,12.2,0,0,1,2.7,0l-25.7,2.8A11.3,11.3,0,0,0,376.1,681.2Z"/><path class="cls-2" d="M403.2,704.7l-25.7,2.8a21,21,0,0,0,6-1.9,7.8,7.8,0,0,0,4.2-3.8,8.6,8.6,0,0,0,.6-4.2c-.2-4-1.8-10.8-4.5-13.7a9.1,9.1,0,0,0-5.1-2.7l25.7-2.8a8.6,8.6,0,0,1,5,2.7c2.8,2.9,4.4,9.7,4.6,13.7a11.9,11.9,0,0,1-.6,4.2,8.4,8.4,0,0,1-4.3,3.8A20.4,20.4,0,0,1,403.2,704.7Z"/><path class="cls-2" d="M380.6,680.1a8.1,8.1,0,0,1,5,2.7c2.8,2.9,4.4,9.7,4.6,13.6a12.1,12.1,0,0,1-.6,4.3c-.8,1.8-2.6,2.9-4.2,3.7s-5.7,2.3-8.6,1.9a8.1,8.1,0,0,1-2.9-.9c-3.2-1.6-5.6-5.3-8.7-7.2s-9.9-1.7-14.2-4.6a7.7,7.7,0,0,1-3.1-4.5,7,7,0,0,1,.7-4.3c2-4.3,6.6-5.7,11-5.1a5.8,5.8,0,0,1,1.9.4c2,.5,3.9,1.4,5.8,1.6h.7C372,682.1,376.4,679.5,380.6,680.1Z"/></g><path class="cls-2" d="M498.7,652.6h7.2l2.2.2,16.6,3.3,25.7-2.8-16.7-3.3a39.9,39.9,0,0,0-6.9-.4l-3.6.2-25.7,2.8h1.2Z"/><path class="cls-2" d="M770,828.8l-14.5,1.6a53.5,53.5,0,0,1-16.8,26.8h-5.6l-2.6-26.5,25.4-2.8h.1l.5-.4a.5.5,0,0,0,.4-.2l.6-.3.4-.3.5-.4.4-.2.5-.4.4-.3.6-.4c.1-.1.1-.2.2-.2l.9-.8h.1l.7-.6.3-.3c.2-.1.3-.3.5-.5l.3-.3c.2-.1.3-.3.5-.5l.3-.3.4-.5.3-.4.5-.4.3-.4a1,1,0,0,1,.4-.5h0l.3-.3a1,1,0,0,1,.4-.5l.3-.4.4-.6c.1-.1.1-.2.2-.4a2.1,2.1,0,0,0,.4-.6c.1,0,.1-.1.1-.2h.2a.5.5,0,0,1,.2-.4l.3-.4c0-.1,0-.2.1-.2a4.7,4.7,0,0,0,.5-1v-.2h.1l.4-.7.2-.4.3-.7a.8.8,0,0,0,.2-.4l.3-.7a.8.8,0,0,0,.2-.4v-.2c.1-.2.2-.3.2-.4a1.7,1.7,0,0,0,.2-.5l.3-.7a.8.8,0,0,1,.2-.4,1.9,1.9,0,0,1,.2-.7l.2-.5c.1-.2.1-.4.2-.6v-.2l.2-.3a1.4,1.4,0,0,1,.2-.7c0-.2.1-.3.1-.5l.2-.5v-.3c.1-.1.1-.2.1-.4l.3-1.2h.1a4.3,4.3,0,0,1,.2-1.1c0-.1.1-.2.1-.4s.1-.5.1-.8v-.5c0-.1.1-.2.1-.4a.4.4,0,0,1,.1-.3v-.6a1.5,1.5,0,0,0,.1-.7,4.3,4.3,0,0,0,.1-.5,1.5,1.5,0,0,1,.1-.7v-.6c0-.2.1-.5.1-.7v-.6c0-.2.1-.5.1-.7v-4.5a6.2,6.2,0,0,0-.1-1.3v-.3a3.4,3.4,0,0,0-.1-1V786c0-.3-.1-.5-.1-.8a1.3,1.3,0,0,0-.1-.6,1.7,1.7,0,0,0-.1-.7v-.6c-.1-.3-.1-.5-.2-.8a1.3,1.3,0,0,0-.1-.6c0-.2-.1-.5-.1-.7s-.1-.4-.1-.6-.1-.5-.2-.8-.1-.4-.1-.6-.1-.5-.2-.7-.1-.4-.1-.6l-.3-.8a1.3,1.3,0,0,0-.1-.6l-.3-.9c0-.1-.1-.3-.1-.4a12.1,12.1,0,0,0-.5-1.4l-1.8-5.3c-.4-1.2-.7-2.3-1-3.5l-.9-3.5L768,758l-.3-3.6c-.1-1.4-.2-2.8-.4-4.2s-.3-2.8-.5-4.1a90.2,90.2,0,0,0-2.3-9.3c-.6-1.8-1.2-3.5-1.9-5.1s-1-2.5-1.6-3.7l-1.2-2.4c-8.6-16.5-23.4-28.5-40.6-30.8L703,691.5,695.4,660l-.3-3.1-.3-3.1c-.3-1.5-.5-3-.8-4.5s-.4-2-.7-3a36,36,0,0,0-1.2-4.4l-.9-2.8c-.3-1-.7-1.9-1-2.8l-1.8-4.1-.6-1.4c-.4-.8-.9-1.7-1.3-2.6l-1.5-2.5-1.5-2.5a68.5,68.5,0,0,0-9.7-12.2c-9-8.9-20-14.8-32-16.5l-53.7-7.3-1.4-.2h-9.9l25.3-2.8a46,46,0,0,1,11.7.2l53.6,7.3c28.5,3.9,51.6,32.2,53.7,65.5l7.5,31.6,16.3,3.2c26.1,3.5,46.8,29.6,48.5,59.6a49.7,49.7,0,0,0,2.8,14.1L798,771C807.3,798.4,793,826.3,770,828.8Z"/><polygon class="cls-2" points="449.5 724.9 425.8 727.5 447.7 730.5 473.4 727.7 451.4 724.7 449.5 724.9"/><path class="cls-2" d="M607.5,813.9a62.6,62.6,0,0,0,2.1-6.1l-25.7,2.8Z"/><path class="cls-2" d="M583.9,810.6l-98.2-13.4c5.3,25.8,24.4,46.8,47.8,50a41.9,41.9,0,0,0,10.6.1h.1l25.6-2.8c16.8-1.8,30.9-13.5,37.7-30.6Z"/><path class="cls-2" d="M733.1,857.2H652.7c-11.1-9.8-19-24.1-21.6-40.1l99.4,13.6Z"/><path class="cls-2" d="M775.2,789.4v-.3a6.2,6.2,0,0,0-.1-1.3v-.3a3.4,3.4,0,0,0-.1-1V786c0-.3-.1-.5-.1-.8a1.3,1.3,0,0,0-.1-.6,1.7,1.7,0,0,0-.1-.7v-.6c-.1-.3-.1-.5-.2-.8a1.3,1.3,0,0,0-.1-.6c0-.2-.1-.5-.1-.7s-.1-.4-.1-.6-.1-.5-.2-.8-.1-.4-.1-.6-.1-.5-.2-.7-.1-.4-.1-.6l-.3-.8a1.3,1.3,0,0,0-.1-.6l-.3-.9c0-.1-.1-.3-.1-.4a12.1,12.1,0,0,0-.5-1.4l-1.8-5.3c-.4-1.2-.7-2.3-1-3.5s-.6-2.3-.9-3.5L768,758l-.3-3.6c-.1-1.4-.2-2.8-.4-4.2s-.3-2.8-.5-4.1a90.2,90.2,0,0,0-2.3-9.3c-.6-1.8-1.2-3.5-1.9-5.1s-1-2.5-1.6-3.7l-1.2-2.4c-8.6-16.5-23.4-28.5-40.6-30.8L703,691.5,695.4,660l-.3-3.1-.3-3.1c-.3-1.5-.5-3-.8-4.5s-.4-2-.7-3a36,36,0,0,0-1.2-4.4l-.9-2.8c-.3-1-.7-1.9-1-2.8l-1.8-4.1-.6-1.4c-.4-.8-.9-1.7-1.3-2.6l-1.5-2.5-1.5-2.5a68.5,68.5,0,0,0-9.7-12.2c-9-8.9-20-14.8-32-16.5l-53.7-7.3-1.4-.2h-9.9c-23.5,2.4-42.4,22.4-46,50.5l-4,12.2a41.7,41.7,0,0,1,7,.4l16.5,3.3-25.6,2.8-16.6-3.3H507l-1.1-.2H498c-21.1,2.1-38,19.9-41.6,44.6a129.7,129.7,0,0,1-4.8,20.7l-2.1,6.9,1.9-.2,22,3h0l-13.5,1.4-2.6.3-9.6,1.1-21.9-3-.8,23,18.7,2.5c2.7,22.3,18.6,41,38.2,43.7l3.8.5,98.2,13.4h.1l25.6-2.8a62.6,62.6,0,0,1-2.1,6.1l23.6,3.2,99.4,13.6,25.4-2.8h.1l.5-.4a.5.5,0,0,0,.4-.2l.6-.3.4-.3.5-.4.4-.2.5-.4.4-.3.6-.4c.1-.1.1-.2.2-.2l.9-.8h.1l.7-.6.3-.3c.2-.1.3-.3.5-.5l.3-.3c.2-.1.3-.3.5-.5l.3-.3.4-.5.3-.4.5-.4.3-.4a1,1,0,0,1,.4-.5h0l.3-.3a1,1,0,0,1,.4-.5l.3-.4.4-.6.2-.4a2.1,2.1,0,0,0,.4-.6c.1,0,.1-.1.1-.2h.2a.5.5,0,0,1,.2-.4l.3-.4c0-.1,0-.2.1-.2a4.7,4.7,0,0,0,.5-1v-.2h.1l.4-.7.2-.4.3-.7a.8.8,0,0,0,.2-.4l.3-.7a.8.8,0,0,0,.2-.4v-.2c.1-.2.2-.3.2-.4a1.7,1.7,0,0,0,.2-.5l.3-.7a.8.8,0,0,1,.2-.4,1.9,1.9,0,0,1,.2-.7l.2-.5c.1-.2.1-.4.2-.6v-.2l.2-.3a1.4,1.4,0,0,1,.2-.7c0-.2.1-.3.1-.5l.2-.5v-.3c.1-.1.1-.2.1-.4l.3-1.2h.1a4.3,4.3,0,0,1,.2-1.1c0-.1.1-.2.1-.4s.1-.5.1-.8v-.5c0-.1.1-.2.1-.4a.4.4,0,0,1,.1-.3v-.6a1.5,1.5,0,0,0,.1-.7,4.3,4.3,0,0,0,.1-.5,1.5,1.5,0,0,1,.1-.7v-.6c0-.2.1-.5.1-.7v-.6c0-.2.1-.5.1-.7v-4.2ZM657.7,672.3c-.1,8.7-5.6,15.4-12.7,16.1l-15.6,1.4h.1a11.3,11.3,0,0,1-2.6,0l-30.6-3.2c-8.3-.9-14.8-9.5-14.7-19.3l.4-18.1c.3-17.8,11.5-31.4,26-32.6l15.3-1.4a29,29,0,0,1,5.1.1c16.7,1.7,30,19.2,29.6,38.9Z"/><path class="cls-2" d="M723.6,464.8c-23.4-4.8-46.5-17.3-54.3-34.2-23.1,10.4-50.3-1.8-74.5-10.4-2.5-.9-5.3-1.8-8-1.2s-5.6,3.3-7.7,5.7c-28.6,33-89.9,40-127.4,14.5-16.1,17.3-38.4,30.1-63.1,36.5-12.2,3.1-26.6,4.5-38.8.7L540,143.2Z"/><g class="cls-1"><path class="cls-3" d="M381.4,503.1l34.5-4.9a27.6,27.6,0,0,1,8.6.1c6.4,1,12.9,4.1,19.8,9.6l-34.4,4.8c-6.9-5.4-13.5-8.5-19.8-9.6A31.7,31.7,0,0,0,381.4,503.1Z"/><path class="cls-3" d="M434.5,553.8,400,558.7a28.8,28.8,0,0,0,17.5-8.7l34.5-4.9A28.8,28.8,0,0,1,434.5,553.8Z"/><path class="cls-3" d="M433.2,496l34.4-4.9a21.5,21.5,0,0,1,6.7.1,22.2,22.2,0,0,1,6.5,2c1.6.8,3.3,1.9,5,2.1h1.7L453,500.2a4.8,4.8,0,0,1-1.2,0h-.5a19.1,19.1,0,0,1-4.9-2.1,24.6,24.6,0,0,0-6.5-2.1A25,25,0,0,0,433.2,496Z"/><path class="cls-3" d="M473.2,553l-34.4,4.9,3.5-.7c5.2-1.2,10.5-3,14.1-7.3s5.1-11.7,1.9-17.4l34.5-4.9c3.1,5.7,1.7,13.2-1.9,17.5s-9,6-14.2,7.2Z"/><path class="cls-3" d="M463.9,497.3l34.5-4.9a36.9,36.9,0,0,1,9.4-.1l1.6.2L475,497.3l-1.6-.2A37.7,37.7,0,0,0,463.9,497.3Z"/><path class="cls-3" d="M496.8,527.2l-34.5,4.9a55.7,55.7,0,0,0,19.7-6.8c4.1-2.3,8.3-5.9,8.7-11.5a13.9,13.9,0,0,0-1.2-6.3,18.2,18.2,0,0,0-4.6-6,21.6,21.6,0,0,0-9.9-4.2l34.4-4.8a19.6,19.6,0,0,1,10,4.2,16.1,16.1,0,0,1,4.5,6,12.7,12.7,0,0,1,1.2,6.3c-.4,5.6-4.6,9.1-8.6,11.5A53.6,53.6,0,0,1,496.8,527.2Z"/><path class="cls-3" d="M475,497.3a21.6,21.6,0,0,1,9.9,4.2,18.2,18.2,0,0,1,4.6,6,13.9,13.9,0,0,1,1.2,6.3c-.4,5.6-4.6,9.2-8.7,11.5a54.6,54.6,0,0,1-23.7,7.2c3.2,5.7,1.7,13.1-1.9,17.4s-8.9,6.1-14.1,7.3a34.4,34.4,0,0,1-12.4.7,17.2,17.2,0,0,1-12.4-7.9,29.3,29.3,0,0,1-19.7,8.9,36,36,0,0,1-8-.3,28.5,28.5,0,0,1-14.7-6.9c-5.7-5.3-9.1-15-13.5-21.6-5.5-8.2-4.8-14.1,2.3-19.3,8.7-6.4,17.3-9.1,26.2-7.7,6.3,1.1,12.9,4.2,19.8,9.6,6.8-10.8,18.3-18.5,30-16.7a24.6,24.6,0,0,1,6.5,2.1,19.1,19.1,0,0,0,4.9,2.1h.5c1.6.2,3.1-.5,4.6-1a37.7,37.7,0,0,1,17-2.1Z"/></g></g><g id="TRIANGLE_UP" data-name="TRIANGLE UP"><path class="cls-2" d="M540,31.4,38.8,910,540,31.4m0,0L1041.2,910,540,31.4M1041.2,910h0M540,1.3h0A29.3,29.3,0,0,0,527.7,4a30,30,0,0,0-8.9,6.1,29.5,29.5,0,0,0-5.1,6.8L13,894.7a28.5,28.5,0,0,0-3.2,7.6A30,30,0,0,0,9,913a29.3,29.3,0,0,0,3.9,12.1,29,29,0,0,0,8.5,9.3,28.5,28.5,0,0,0,9.8,4.6,28.4,28.4,0,0,0,7.6,1H1041.2a29.8,29.8,0,0,0,7.8-1,32.7,32.7,0,0,0,9.6-4.6,29,29,0,0,0,8.5-9.3A29.3,29.3,0,0,0,1071,913a30,30,0,0,0-.8-10.7,28.5,28.5,0,0,0-3.2-7.6L566.3,16.9a31.3,31.3,0,0,0-5.2-6.9A31.2,31.2,0,0,0,540,1.3ZM90.5,880,540,91.9,989.5,880Zm950.7,60Zm0,0Z"/></g></svg>