<svg id="icone_danger" data-name="icone danger" xmlns="http://www.w3.org/2000/svg" viewBox="0 0 1080 940"><defs><style>.cls-1{fill:#fdf3f8;}.cls-2{fill:none;}</style></defs><title>pericolo_mare-01</title><g id="acqua"><g id="Layer_33" data-name="Layer 33"><path class="cls-1" d="M484.1,576h0l.7.2Zm-17-21.5a.3.3,0,0,0,.1.2h0C467.2,554.7,467.1,554.6,467.1,554.5Zm100.1-7.8c-38.5-6.6-81.3-6-95.6,1.3-3,1.5-4.5,3.2-4.7,5v-.2l-1.2,8.9h0v.4h0a1.3,1.3,0,0,0,.1.6h0a.8.8,0,0,0,.2.4v.2a.4.4,0,0,1,.1.3c.1,0,.1.1.1.2h.1a2.1,2.1,0,0,0,.4.6h0l.5.6h.1c.1.1.2.2.2.3l.3.2c0,.1.1.1.1.2l.7.6h0l.7.6.3.2.3.2.3.2.3.2c.1.1.2.1.2.2l-6.2,46.3-1.6,11.9c-1.3-.6-2.6-.3-4.7,1.2a4.4,4.4,0,0,0-1.9,2.2.4.4,0,0,1,.1-.3v.6c0,.1-.1.3-.1.4l-1,7.9a.1.1,0,0,1-.1.1v.4h0c0,.2.1.4.1.6h.1a1.1,1.1,0,0,0,.1.5.3.3,0,0,1,.1.2.3.3,0,0,0,.1.2.3.3,0,0,0,.1.2c0,.1,0,.1.1.2l.3.6h.1l.4.6c.1.1.2.1.2.2s.1.2.2.2.2.2.2.3.1.1.2.2l.7.6h0l.8.6.2.2.3.2.4.3.2.2h.3l-.9,6.4a3.6,3.6,0,0,0-2.7.1L540,798.1l47.8-83.7c0-.6.1-1.2.1-1.7.4-6.6-.9-17.7,3.1-23.2s11.8-4.5,12.7-10.7l.6-4.6c1.1-.7,1.2-1.6.4-2.4h0l.2-1.8a4.4,4.4,0,0,1-.5,1.5c-3.4-3.5-5.3-5.3-7.2-6l.7-5.3.7-.3.7-.2,1.1-.4.6-.3,1.4-.6c3-1.6,4.6-3.2,4.8-5l.6-4.6c1-.7,1.2-1.5.4-2.4h0l.2-1.7a5.8,5.8,0,0,1-.5,1.4c-3.4-3.5-5.4-5.3-7.3-6l8-58.6,1.2-.5c2.9-1.5,4.4-3.2,4.7-4.9l1.2-8.8v.2C617,560.4,598.3,552.1,567.2,546.7Zm-100.3,6.8h0v.2Zm1.5,3.2h0Zm3.3,2.9-.3-.2h-.2l.8.5Zm.9.6a.1.1,0,0,1-.1-.1h-.1l.5.3Zm22.3,19.5h0Zm-38,115.5h0Zm0,0Z"/><path class="cls-1" d="M947.7,84.2,869.3,221.3a113.7,113.7,0,0,1-23.3,2.4A78,78,0,0,1,797.1,204c-8.5-7.5-15.6-16.8-24.4-23.6-16.8-12.9-38.1-15.6-58.4-16.1a151.6,151.6,0,0,0-24.3,1,76.3,76.3,0,0,0-12.6,2.7c-19.5,5.8-39.8,25.8-60.2,23.8-17.3-1.7-37.2-7-44.5-27s10.2-48.2,32.4-46c-20.3-4.3-41.1-7.7-61.6-4.9s-41,12.5-52.4,29.8c-9,13.7-11.8,30.7-20.9,44.3-26.6,39.8-80,26.3-113.9,9.1-20.8-10.6-41.5-22.9-64.3-25.8-30-3.9-59.6,9.2-87.6,22.1l-7.7,3.5L132.3,84.2Z"/><path class="cls-1" d="M442.9,322.6a8.9,8.9,0,0,0-3.8-1.5,13.1,13.1,0,0,0-2.8,0l-22.8,2.5h.1l-3.2.7c-3.7-1.3-7.4-3.2-10.9-4.8a41.2,41.2,0,0,0-11.1-3.6,22,22,0,0,0-5.1-.1l-22.8,2.6h.1a11.2,11.2,0,0,0-7,3c-6.1,5.6-3.9,17.5,2.7,23.9,4.7,4.6,10.8,6.9,17,7.8a37.2,37.2,0,0,0,7.4.4,49.3,49.3,0,0,0,5.5-.3l22.8-2.6a59.2,59.2,0,0,0,24.3-8.4C438.2,339.2,453.4,330.1,442.9,322.6Z"/><path class="cls-1" d="M487.5,257.5a9.2,9.2,0,0,0-7.3-6,6.7,6.7,0,0,0-2-.1L455.4,254h.1a4.7,4.7,0,0,0-1.7.4l-5.6,1.9c-4.2,1.4-6.1,6.3-4.3,10.9l13.4,33.4,22.8-2.6,20.8-7.2Z"/><path class="cls-1" d="M534.3,267.9a6.4,6.4,0,0,0-5.2-5h-1.3L505,265.4h-.2l-3.8.6a5.1,5.1,0,0,0-4.2,6.4l3.4,15.3,22.8-2.6,14.6-1.9Z"/><path class="cls-1" d="M644.8,279.5l-3.9-1.5-1.3-.3h-1.3l-22.8,2.6h.3a4.9,4.9,0,0,0-4.5,3.7l-3.8,14.3L622,304l22.8-2.6,3.9-14.4A6.6,6.6,0,0,0,644.8,279.5Z"/><path class="cls-1" d="M671.6,332.5l-34-19.4a178.2,178.2,0,0,0-49.1-19.6l-2.3-.5c-4-.9-7.9-1.6-11.9-2.1a161.7,161.7,0,0,0-40.5-.6L511,292.8h1.4a152.1,152.1,0,0,0-34.3,7.5l-27.6,9.4c-3.2,1.1-4.8,5.2-3.7,9.2a7.6,7.6,0,0,0,5.6,5.5h1.3l22.8-2.6,1.1-.2,27.5-9.4a131.5,131.5,0,0,1,19.6-5.2,145.5,145.5,0,0,1,26.3,1.4c3.7.5,7.4,1.2,11.1,2l2.2.5a160.3,160.3,0,0,1,39.2,14.6,194.2,194.2,0,0,0-28.5-6.1,181.4,181.4,0,0,0-46.3-1l-22.3,2.5c-18.9,2.1-35.2,7.4-47,15.2-.7,36.7,38.3,71.9,87.5,78.8a114.2,114.2,0,0,0,29.1.6l22.8-2.6c35.6-4,61.7-25.4,62.6-54.8a14,14,0,0,0,0-2.9c-2.6-2.2-5.3-4.4-8.3-6.5l17.3-1.9a5.7,5.7,0,0,0,4.6-4.2C676.3,338.8,674.8,334.3,671.6,332.5Z"/><path class="cls-1" d="M704.3,279.7l-5.5-3.2a7.6,7.6,0,0,0-3.2-1.1h-2l-22.8,2.6h.5a7.4,7.4,0,0,0-6.4,4.2L651,312.3l20.6,12.1,22.8-2.6,14-30.1A9.7,9.7,0,0,0,704.3,279.7Z"/><path class="cls-1" d="M716.2,366.4l-15.3-15.9a5.4,5.4,0,0,0-3.1-1.7,3.3,3.3,0,0,0-1,0L674,351.3h0a3,3,0,0,0-2.1,1.2l-1.6,2.3-1.6,2.3c-1.2,1.8-.2,4.8,2.2,6.3l18.5,11.4a4.4,4.4,0,0,0,2,.7,1.7,1.7,0,0,0,1,0l22.7-2.5C717.8,372.7,718.9,369.3,716.2,366.4Z"/><path class="cls-1" d="M641.9,464.3a20.1,20.1,0,1,1-20.1-20.4A20.3,20.3,0,0,1,641.9,464.3Z"/><path class="cls-1" d="M644.9,502a6.2,6.2,0,1,1-12.3,0,6.2,6.2,0,1,1,12.3,0Z"/><path class="cls-1" d="M617.6,542a9,9,0,1,1,7.3-10.1A8.9,8.9,0,0,1,617.6,542Z"/></g></g><path id="TRIANGLE_down" data-name="TRIANGLE down" class="cls-2" d="M975.3,68.2h0m0,0h0m0,0h0m-518.4,627Z"/><g id="TRIANGLE_UP" data-name="TRIANGLE UP"><path class="cls-1" d="M1041.2,31.4h0m0,0h0m0,0h0m0,0h0m0,0L540,910,38.8,31.4,540,910,1041.2,31.4m0-30.1H38.8A30,30,0,0,0,31,2.4,28.4,28.4,0,0,0,21.4,7,29.8,29.8,0,0,0,9,28.3,29.8,29.8,0,0,0,9.8,39,30.6,30.6,0,0,0,13,46.7L513.9,924.9a30.1,30.1,0,0,0,52.2,0L1066.9,46.7a28.9,28.9,0,0,0,3.7-9.5,27.8,27.8,0,0,0,.5-7.6,29.1,29.1,0,0,0-4.8-14.6,29,29,0,0,0-6.7-7.3A29.8,29.8,0,0,0,1048,2.1a31.6,31.6,0,0,0-6.8-.8Zm0,60.1Zm0,0Zm-950.7,0h899L540,849.4,90.5,61.4Z"/></g></svg>