<svg id="icone_danger" data-name="icone danger" xmlns="http://www.w3.org/2000/svg" viewBox="0 0 1080 940"><defs><style>.cls-1{fill:#fdf3f8;}.cls-2{fill:none;}</style></defs><title>pericolo_foresta-01</title><g id="terra"><path class="cls-1" d="M400.6,523.8l16.9,77.6-23.1,5-12-2.6V655c0,1.3-3.8,2.6-9.7,3s-15.4-.3-17.9-2c-.6-.4-.8-.7-.8-1V597.7l-35.3-7.6,3.5-14.2-18.1-3.7,6.1-26.1,24.9-43.6,2.3,10.5.3-1.1,5.9-24.1h0l2.6-4.5,15.4-27,15.4-26.9,2.8-.7,4.4,20.6,2.5-10.7,14.7-3,9.4,43.6,9.4,42.9-14.6,2.9Z"/><path class="cls-1" d="M745.3,503.3l-4.8-8.3-4.8-8.3L730,476.5l-.5-.7-9.7-17.1-39.1-68.4-1.8-3.1-1.8-3.2h-.6l-14.2,3.2h.4l-1.4.4c-2.8,1-4.6,3.8-6.3,6.5-3.2,5.2-5.9,10.5-6.5,17.4-.5,5-1,7.4-4.4,10a29,29,0,0,0-8.3,9.1l-7.6,1.7-1.2-.4a22.4,22.4,0,0,0-2.4-.3,14.3,14.3,0,0,0-2.9.3l-14.1,3.2c-2.9.6-5.6,2.4-5.3,5.9s1.2,4.1,2.3,6,3.7,6.4,5.6,9.6l-.9.2h.2c-2.8.4-4.5,4.3-3.6,7.9a12.6,12.6,0,0,0,7.4,8.4l1.6.4a11.8,11.8,0,0,0,5.3-.1H620l8.1-1.8h0a25.9,25.9,0,0,0,1.5,6.1c1.7,4.5,5,8.1,8.2,11.4a28.4,28.4,0,0,0,6.1,5.5c1.6.9,3.3,1.4,5,2.3,3.7,1.9,6.9,5.3,10.3,8.1a48.3,48.3,0,0,0,10.3,6.8v61.3c0,.3.2.6.7,1,2.5,1.6,10.4,2.5,17.6,1.9h0c5.8-.4,9.4-1.6,9.4-3V514l7.2-1.5a11.9,11.9,0,0,0,4.7-2.2,11,11,0,0,0,3.8-7.8,38.6,38.6,0,0,0,5.1-.9l-.7.2,4.6-1a51,51,0,0,0,9,3.9,24.2,24.2,0,0,0,3.6,1,15.7,15.7,0,0,0,5.7.3h.5l5.3-1.2Z"/><path class="cls-1" d="M402.9,354.8h0Zm109.8,12.1c-1.4-3.7-5.6-6.5-9.2-6.2a5,5,0,0,0-3.5,1.6l-29.4,19.3V322.1h0c.1-.2-.1-.5-.5-.8S463,319.6,458,320s-6.7,1.2-6.6,2.1h0v43.6l-16.7-32.8-.3-.3a4.7,4.7,0,0,0-1.9-.3l-2.6,4.5h0l-5.1,9.1,9.8,19.2-16-8.5-1.8,3.2-1.3,2.2,23.3,12.4.7.2h0L451.3,398h0v86.7c0,.3.2.5.5.7s7.2,1.8,12.2,1.4,6.6-1.2,6.6-2.1V400.1l41.1-26.8a4.9,4.9,0,0,1-2.5.7,1.1,1.1,0,0,1-.8,0h.4C512.4,373.8,514.2,370.6,512.7,366.9Z"/><path class="cls-1" d="M566.9,191l-8.5,5.5V176.2l-4.8-8.2h0l-7.6-13.4-1-1.6c-.3.2-.6.4-.6.6V185l-12.1-23.6h0c-.1,0-.1-.1-.2-.2a4,4,0,0,0-2-.1l-2,3.5-3.2,5.7,7.3,14.4-11.9-6.3-1.3,2.3-.9,1.6,17.2,9.1h.4l8.7,16.9v62.6a.5.5,0,0,0,.4.5c1.2.9,5.1,1.3,8.8,1a13.1,13.1,0,0,0,3.4-.6c.9-.2,1.3-.5,1.3-.9v-61l14-9.2Z"/><path class="cls-1" d="M621.5,503.1c-1.3-1.4-3.1-2-4.2-1.4h0l-36.6,19.4L598,487.4a.1.1,0,0,0-.1.1c.8-1-1.7-3.2-5.9-5.1s-9.5-2.9-11-2a.8.8,0,0,0-.4.4l-21.1,41.1V467.2c0-1.2-3.2-2.2-8.3-2.6s-13.2.3-15.3,1.7c-.5.4-.7.7-.6,1.1v74.4l-36.8-24.1a6,6,0,0,0-4.4-2.1c-4.5-.3-9.7,3.2-11.6,7.8s.4,8.7,5,9H487a7.1,7.1,0,0,1-3.1-1l51.5,33.7V671.2c0,1.2,3.2,2.2,8.3,2.6s13.2-.3,15.3-1.7c.4-.3.7-.6.7-.9l-.2-108.8,15-29.3.8-.3,46.5-24.7c.2-.1.3-.1.4-.3S623,504.8,621.5,503.1Z"/><path class="cls-1" d="M900.2,774.6l-54.6,35.7.2-121.7v.3c.1-.6-.2-1.1-1-1.7-3.5-2.3-14.7-3.6-25-2.8-8.4.6-13.6,2.4-13.5,4.3h0v89.2l-34.3-67h0a.9.9,0,0,0-.6-.6c-2.5-1.5-10.5,0-18,3.3s-10.9,6.5-9.6,8.2a.3.3,0,0,1-.1-.2l28.2,55.2-59.9-31.8c-1.8-.9-4.6,0-6.8,2.3s-2.9,6.1-1.3,7.7l.7.5,75.9,40.3a2.8,2.8,0,0,0,1.3.3L806,843.6v14.3h39.5v-9.6l70.4-46.1Z"/><path class="cls-1" d="M360.3,818.2c-2.3-2-3.7-2.5-5.3-2.1V744.8l.3-.2.3-.2.4-.2.4-.2.4-.2.9-.7h.1l.8-.6.3-.2.3-.3a.2.2,0,0,1,.2-.2l.3-.2.6-.7h0l.5-.6c.1-.1.1-.2.2-.2s.1-.2.2-.3,0-.1.1-.2a.3.3,0,0,1,.1-.2l.3-.6v-.2h0a1.9,1.9,0,0,0,.2-.7v-.2c0-.1.1-.3.1-.4v-11c0-2.2-1.5-4.3-4.7-6.5-15.6-10.5-65.9-16.2-112.3-12.7a276.6,276.6,0,0,0-28.8,3.7l-11.2,19.7-4.1,7.2-5.4,9.4-4.8,8.4V816c-2.4.6-5.1,2.6-9.5,6.4a3.9,3.9,0,0,1-.4-1.8v2.2h-.1c-1.1,1-1,2,0,3v5.6c0,2.2,1.5,4.4,4.8,6.6l1.6,1,.6.3,1.2.7.8.3.8.4v6.6c-2.4.6-5,2.6-9.4,6.4a3.9,3.9,0,0,1-.4-1.8V854h-.1c-1.1,1-1,2,0,3v.8H362.1v-5.6a5.2,5.2,0,0,0-1.8-2.8c-2.3-2-3.8-2.5-5.4-2.1v-7.8c0-.1.1-.1.2-.2l.4-.2.4-.2.4-.3.3-.2,1.1-.7h0l.9-.6a.2.2,0,0,1,.2-.2l.3-.3.3-.2a.2.2,0,0,1,.2-.2,4.6,4.6,0,0,1,.7-.7h0l.5-.6.2-.3c0-.1.1-.1.1-.2l.2-.3c0-.1.1-.1.1-.2l.3-.6h0a1.4,1.4,0,0,0,.2-.7h0c0-.2.1-.3.1-.5V821.1A5.4,5.4,0,0,0,360.3,818.2Zm-2.4-85.9Zm-56.2,26.1h0Zm4.6-.5-1.9.2,2-.2Zm18.3-2.5Zm6.9-1.4h-.6l1.4-.3Zm16.4-5.4h-.1l-.3.2.5-.3Zm1-.5-.4.2.7-.4Zm1.4-.8H350l.3-.2Zm3.9-12.9h0Zm-18.3,18.5c.1,0,.2,0,.2-.1l.8-.2Z"/><path class="cls-1" d="M725,665.6a43.5,43.5,0,0,0-16.5-19.7c-6.9-4.3-13-7.3-19.1-13.3l-3.9-3.8,6.3-.8,1.6-.2a17.9,17.9,0,0,0,8.7-3.8,13,13,0,0,0,4.3-9.2,8.4,8.4,0,0,0-1-4.4,5.4,5.4,0,0,0-4.4-2.8,8.1,8.1,0,0,0-2.2,0l-13.2,1.6h0l-2,.4a21,21,0,0,0-8.7,5.7l-1.4.2a13.5,13.5,0,0,0-1.3-6.3c-1.9-3.7-5.6-5.6-9.2-6.5l-1.4-.3a16.1,16.1,0,0,0-3.1,0L645.4,604h-.1c-2.6.3-4.9,1.6-5.6,4.5s1.6,7.9,4.5,10.4,8.9,4.3,13.5,5.9a22.6,22.6,0,0,1,4.3,1.7h-.6c-5.4,1.5-11,3.9-16.3,5.8s-10.8,7.1-14.2,13.2-5.5,13.1-7.1,20.3c-2.1,8.9-3.1,19.6,2.2,27.1a26.4,26.4,0,0,0,7.5,6.7,84.4,84.4,0,0,0,35.4,13.6,67.3,67.3,0,0,0,11.9.7,37.7,37.7,0,0,0,5.8-.4h.3l12.9-1.6a36.3,36.3,0,0,0,14.9-4.8,27.8,27.8,0,0,0,13.2-18.3C729.6,681.4,728.2,672.9,725,665.6Z"/><path class="cls-1" d="M577.7,755.2c-1.5-1.4-2.4-1.7-3.5-1.4V706.3l.5-.3h.2a.1.1,0,0,1,.1-.1l1-.6h0a2.7,2.7,0,0,0,.8-.7h.2l.7-.7h0l.5-.7a.1.1,0,0,1,.1-.1h0a1.5,1.5,0,0,0,.3-.7h0c.1-.1.1-.3.2-.5h0v-.3h0v-7.2h0c.1-1.5-.9-2.9-3.1-4.4-10.4-7-43.9-10.8-74.8-8.4-24.6,1.8-40.1,7-40.1,12.6h0V701c0,1.4,1,2.9,3.1,4.3l.9.5v47.9c-1.5.4-3.3,1.7-6.3,4.3a2.5,2.5,0,0,1-.2-1.2v1.4h-.1a1.2,1.2,0,0,0,0,2V764c0,1.4,1,2.9,3.1,4.4l1.1.6.4.3.8.4.6.2.5.3v4.3c-1.6.5-3.3,1.8-6.3,4.3a2.5,2.5,0,0,1-.2-1.2V779a.1.1,0,0,0-.1.1,1.2,1.2,0,0,0,0,2v3.7c0,1.5,1,2.9,3.1,4.4l1.1.6.4.3.8.4.6.2.5.3v33.3c-1.3.3-2.3,1.6-3.4,4.4a3.6,3.6,0,0,1-.2-1v7.2c0,1.2.9,2.5,2.7,3.7l.9.6.4.2.7.3.4.3.8.3.5.2.7.3.7.2.7.3.7.2.8.3.8.2.8.3.8.2h.9l1,.2.9.2,1,.2.6.2h1.1l1.2.2h1.4l2.3.3h.7l2.7.3h.3l2.5.3h.9l1.9.2h3.8l2.6.2h.3l2.9.2h24.1l5-.3h.8l3.3-.2,2.7-.3h.8l1.8-.2h.8l2-.2h.5a9.9,9.9,0,0,1,2.4-.3h2l.9-.2h1.9l1-.2h.9l.9-.2h.6l1.8-.4h.5l2.1-.4h.2l.4-.2,1.1-.2.6-.2,1-.2h.7l.6-.2.7-.2.7-.2h.6l.5-.2.7-.2.5-.2h.3l1.5-.6h.1l1.4-.7h.1a.1.1,0,0,0,.1-.1l1.1-.6h0l1-.6h.2l.6-.5h.2l.6-.6h.1l.4-.5h.1l.3-.7h0c0-.2.1-.4.1-.6h0V830a2.4,2.4,0,0,0,0-3.2c-1.3-1.9-1.1-2.2-1.8-1.5V790.2l.6-.3h.3l1-.6h0l.9-.7h.2l.7-.6h0l.5-.7h.1c.1-.3.3-.5.3-.7h0c.1-.1.1-.3.2-.4h0V785h0v-7a3.1,3.1,0,0,0-1.2-1.9c-1.5-1.4-2.5-1.7-3.5-1.4v-5.2l.5-.3h.3l1-.6h0l.9-.7h.2l.7-.6h0l.5-.7h.1c.1-.3.3-.5.3-.8h0c.1-.1.1-.3.2-.5h0v-.3h0v-7A3.1,3.1,0,0,0,577.7,755.2Zm1.2-60.9h0a.1.1,0,0,1-.1.1A.3.3,0,0,0,578.9,694.3Zm-1,2v.2h-.1C577.7,696.5,577.8,696.4,577.9,696.3ZM466.7,706.8Zm99.6,3.4h0Zm1.5-.6h0Zm3.8-2.1h0Zm-10.1,4.2h.1l.6-.2Z"/><path class="cls-1" d="M630.2,301.9l-4,2.6v-9.6l-6.6-11.4h0L607,261.2v27.5l-16.8-32.9q0-.2-.3-.3c-1.1-.7-5.1,0-8.7,1.7s-5.3,3.1-4.8,3.9h0l30.6,59.8v86.7c0,.3.1.5.5.7s7.2,1.8,12.2,1.4,6.6-1.1,6.6-2V323l11.7-7.6Z"/><path class="cls-1" d="M574,422.8a21.5,21.5,0,0,0-8.3-9.9c-3.5-2.2-6.5-3.7-9.6-6.7a18,18,0,0,0-2-1.9l3.2-.4h.8a9.1,9.1,0,0,0,4.4-1.9,6.1,6.1,0,0,0,2.1-4.6,3.4,3.4,0,0,0-.5-2.2,2.7,2.7,0,0,0-2.2-1.4h-1.1l-6.6.8-1,.2a9.4,9.4,0,0,0-4.3,2.9h-.8a6.6,6.6,0,0,0-.6-3.1,7,7,0,0,0-4.6-3.3h-.7a4.3,4.3,0,0,0-1.6,0l-6.5.8H534a3,3,0,0,0-2.8,2.2c-.5,1.9.8,4,2.2,5.2s4.5,2.2,6.8,3a8.5,8.5,0,0,1,2.2.9H542c-2.7.7-5.5,1.9-8.1,2.8a14,14,0,0,0-7.1,6.7,33.7,33.7,0,0,0-3.6,10.1c-1,4.5-1.6,9.8,1.1,13.6a12.3,12.3,0,0,0,3.8,3.4,42.9,42.9,0,0,0,17.7,6.8,40.3,40.3,0,0,0,6,.4l2.9-.2h.1l6.5-.7a20.2,20.2,0,0,0,7.5-2.5,14,14,0,0,0,6.6-9.1A19,19,0,0,0,574,422.8Z"/></g><path id="TRIANGLE_down" data-name="TRIANGLE down" class="cls-2" d="M929.1,793.1l.2.3h0m-.2-.4.2.3h0m-569,24.7c-2.3-2-3.7-2.5-5.3-2.1V744.8l.3-.2.3-.2.4-.2.4-.2.4-.2.9-.7h.1l.8-.6.3-.2.3-.3a.2.2,0,0,1,.2-.2l.3-.2.6-.7h0l.5-.6c.1-.1.1-.2.2-.2s.1-.2.2-.3,0-.1.1-.2a.3.3,0,0,1,.1-.2l.3-.6v-.2h0a1.9,1.9,0,0,0,.2-.7v-.2c0-.1.1-.3.1-.4v-11c0-2.2-1.5-4.3-4.7-6.5-15.6-10.5-65.9-16.2-112.3-12.7a276.6,276.6,0,0,0-28.8,3.7l-11.2,19.7-4.1,7.2-5.4,9.4-4.8,8.4V816c-2.4.6-5.1,2.6-9.5,6.4a3.9,3.9,0,0,1-.4-1.8v2.2h-.1c-1.1,1-1,2,0,3v5.6c0,2.2,1.5,4.4,4.8,6.6l1.6,1,.6.3,1.2.7.8.3.8.4v6.6c-2.4.6-5,2.6-9.4,6.4a3.9,3.9,0,0,1-.4-1.8V854h-.1c-1.1,1-1,2,0,3v.8H362.1v-5.6a5.2,5.2,0,0,0-1.8-2.8c-2.3-2-3.8-2.5-5.4-2.1v-7.8c0-.1.1-.1.2-.2l.4-.2.4-.2.4-.3.3-.2,1.1-.7h0l.9-.6a.2.2,0,0,1,.2-.2l.3-.3.3-.2a.2.2,0,0,1,.2-.2,4.6,4.6,0,0,1,.7-.7h0l.5-.6.2-.3c0-.1.1-.1.1-.2l.2-.3c0-.1.1-.1.1-.2l.3-.6h0a1.4,1.4,0,0,0,.2-.7h0c0-.2.1-.3.1-.5V821.1A5.4,5.4,0,0,0,360.3,818.2Zm45.4-293.3,14.6-2.9-9.4-42.9-9.4-43.6-14.7,3-2.5,10.7-4.4-20.6-2.8.7-15.4,26.9-15.4,27-2.6,4.5h0l-5.9,24.1-.3,1.1-2.3-10.5-24.9,43.6-6.1,26.1,18.1,3.7-3.5,14.2,35.3,7.6V655c0,.3.2.6.8,1,2.5,1.7,10.5,2.6,17.9,2s9.7-1.7,9.7-3V603.8l12,2.6,23.1-5-16.9-77.6Zm107-158c-1.4-3.7-5.6-6.5-9.2-6.2a5,5,0,0,0-3.5,1.6l-29.4,19.3V322.1h0c.1-.2-.1-.5-.5-.8S463,319.6,458,320s-6.7,1.2-6.6,2.1h0v43.6l-16.7-32.8-.3-.3a4.7,4.7,0,0,0-1.9-.3l-2.6,4.5h0l-5.1,9.1,9.8,19.2-16-8.5-1.8,3.2-1.3,2.2,23.3,12.4.7.2h0L451.3,398h0v86.7c0,.3.2.5.5.7s7.2,1.8,12.2,1.4,6.6-1.2,6.6-2.1V400.1l41.1-26.8a4.9,4.9,0,0,1-2.5.7,1.1,1.1,0,0,1-.8,0h.4C512.4,373.8,514.2,370.6,512.7,366.9ZM566.9,191l-8.5,5.5V176.2l-4.8-8.2h0l-7.6-13.4-1-1.6c-.3.2-.6.4-.6.6V185l-12.1-23.6h0c-.1,0-.1-.1-.2-.2a4,4,0,0,0-2-.1l-2,3.5-3.2,5.7,7.3,14.4-11.9-6.3-1.3,2.3-.9,1.6,17.2,9.1h.4l8.7,16.9v62.6a.5.5,0,0,0,.4.5c1.2.9,5.1,1.3,8.8,1a13.1,13.1,0,0,0,3.4-.6c.9-.2,1.3-.5,1.3-.9v-61l14-9.2ZM574,422.8a21.5,21.5,0,0,0-8.3-9.9c-3.5-2.2-6.5-3.7-9.6-6.7a18,18,0,0,0-2-1.9l3.2-.4h.8a9.1,9.1,0,0,0,4.4-1.9,6.1,6.1,0,0,0,2.1-4.6,3.4,3.4,0,0,0-.5-2.2,2.7,2.7,0,0,0-2.2-1.4h-1.1l-6.6.8-1,.2a9.4,9.4,0,0,0-4.3,2.9h-.8a6.6,6.6,0,0,0-.6-3.1,7,7,0,0,0-4.6-3.3h-.7a4.3,4.3,0,0,0-1.6,0l-6.5.8H534a3,3,0,0,0-2.8,2.2c-.5,1.9.8,4,2.2,5.2s4.5,2.2,6.8,3a8.5,8.5,0,0,1,2.2.9H542c-2.7.7-5.5,1.9-8.1,2.8a14,14,0,0,0-7.1,6.7,33.7,33.7,0,0,0-3.6,10.1c-1,4.5-1.6,9.8,1.1,13.6a12.3,12.3,0,0,0,3.8,3.4,42.9,42.9,0,0,0,17.7,6.8,40.3,40.3,0,0,0,6,.4l2.9-.2h.1l6.5-.7a20.2,20.2,0,0,0,7.5-2.5,14,14,0,0,0,6.6-9.1A19,19,0,0,0,574,422.8Zm3.7,332.4c-1.5-1.4-2.4-1.7-3.5-1.4V706.3l.5-.3h.2a.1.1,0,0,1,.1-.1l1-.6h0a2.7,2.7,0,0,0,.8-.7h.2l.7-.7h0l.5-.7a.1.1,0,0,1,.1-.1h0a1.5,1.5,0,0,0,.3-.7h0c.1-.1.1-.3.2-.5h0v-.3h0v-7.2h0c.1-1.5-.9-2.9-3.1-4.4-10.4-7-43.9-10.8-74.8-8.4-24.6,1.8-40.1,7-40.1,12.6h0V701c0,1.4,1,2.9,3.1,4.3l.9.5v47.9c-1.5.4-3.3,1.7-6.3,4.3a2.5,2.5,0,0,1-.2-1.2v1.4h-.1a1.2,1.2,0,0,0,0,2V764c0,1.4,1,2.9,3.1,4.4l1.1.6.4.3.8.4.6.2.5.3v4.3c-1.6.5-3.3,1.8-6.3,4.3a2.5,2.5,0,0,1-.2-1.2V779a.1.1,0,0,0-.1.1,1.2,1.2,0,0,0,0,2v3.7c0,1.5,1,2.9,3.1,4.4l1.1.6.4.3.8.4.6.2.5.3v33.3c-1.3.3-2.3,1.6-3.4,4.4a3.6,3.6,0,0,1-.2-1v7.2c0,1.2.9,2.5,2.7,3.7l.9.6.4.2.7.3.4.3.8.3.5.2.7.3.7.2.7.3.7.2.8.3.8.2.8.3.8.2h.9l1,.2.9.2,1,.2.6.2h1.1l1.2.2h1.4l2.3.3h.7l2.7.3h.3l2.5.3h.9l1.9.2h3.8l2.6.2h.3l2.9.2h24.1l5-.3h.8l3.3-.2,2.7-.3h.8l1.8-.2h.8l2-.2h.5a9.9,9.9,0,0,1,2.4-.3h2l.9-.2h1.9l1-.2h.9l.9-.2h.6l1.8-.4h.5l2.1-.4h.2l.4-.2,1.1-.2.6-.2,1-.2h.7l.6-.2.7-.2.7-.2h.6l.5-.2.7-.2.5-.2h.3l1.5-.6h.1l1.4-.7h.1a.1.1,0,0,0,.1-.1l1.1-.6h0l1-.6h.2l.6-.5h.2l.6-.6h.1l.4-.5h.1l.3-.7h0c0-.2.1-.4.1-.6h0V830a2.4,2.4,0,0,0,0-3.2c-1.3-1.9-1.1-2.2-1.8-1.5V790.2l.6-.3h.3l1-.6h0l.9-.7h.2l.7-.6h0l.5-.7h.1c.1-.3.3-.5.3-.7h0c.1-.1.1-.3.2-.4h0V785h0v-7a3.1,3.1,0,0,0-1.2-1.9c-1.5-1.4-2.5-1.7-3.5-1.4v-5.2l.5-.3h.3l1-.6h0l.9-.7h.2l.7-.6h0l.5-.7h.1c.1-.3.3-.5.3-.8h0c.1-.1.1-.3.2-.5h0v-.3h0v-7A3.1,3.1,0,0,0,577.7,755.2Zm43.8-252.1c-1.3-1.4-3.1-2-4.2-1.4h0l-36.6,19.4L598,487.4a.1.1,0,0,0-.1.1c.8-1-1.7-3.2-5.9-5.1s-9.5-2.9-11-2a.8.8,0,0,0-.4.4l-21.1,41.1V467.2c0-1.2-3.2-2.2-8.3-2.6s-13.2.3-15.3,1.7c-.5.4-.7.7-.6,1.1v74.4l-36.8-24.1a6,6,0,0,0-4.4-2.1c-4.5-.3-9.7,3.2-11.6,7.8s.4,8.7,5,9H487a7.1,7.1,0,0,1-3.1-1l51.5,33.7V671.2c0,1.2,3.2,2.2,8.3,2.6s13.2-.3,15.3-1.7c.4-.3.7-.6.7-.9l-.2-108.8,15-29.3.8-.3,46.5-24.7c.2-.1.3-.1.4-.3S623,504.8,621.5,503.1Zm8.7-201.2-4,2.6-6.5,4.3V283.5h0L607,261.2v27.5l-16.8-32.9q0-.2-.3-.3c-1.1-.7-5.1,0-8.7,1.7s-5.3,3.1-4.8,3.9h0l30.6,59.8v86.7c0,.3.1.5.5.7s7.2,1.8,12.2,1.4,6.6-1.1,6.6-2V323l11.7-7.6ZM725,665.6a43.5,43.5,0,0,0-16.5-19.7c-6.9-4.3-13-7.3-19.1-13.3l-3.9-3.8,6.3-.8,1.6-.2a17.9,17.9,0,0,0,8.7-3.8,13,13,0,0,0,4.3-9.2,8.4,8.4,0,0,0-1-4.4,5.4,5.4,0,0,0-4.4-2.8,8.1,8.1,0,0,0-2.2,0l-13.2,1.6h0l-2,.4a21,21,0,0,0-8.7,5.7l-1.4.2a13.5,13.5,0,0,0-1.3-6.3c-1.9-3.7-5.6-5.6-9.2-6.5l-1.4-.3a16.1,16.1,0,0,0-3.1,0L645.4,604h-.1c-2.6.3-4.9,1.6-5.6,4.5s1.6,7.9,4.5,10.4,8.9,4.3,13.5,5.9a22.6,22.6,0,0,1,4.3,1.7h-.6c-5.4,1.5-11,3.9-16.3,5.8s-10.8,7.1-14.2,13.2-5.5,13.1-7.1,20.3c-2.1,8.9-3.1,19.6,2.2,27.1a26.4,26.4,0,0,0,7.5,6.7,84.4,84.4,0,0,0,35.4,13.6,67.3,67.3,0,0,0,11.9.7,37.7,37.7,0,0,0,5.8-.4h.3l12.9-1.6a36.3,36.3,0,0,0,14.9-4.8,27.8,27.8,0,0,0,13.2-18.3C729.6,681.4,728.2,672.9,725,665.6Zm20.3-162.3-4.8-8.3-4.8-8.3L730,476.5l-.5-.7-9.7-17.1-39.1-68.4a17.5,17.5,0,0,0-3.2-1.2l-.8-.3-.9-.2-1.5-.4,4.6-1-1.8-3.2h-.6l-14.2,3.2h.4l-1.4.4c-2.8,1-4.6,3.8-6.3,6.5-3.2,5.2-5.9,10.5-6.5,17.4-.5,5-1,7.4-4.4,10a29,29,0,0,0-8.3,9.1l-7.6,1.7-1.2-.4a22.4,22.4,0,0,0-2.4-.3,14.3,14.3,0,0,0-2.9.3l-14.1,3.2c-2.9.6-5.6,2.4-5.3,5.9s1.2,4.1,2.3,6,3.7,6.4,5.6,9.6l-.9.2h.2c-2.8.4-4.5,4.3-3.6,7.9a12.6,12.6,0,0,0,7.4,8.4l1.6.4a11.8,11.8,0,0,0,5.3-.1H620l8.1-1.8h0a25.9,25.9,0,0,0,1.5,6.1c1.7,4.5,5,8.1,8.2,11.4a28.4,28.4,0,0,0,6.1,5.5c1.6.9,3.3,1.4,5,2.3,3.7,1.9,6.9,5.3,10.3,8.1a48.3,48.3,0,0,0,10.3,6.8v61.3c0,.3.2.6.7,1,2.5,1.6,10.4,2.5,17.6,1.9h0c5.8-.4,9.4-1.6,9.4-3V514l7.2-1.5a11.9,11.9,0,0,0,4.7-2.2,11,11,0,0,0,3.8-7.8,38.6,38.6,0,0,0,5.1-.9l-.7.2,4.6-1a51,51,0,0,0,9,3.9,24.2,24.2,0,0,0,3.6,1,15.7,15.7,0,0,0,5.7.3h.5l5.3-1.2ZM900.2,774.6l-54.6,35.7.2-121.7v.3c.1-.6-.2-1.1-1-1.7-3.5-2.3-14.7-3.6-25-2.8-8.4.6-13.6,2.4-13.5,4.3h0v89.2l-34.3-67h0a.9.9,0,0,0-.6-.6c-2.5-1.5-10.5,0-18,3.3s-10.9,6.5-9.6,8.2a.3.3,0,0,1-.1-.2l28.2,55.2-59.9-31.8c-1.8-.9-4.6,0-6.8,2.3s-2.9,6.1-1.3,7.7l.7.5,75.9,40.3a2.8,2.8,0,0,0,1.3.3L806,843.6v14.3h39.5v-9.6l70.4-46.1Zm-65.8,81-2.3,1.1v1.2h13.4v-9.6ZM402.9,354.8h0Zm109.8,12.1c-1.4-3.7-5.6-6.5-9.2-6.2a5,5,0,0,0-3.5,1.6l-29.4,19.3V322.1h0c.1-.2-.1-.5-.5-.8S463,319.6,458,320s-6.7,1.2-6.6,2.1h0v43.6l-16.7-32.8-.3-.3a4.7,4.7,0,0,0-1.9-.3l-2.6,4.5h0l-5.1,9.1,9.8,19.2-16-8.5-1.8,3.2-1.3,2.2,23.3,12.4.7.2h0L451.3,398h0v86.7c0,.3.2.5.5.7s7.2,1.8,12.2,1.4,6.6-1.2,6.6-2.1V400.1l41.1-26.8a4.9,4.9,0,0,1-2.5.7,1.1,1.1,0,0,1-.8,0h.4C512.4,373.8,514.2,370.6,512.7,366.9ZM566.9,191l-8.5,5.5V176.2l-4.8-8.2h0l-7.6-13.4-1-1.6c-.3.2-.6.4-.6.6V185l-12.1-23.6h0c-.1,0-.1-.1-.2-.2a4,4,0,0,0-2-.1l-2,3.5-3.2,5.7,7.3,14.4-11.9-6.3-1.3,2.3-.9,1.6,17.2,9.1h.4l8.7,16.9v62.6a.5.5,0,0,0,.4.5c1.2.9,5.1,1.3,8.8,1a13.1,13.1,0,0,0,3.4-.6c.9-.2,1.3-.5,1.3-.9v-61l14-9.2ZM574,422.8a21.5,21.5,0,0,0-8.3-9.9c-3.5-2.2-6.5-3.7-9.6-6.7a18,18,0,0,0-2-1.9l3.2-.4h.8a9.1,9.1,0,0,0,4.4-1.9,6.1,6.1,0,0,0,2.1-4.6,3.4,3.4,0,0,0-.5-2.2,2.7,2.7,0,0,0-2.2-1.4h-1.1l-6.6.8-1,.2a9.4,9.4,0,0,0-4.3,2.9h-.8a6.6,6.6,0,0,0-.6-3.1,7,7,0,0,0-4.6-3.3h-.7a4.3,4.3,0,0,0-1.6,0l-6.5.8H534a3,3,0,0,0-2.8,2.2c-.5,1.9.8,4,2.2,5.2s4.5,2.2,6.8,3a8.5,8.5,0,0,1,2.2.9H542c-2.7.7-5.5,1.9-8.1,2.8a14,14,0,0,0-7.1,6.7,33.7,33.7,0,0,0-3.6,10.1c-1,4.5-1.6,9.8,1.1,13.6a12.3,12.3,0,0,0,3.8,3.4,42.9,42.9,0,0,0,17.7,6.8,40.3,40.3,0,0,0,6,.4l2.9-.2h.1l6.5-.7a20.2,20.2,0,0,0,7.5-2.5,14,14,0,0,0,6.6-9.1A19,19,0,0,0,574,422.8Zm3.7,332.4c-1.5-1.4-2.4-1.7-3.5-1.4V706.3l.5-.3h.2a.1.1,0,0,1,.1-.1l1-.6h0a2.7,2.7,0,0,0,.8-.7h.2l.7-.7h0l.5-.7a.1.1,0,0,1,.1-.1h0a1.5,1.5,0,0,0,.3-.7h0c.1-.1.1-.3.2-.5h0v-.3h0v-7.2h0c.1-1.5-.9-2.9-3.1-4.4-10.4-7-43.9-10.8-74.8-8.4-24.6,1.8-40.1,7-40.1,12.6h0V701c0,1.4,1,2.9,3.1,4.3l.9.5v47.9c-1.5.4-3.3,1.7-6.3,4.3a2.5,2.5,0,0,1-.2-1.2v1.4h-.1a1.2,1.2,0,0,0,0,2V764c0,1.4,1,2.9,3.1,4.4l1.1.6.4.3.8.4.6.2.5.3v4.3c-1.6.5-3.3,1.8-6.3,4.3a2.5,2.5,0,0,1-.2-1.2V779a.1.1,0,0,0-.1.1,1.2,1.2,0,0,0,0,2v3.7c0,1.5,1,2.9,3.1,4.4l1.1.6.4.3.8.4.6.2.5.3v33.3c-1.3.3-2.3,1.6-3.4,4.4a3.6,3.6,0,0,1-.2-1v7.2c0,1.2.9,2.5,2.7,3.7l.9.6.4.2.7.3.4.3.8.3.5.2.7.3.7.2.7.3.7.2.8.3.8.2.8.3.8.2h.9l1,.2.9.2,1,.2.6.2h1.1l1.2.2h1.4l2.3.3h.7l2.7.3h.3l2.5.3h.9l1.9.2h3.8l2.6.2h.3l2.9.2h24.1l5-.3h.8l3.3-.2,2.7-.3h.8l1.8-.2h.8l2-.2h.5a9.9,9.9,0,0,1,2.4-.3h2l.9-.2h1.9l1-.2h.9l.9-.2h.6l1.8-.4h.5l2.1-.4h.2l.4-.2,1.1-.2.6-.2,1-.2h.7l.6-.2.7-.2.7-.2h.6l.5-.2.7-.2.5-.2h.3l1.5-.6h.1l1.4-.7h.1a.1.1,0,0,0,.1-.1l1.1-.6h0l1-.6h.2l.6-.5h.2l.6-.6h.1l.4-.5h.1l.3-.7h0c0-.2.1-.4.1-.6h0V830a2.4,2.4,0,0,0,0-3.2c-1.3-1.9-1.1-2.2-1.8-1.5V790.2l.6-.3h.3l1-.6h0l.9-.7h.2l.7-.6h0l.5-.7h.1c.1-.3.3-.5.3-.7h0c.1-.1.1-.3.2-.4h0V785h0v-7a3.1,3.1,0,0,0-1.2-1.9c-1.5-1.4-2.5-1.7-3.5-1.4v-5.2l.5-.3h.3l1-.6h0l.9-.7h.2l.7-.6h0l.5-.7h.1c.1-.3.3-.5.3-.8h0c.1-.1.1-.3.2-.5h0v-.3h0v-7A3.1,3.1,0,0,0,577.7,755.2Zm43.8-252.1c-1.3-1.4-3.1-2-4.2-1.4h0l-36.6,19.4L598,487.4a.1.1,0,0,0-.1.1c.8-1-1.7-3.2-5.9-5.1s-9.5-2.9-11-2a.8.8,0,0,0-.4.4l-21.1,41.1V467.2c0-1.2-3.2-2.2-8.3-2.6s-13.2.3-15.3,1.7c-.5.4-.7.7-.6,1.1v74.4l-36.8-24.1a6,6,0,0,0-4.4-2.1c-4.5-.3-9.7,3.2-11.6,7.8s.4,8.7,5,9H487a7.1,7.1,0,0,1-3.1-1l51.5,33.7V671.2c0,1.2,3.2,2.2,8.3,2.6s13.2-.3,15.3-1.7c.4-.3.7-.6.7-.9l-.2-108.8,15-29.3.8-.3,46.5-24.7c.2-.1.3-.1.4-.3S623,504.8,621.5,503.1ZM725,665.6a43.5,43.5,0,0,0-16.5-19.7c-6.9-4.3-13-7.3-19.1-13.3l-3.9-3.8,6.3-.8,1.6-.2a17.9,17.9,0,0,0,8.7-3.8,13,13,0,0,0,4.3-9.2,8.4,8.4,0,0,0-1-4.4,5.4,5.4,0,0,0-4.4-2.8,8.1,8.1,0,0,0-2.2,0l-13.2,1.6h0l-2,.4a21,21,0,0,0-8.7,5.7l-1.4.2a13.5,13.5,0,0,0-1.3-6.3c-1.9-3.7-5.6-5.6-9.2-6.5l-1.4-.3a16.1,16.1,0,0,0-3.1,0L645.4,604h-.1c-2.6.3-4.9,1.6-5.6,4.5s1.6,7.9,4.5,10.4,8.9,4.3,13.5,5.9a22.6,22.6,0,0,1,4.3,1.7h-.6c-5.4,1.5-11,3.9-16.3,5.8s-10.8,7.1-14.2,13.2-5.5,13.1-7.1,20.3c-2.1,8.9-3.1,19.6,2.2,27.1a26.4,26.4,0,0,0,7.5,6.7,84.4,84.4,0,0,0,35.4,13.6,67.3,67.3,0,0,0,11.9.7,37.7,37.7,0,0,0,5.8-.4h.3l12.9-1.6a36.3,36.3,0,0,0,14.9-4.8,27.8,27.8,0,0,0,13.2-18.3C729.6,681.4,728.2,672.9,725,665.6ZM405.7,524.9l14.6-2.9-9.4-42.9-9.4-43.6-14.7,3-2.5,10.7-4.4-20.6-2.8.7-15.4,26.9-15.4,27-2.6,4.5h0l-5.9,24.1-.3,1.1-2.3-10.5-24.9,43.6-6.1,26.1,18.1,3.7-3.5,14.2,35.3,7.6V655c0,.3.2.6.8,1,2.5,1.7,10.5,2.6,17.9,2s9.7-1.7,9.7-3V603.8l12,2.6,23.1-5-16.9-77.6ZM900.2,774.6l-54.6,35.7.2-121.7v.3c.1-.6-.2-1.1-1-1.7-3.5-2.3-14.7-3.6-25-2.8-8.4.6-13.6,2.4-13.5,4.3h0v89.2l-34.3-67h0a.9.9,0,0,0-.6-.6c-2.5-1.5-10.5,0-18,3.3s-10.9,6.5-9.6,8.2a.3.3,0,0,1-.1-.2l28.2,55.2-59.9-31.8c-1.8-.9-4.6,0-6.8,2.3s-2.9,6.1-1.3,7.7l.7.5,75.9,40.3a2.8,2.8,0,0,0,1.3.3L806,843.6v14.3h39.5v-9.6l70.4-46.1ZM745.3,503.3l-4.8-8.3-4.8-8.3L730,476.5l-.5-.7-9.7-17.1-39.1-68.4a17.5,17.5,0,0,0-3.2-1.2l-.8-.3-.9-.2-1.5-.4,4.6-1-1.8-3.2h-.6l-14.2,3.2h.4l-1.4.4c-2.8,1-4.6,3.8-6.3,6.5-3.2,5.2-5.9,10.5-6.5,17.4-.5,5-1,7.4-4.4,10a29,29,0,0,0-8.3,9.1l-7.6,1.7-1.2-.4a22.4,22.4,0,0,0-2.4-.3,14.3,14.3,0,0,0-2.9.3l-14.1,3.2c-2.9.6-5.6,2.4-5.3,5.9s1.2,4.1,2.3,6,3.7,6.4,5.6,9.6l-.9.2h.2c-2.8.4-4.5,4.3-3.6,7.9a12.6,12.6,0,0,0,7.4,8.4l1.6.4a11.8,11.8,0,0,0,5.3-.1H620l8.1-1.8h0a25.9,25.9,0,0,0,1.5,6.1c1.7,4.5,5,8.1,8.2,11.4a28.4,28.4,0,0,0,6.1,5.5c1.6.9,3.3,1.4,5,2.3,3.7,1.9,6.9,5.3,10.3,8.1a48.3,48.3,0,0,0,10.3,6.8v61.3c0,.3.2.6.7,1,2.5,1.6,10.4,2.5,17.6,1.9h0c5.8-.4,9.4-1.6,9.4-3V514l7.2-1.5a11.9,11.9,0,0,0,4.7-2.2,11,11,0,0,0,3.8-7.8,38.6,38.6,0,0,0,5.1-.9l-.7.2,4.6-1a51,51,0,0,0,9,3.9,24.2,24.2,0,0,0,3.6,1,15.7,15.7,0,0,0,5.7.3h.5l5.3-1.2ZM664.3,297h0Zm-34.1,4.9-4,2.6-6.5,4.3V283.5h0L607,261.2v27.5l-16.8-32.9q0-.2-.3-.3c-1.1-.7-5.1,0-8.7,1.7s-5.3,3.1-4.8,3.9h0l30.6,59.8v86.7c0,.3.1.5.5.7s7.2,1.8,12.2,1.4,6.6-1.1,6.6-2V323l11.7-7.6ZM360.3,818.2c-2.3-2-3.7-2.5-5.3-2.1V744.8l.3-.2.3-.2.4-.2.4-.2.4-.2.9-.7h.1l.8-.6.3-.2.3-.3a.2.2,0,0,1,.2-.2l.3-.2.6-.7h0l.5-.6c.1-.1.1-.2.2-.2s.1-.2.2-.3,0-.1.1-.2a.3.3,0,0,1,.1-.2l.3-.6v-.2h0a1.9,1.9,0,0,0,.2-.7v-.2c0-.1.1-.3.1-.4v-11c0-2.2-1.5-4.3-4.7-6.5-15.6-10.5-65.9-16.2-112.3-12.7a276.6,276.6,0,0,0-28.8,3.7l-11.2,19.7-4.1,7.2-5.4,9.4-4.8,8.4V816c-2.4.6-5.1,2.6-9.5,6.4a3.9,3.9,0,0,1-.4-1.8v2.2h-.1c-1.1,1-1,2,0,3v5.6c0,2.2,1.5,4.4,4.8,6.6l1.6,1,.6.3,1.2.7.8.3.8.4v6.6c-2.4.6-5,2.6-9.4,6.4a3.9,3.9,0,0,1-.4-1.8V854h-.1c-1.1,1-1,2,0,3v.8H362.1v-5.6a5.2,5.2,0,0,0-1.8-2.8c-2.3-2-3.8-2.5-5.4-2.1v-7.8c0-.1.1-.1.2-.2l.4-.2.4-.2.4-.3.3-.2,1.1-.7h0l.9-.6a.2.2,0,0,1,.2-.2l.3-.3.3-.2a.2.2,0,0,1,.2-.2,4.6,4.6,0,0,1,.7-.7h0l.5-.6.2-.3c0-.1.1-.1.1-.2l.2-.3c0-.1.1-.1.1-.2l.3-.6h0a1.4,1.4,0,0,0,.2-.7h0c0-.2.1-.3.1-.5V821.1A5.4,5.4,0,0,0,360.3,818.2Zm69.5-481.4Z"/><g id="TRIANGLE_down-2" data-name="TRIANGLE down"><path class="cls-1" d="M540,31.6,38.8,910.2,540,31.6m0,0,501.2,878.6L540,31.6m501.2,878.6h0M540,1.6h0a29.2,29.2,0,0,0-12.3,2.6,30.3,30.3,0,0,0-8.9,6.2,25.8,25.8,0,0,0-5.1,6.8L13,894.9a29.1,29.1,0,0,0-3.2,7.7A29.7,29.7,0,0,0,9,913.3a29.3,29.3,0,0,0,3.9,12,29,29,0,0,0,8.5,9.3,28.5,28.5,0,0,0,9.8,4.6,28.4,28.4,0,0,0,7.6,1H1041.2a29.8,29.8,0,0,0,7.8-1,28.4,28.4,0,0,0,9.6-4.6,29,29,0,0,0,8.5-9.3,29.3,29.3,0,0,0,3.9-12,29.7,29.7,0,0,0-.8-10.7,29.1,29.1,0,0,0-3.2-7.7L566.3,17.2a27.2,27.2,0,0,0-5.2-6.9,27.1,27.1,0,0,0-8.7-6A30.1,30.1,0,0,0,540,1.6ZM90.5,880.2,540,92.1,989.5,880.2Zm950.7,60Zm0,0Z"/></g></svg>