<svg id="servizi_moduila" data-name="servizi moduila" xmlns="http://www.w3.org/2000/svg" viewBox="0 0 1080 1080"><defs><style>.cls-1{fill:#fdf3f8;}.cls-10,.cls-11,.cls-2,.cls-3,.cls-4,.cls-5,.cls-6,.cls-7,.cls-8,.cls-9{fill:none;stroke:#fdf3f8;}.cls-2,.cls-3,.cls-4,.cls-5,.cls-6{stroke-miterlimit:10;}.cls-10,.cls-2,.cls-3,.cls-4,.cls-5,.cls-6,.cls-7,.cls-8,.cls-9{stroke-width:10px;}.cls-10,.cls-11,.cls-3,.cls-4,.cls-5,.cls-6,.cls-7,.cls-9{stroke-linecap:round;}.cls-4{stroke-dasharray:12.02 20.04;}.cls-5{stroke-dasharray:12.17 20.29;}.cls-10,.cls-6{stroke-dasharray:12 20;}.cls-10,.cls-11,.cls-7,.cls-8{stroke-linejoin:round;}.cls-9{stroke-linejoin:bevel;}.cls-11{stroke-width:5px;}</style></defs><title>servizi_container</title><path class="cls-1" d="M1026.3,15A38.7,38.7,0,0,1,1065,53.7v972.6a38.7,38.7,0,0,1-38.7,38.7H53.7A38.7,38.7,0,0,1,15,1026.3V53.7A38.7,38.7,0,0,1,53.7,15h972.6m0-15H53.7A53.6,53.6,0,0,0,0,53.7v972.6A53.6,53.6,0,0,0,53.7,1080h972.6a53.6,53.6,0,0,0,53.7-53.7V53.7A53.6,53.6,0,0,0,1026.3,0Z"/><rect class="cls-2" x="92.7" y="605.4" width="356.9" height="356.91"/><polyline class="cls-3" points="904.1 721.1 874.2 737.1 849.9 750.1 837 757 451.6 962.9"/><line class="cls-3" x1="91.7" y1="605.4" x2="544.2" y2="363.7"/><line class="cls-3" x1="92.7" y1="962.9" x2="98" y2="960"/><line class="cls-4" x1="115.6" y1="950.6" x2="531" y2="728.7"/><line class="cls-3" x1="539.9" y1="724" x2="545.2" y2="721.1"/><line class="cls-3" x1="451.6" y1="605.4" x2="904.1" y2="363.7"/><polyline class="cls-3" points="904.1 714.6 904.1 720.6 898.1 720.6"/><line class="cls-5" x1="877.8" y1="720.6" x2="563.3" y2="720.6"/><polyline class="cls-3" points="553.2 720.6 547.2 720.6 547.2 714.6"/><line class="cls-5" x1="547.2" y1="694.3" x2="547.2" y2="379.8"/><polyline class="cls-3" points="547.2 369.7 547.2 363.7 553.2 363.7"/><line class="cls-5" x1="573.5" y1="363.7" x2="887.9" y2="363.7"/><polyline class="cls-3" points="898.1 363.7 904.1 363.7 904.1 369.7"/><line class="cls-5" x1="904.1" y1="390" x2="904.1" y2="704.4"/><rect class="cls-2" x="639.5" y="655.7" width="44.2" height="208.93"/><rect class="cls-6" x="711.8" y="616.1" width="44.2" height="208.93"/><line class="cls-2" x1="756" y1="616.1" x2="683.7" y2="655.7"/><line class="cls-2" x1="639.5" y1="653.7" x2="710.8" y2="615.1"/><line class="cls-2" x1="684.7" y1="865.7" x2="756" y2="825"/><path class="cls-3" d="M792.6,793.8V418.1c0-16.6,0-38-25.5-30.1-15.6,4.8-30.7,22.5-28.3,48.6"/><path class="cls-3" d="M837,767.9V392.2c0-16.6,0-38-25.6-30.1-15.6,4.8-30.7,22.5-28.3,48.6"/><line class="cls-2" x1="790.5" y1="459.6" x2="837.3" y2="434.2"/><line class="cls-2" x1="790.5" y1="514.2" x2="837.3" y2="488.8"/><line class="cls-2" x1="790.5" y1="568.8" x2="837.3" y2="543.5"/><line class="cls-2" x1="790.5" y1="623.4" x2="837.3" y2="598.1"/><line class="cls-2" x1="790.5" y1="678" x2="837.3" y2="652.7"/><line class="cls-2" x1="790.5" y1="732.7" x2="837.3" y2="707.3"/><polyline class="cls-7" points="672.8 639.4 672.8 487.5 494.4 487.5"/><polyline class="cls-7" points="697.8 626.4 697.8 472.5 519.4 472.5"/><polyline class="cls-7" points="494.7 487.5 445.4 514.6 445.4 539.4"/><polyline class="cls-7" points="522.5 471.2 571.8 444.2 571.8 462"/><line class="cls-3" x1="430.5" y1="531.4" x2="460.4" y2="531.4"/><path class="cls-1" d="M445.4,535.6h0A15.6,15.6,0,0,1,461,551.3v0a0,0,0,0,1,0,0H429.8a0,0,0,0,1,0,0v0A15.6,15.6,0,0,1,445.4,535.6Z"/><line class="cls-3" x1="430.5" y1="531.4" x2="460.4" y2="531.4"/><path class="cls-1" d="M445.4,535.6h0A15.6,15.6,0,0,1,461,551.3v0a0,0,0,0,1,0,0H429.8a0,0,0,0,1,0,0v0A15.6,15.6,0,0,1,445.4,535.6Z"/><line class="cls-3" x1="556.9" y1="457.7" x2="586.9" y2="457.7"/><path class="cls-1" d="M571.8,462h0a15.6,15.6,0,0,1,15.6,15.6v0a0,0,0,0,1,0,0H556.2a0,0,0,0,1,0,0v0A15.6,15.6,0,0,1,571.8,462Z"/><line class="cls-3" x1="556.9" y1="457.7" x2="586.9" y2="457.7"/><path class="cls-1" d="M571.8,462h0a15.6,15.6,0,0,1,15.6,15.6v0a0,0,0,0,1,0,0H556.2a0,0,0,0,1,0,0v0A15.6,15.6,0,0,1,571.8,462Z"/><rect class="cls-3" x="93.7" y="678" width="275.4" height="284.26"/><rect class="cls-3" x="389.7" y="825" width="34.5" height="44.28"/><path class="cls-2" d="M316.4,875.7a142.5,142.5,0,0,1-29.2,86.6H92.7V757.6l1-.7a143.3,143.3,0,0,1,142.5-9.7,138.8,138.8,0,0,1,20,11.9,28.7,28.7,0,0,0-14,24.7,28.9,28.9,0,0,0,52.7,16.5,138.5,138.5,0,0,1,10.7,20.6,144.3,144.3,0,0,1,7.5,24.2A140,140,0,0,1,316.4,875.7Z"/><path class="cls-2" d="M294.9,800.3a28.6,28.6,0,0,0,5.2-16.5,29,29,0,0,0-29-28.9,28.4,28.4,0,0,0-14.9,4.2"/><path class="cls-2" d="M305.6,820.9a50.6,50.6,0,0,1-69.4-73.7,138.8,138.8,0,0,1,20,11.9,28.7,28.7,0,0,0-14,24.7,28.9,28.9,0,0,0,52.7,16.5A138.5,138.5,0,0,1,305.6,820.9Z"/><path class="cls-2" d="M294.9,800.3a28.6,28.6,0,0,0,5.2-16.5,29,29,0,0,0-29-28.9,28.4,28.4,0,0,0-14.9,4.2"/><polyline class="cls-3" points="547.2 363.7 904.1 363.7 904.1 720.6"/><polyline class="cls-3" points="755.7 825 755.7 615.1 710.8 615.1"/><polygon class="cls-8" points="742.2 730.2 723.2 741.2 723.2 704.2 742.2 693.2 742.2 730.2"/><rect class="cls-2" x="116.3" y="963.5" width="30" height="20.77"/><polyline class="cls-9" points="150.1 984.2 163.4 977 164.4 976.4"/><polyline class="cls-3" points="164.2 963.9 164.2 972.9 164.2 973.6"/><rect class="cls-2" x="392.6" y="963.5" width="30" height="20.77"/><polyline class="cls-9" points="426.4 984.2 439.7 977 440.7 976.4"/><polyline class="cls-3" points="440.5 963.9 440.5 972.9 440.5 973.6"/><polygon class="cls-2" points="874.2 737.1 874.2 750.1 849.9 750.1 874.2 737.1"/><polyline class="cls-9" points="878.1 750.3 891.4 743 892.4 742.5"/><polyline class="cls-3" points="892.1 729.9 892.1 739 892.1 739.7"/><line class="cls-6" x1="212.2" y1="345.9" x2="212.2" y2="575.7"/><line class="cls-6" x1="501.4" y1="424.2" x2="501.4" y2="194.4"/><polygon class="cls-10" points="760.7 288.1 360.4 502 131.2 371.7 531.6 157.9 760.7 288.1"/><line class="cls-6" x1="408.7" y1="575.7" x2="408.7" y2="455.9"/><line class="cls-6" x1="697.9" y1="424.2" x2="697.9" y2="304.4"/><polygon class="cls-7" points="760.7 258.1 360.4 472 131.2 341.7 531.6 127.9 760.7 258.1"/><polyline class="cls-7" points="129.2 341.7 129.2 371.7 360.4 502 760 289.3 760 259.3"/><line class="cls-7" x1="360.5" y1="469.5" x2="360.5" y2="499.5"/><line class="cls-10" x1="531.1" y1="129.7" x2="531.1" y2="159.7"/><line class="cls-2" x1="212.2" y1="579.5" x2="212.2" y2="419.6"/><line class="cls-2" x1="408.7" y1="579.5" x2="408.7" y2="480.4"/><line class="cls-2" x1="697.8" y1="428.6" x2="697.8" y2="320"/><polyline class="cls-11" points="596.8 259.3 684.7 114.2 858.6 114.2"/><polyline class="cls-11" points="707.1 838.7 779 910.7 937.7 910.7"/><polyline class="cls-11" points="408.7 855.5 544.6 991.3 733.2 991.3"/><path class="cls-1" d="M725.7,93.2A12.3,12.3,0,0,0,732,95c3.5,0,5.6-1.9,5.6-4.6s-1.4-4-5.1-5.4-7.1-3.8-7.1-7.6,3.5-7.3,8.7-7.3a12.1,12.1,0,0,1,6,1.3l-1,2.8a10.6,10.6,0,0,0-5.1-1.3c-3.7,0-5.1,2.2-5.1,4.1s1.7,3.7,5.4,5.2,6.9,3.9,6.9,7.9-3.1,7.8-9.5,7.8a13.1,13.1,0,0,1-6.8-1.8Z"/><path class="cls-1" d="M763.6,87.6c0,7.2-5,10.3-9.7,10.3s-9.2-3.8-9.2-10,4.2-10.2,9.6-10.2S763.6,81.7,763.6,87.6Zm-15.4.2c0,4.3,2.5,7.5,5.9,7.5s5.9-3.2,5.9-7.6-1.7-7.4-5.8-7.4S748.2,84.1,748.2,87.8Z"/><path class="cls-1" d="M768,69.1h3.5V97.5H768Z"/><path class="cls-1" d="M788.2,97.5l-.3-2.5h-.1a7.4,7.4,0,0,1-6,2.9,5.5,5.5,0,0,1-5.9-5.6c0-4.6,4.2-7.2,11.7-7.2v-.4c0-1.6-.5-4.4-4.4-4.4a9.8,9.8,0,0,0-5.1,1.4l-.8-2.3a11.7,11.7,0,0,1,6.4-1.7c5.9,0,7.3,4,7.3,7.9v7.2a22.9,22.9,0,0,0,.4,4.7Zm-.6-9.9c-3.8-.1-8.1.6-8.1,4.3a3.1,3.1,0,0,0,3.3,3.4,4.7,4.7,0,0,0,4.6-3.2,2.5,2.5,0,0,0,.2-1.2Z"/><path class="cls-1" d="M796.7,84.1c0-2.2,0-4.2-.1-6h3l.2,3.8h.1a5.8,5.8,0,0,1,5.4-4.2h1v3.3h-1.2c-2.5,0-4.3,1.9-4.7,4.5a7.8,7.8,0,0,0-.2,1.6V97.5h-3.5Z"/><path class="cls-1" d="M818.4,70.8a39,39,0,0,1,6.7-.5c3.4,0,5.9.8,7.5,2.2a7.4,7.4,0,0,1,2.4,5.7,7.7,7.7,0,0,1-2.1,5.7c-1.8,2-4.8,3-8.2,3a11.9,11.9,0,0,1-2.8-.2V97.5h-3.5Zm3.5,13a11.2,11.2,0,0,0,2.9.3c4.2,0,6.7-2,6.7-5.8s-2.5-5.2-6.3-5.2l-3.3.2Z"/><path class="cls-1" d="M849.2,97.5,849,95h-.2a7.1,7.1,0,0,1-5.9,2.9,5.5,5.5,0,0,1-5.9-5.6c0-4.6,4.2-7.2,11.6-7.2v-.4c0-1.6-.4-4.4-4.4-4.4a9.4,9.4,0,0,0-5,1.4l-.8-2.3a11.5,11.5,0,0,1,6.4-1.7c5.9,0,7.3,4,7.3,7.9v7.2a33.8,33.8,0,0,0,.3,4.7Zm-.5-9.9c-3.8-.1-8.2.6-8.2,4.3a3.1,3.1,0,0,0,3.3,3.4,4.7,4.7,0,0,0,4.7-3.2,5,5,0,0,0,.2-1.2Z"/><path class="cls-1" d="M857.8,83.3a41.8,41.8,0,0,0-.2-5.2h3.2l.2,3.2h0a7.2,7.2,0,0,1,6.4-3.6c2.7,0,6.9,1.6,6.9,8.2V97.5h-3.5V86.3c0-3.1-1.2-5.7-4.5-5.7a4.9,4.9,0,0,0-4.7,3.6,3.8,3.8,0,0,0-.3,1.6V97.5h-3.5Z"/><path class="cls-1" d="M882,88.4c0,4.8,3.1,6.7,6.6,6.7a12.7,12.7,0,0,0,5.4-1l.6,2.6a17.3,17.3,0,0,1-6.5,1.2c-5.9,0-9.5-4-9.5-9.8s3.4-10.4,9.1-10.4,8,5.5,8,9.1c0,.7-.1,1.3-.1,1.6Zm10.3-2.5c0-2.2-.9-5.7-4.9-5.7s-5.1,3.3-5.4,5.7Z"/><path class="cls-1" d="M900,69.1h3.6V97.5H900Z"/><path class="cls-1" d="M810.6,866.4a49.5,49.5,0,0,1,6.6-.5c3.5,0,6,.8,7.6,2.3a7,7,0,0,1,2.4,5.6,8.4,8.4,0,0,1-2.1,5.8c-1.9,1.9-4.9,2.9-8.3,2.9a12.3,12.3,0,0,1-2.8-.2v10.8h-3.4Zm3.4,13a12.3,12.3,0,0,0,2.9.3c4.2,0,6.8-2,6.8-5.7s-2.5-5.3-6.4-5.3a12.6,12.6,0,0,0-3.3.3Z"/><path class="cls-1" d="M833.2,873.7l4.2,11.5c.4,1.2.9,2.8,1.2,3.9h.1c.4-1.1.8-2.6,1.3-4l3.8-11.4h3.7l-5.3,13.8c-2.5,6.7-4.2,10.1-6.6,12.1a8.2,8.2,0,0,1-4.3,2.3l-.9-2.9a10.2,10.2,0,0,0,3.1-1.8,10.7,10.7,0,0,0,2.9-3.9,1.6,1.6,0,0,0,.3-.8,5.1,5.1,0,0,0-.2-.9l-7.2-17.9Z"/><path class="cls-1" d="M850.7,879c0-2,0-3.7-.1-5.3h3l.2,3.1h.1a6.8,6.8,0,0,1,6.1-3.5,5.8,5.8,0,0,1,5.5,3.9h.1a8,8,0,0,1,2.1-2.6,7.3,7.3,0,0,1,4.3-1.3c2.6,0,6.4,1.7,6.4,8.4v11.4h-3.5v-11c0-3.7-1.3-5.9-4.2-5.9a4.4,4.4,0,0,0-4.1,3.2,4.3,4.3,0,0,0-.3,1.7v12h-3.5V881.5c0-3.1-1.3-5.3-4-5.3a4.8,4.8,0,0,0-4.4,3.5,4.7,4.7,0,0,0-.2,1.7v11.7h-3.5Z"/><path class="cls-1" d="M892.2,888.8a11.9,11.9,0,0,0,6.2,1.8c3.6,0,5.7-1.9,5.7-4.6s-1.5-4-5.1-5.4-7.1-3.8-7.1-7.6,3.5-7.3,8.7-7.3a12.1,12.1,0,0,1,6,1.3l-1,2.8a12.2,12.2,0,0,0-5.1-1.2c-3.7,0-5.1,2.2-5.1,4s1.6,3.8,5.4,5.2,6.8,4,6.8,7.9-3,7.8-9.4,7.8a14.9,14.9,0,0,1-6.9-1.7Z"/><path class="cls-1" d="M916.4,868.2v5.5h5v2.7h-5v10.4c0,2.4.7,3.8,2.6,3.8l2.1-.2V893a7.6,7.6,0,0,1-3.1.5,4.9,4.9,0,0,1-3.8-1.5c-1-1-1.3-2.8-1.3-5V876.4h-3v-2.7h3v-4.6Z"/><path class="cls-1" d="M936.1,893.1l-.3-2.5h-.1a6.9,6.9,0,0,1-5.9,2.9c-3.9,0-5.9-2.7-5.9-5.5,0-4.7,4.1-7.3,11.6-7.2v-.4c0-1.6-.4-4.5-4.4-4.5a9.2,9.2,0,0,0-5,1.4l-.8-2.3a12.3,12.3,0,0,1,6.3-1.7c6,0,7.4,4,7.4,7.9v7.2a32.8,32.8,0,0,0,.3,4.7Zm-.5-9.9c-3.8-.1-8.2.6-8.2,4.4a3.1,3.1,0,0,0,3.3,3.3,4.9,4.9,0,0,0,4.7-3.2,5.2,5.2,0,0,0,.2-1.1Z"/><path class="cls-1" d="M948.8,868.2v5.5h5v2.7h-5v10.4c0,2.4.6,3.8,2.6,3.8l2-.2.2,2.6a8.3,8.3,0,0,1-3.1.5,4.6,4.6,0,0,1-3.8-1.5c-1-1-1.4-2.8-1.4-5V876.4h-3v-2.7h3v-4.6Z"/><path class="cls-1" d="M961.7,868.3a2.1,2.1,0,0,1-2.3,2.1,2.1,2.1,0,0,1-2.1-2.1,2.2,2.2,0,0,1,4.4,0Zm-3.9,24.8V873.7h3.5v19.4Z"/><path class="cls-1" d="M984.6,883.2c0,7.2-4.9,10.3-9.6,10.3s-9.3-3.8-9.3-9.9,4.3-10.3,9.6-10.3S984.6,877.3,984.6,883.2Zm-15.3.2c0,4.3,2.4,7.5,5.9,7.5s5.8-3.2,5.8-7.5-1.6-7.5-5.8-7.5S969.3,879.8,969.3,883.4Z"/><path class="cls-1" d="M989.1,879c0-2-.1-3.7-.2-5.3H992l.2,3.2h.1a7.2,7.2,0,0,1,6.4-3.6c2.7,0,6.9,1.6,6.9,8.2v11.6H1002V881.9c0-3.1-1.1-5.7-4.4-5.7a5,5,0,0,0-4.8,3.6,7,7,0,0,0-.2,1.6v11.7h-3.5Z"/><path class="cls-1" d="M586.8,967.9a12.9,12.9,0,0,0,6.2,1.7c3.6,0,5.7-1.9,5.7-4.6s-1.5-3.9-5.1-5.3-7.1-3.9-7.1-7.7,3.5-7.3,8.7-7.3a12.1,12.1,0,0,1,6,1.3l-1,2.9a10.6,10.6,0,0,0-5.1-1.3c-3.7,0-5.1,2.2-5.1,4s1.6,3.8,5.4,5.2,6.8,4,6.8,7.9-3,7.8-9.4,7.8a14.9,14.9,0,0,1-6.9-1.7Z"/><path class="cls-1" d="M617.7,972.1l-.3-2.4h-.1a7.1,7.1,0,0,1-5.9,2.8c-3.9,0-5.9-2.7-5.9-5.5,0-4.7,4.1-7.3,11.6-7.2v-.4c0-1.6-.4-4.5-4.4-4.5a10.1,10.1,0,0,0-5,1.4l-.8-2.3a12.3,12.3,0,0,1,6.3-1.7c6,0,7.4,4,7.4,7.9v7.3a32.3,32.3,0,0,0,.3,4.6Zm-.5-9.9c-3.8-.1-8.2.6-8.2,4.4a3,3,0,0,0,3.3,3.3,4.9,4.9,0,0,0,4.7-3.2,5.2,5.2,0,0,0,.2-1.1Z"/><path class="cls-1" d="M626.6,972.1V955.4h-2.7v-2.7h2.7v-.9c0-2.7.6-5.2,2.3-6.7a6.6,6.6,0,0,1,4.7-1.8,8.1,8.1,0,0,1,3,.5l-.5,2.7a5.7,5.7,0,0,0-2.2-.4c-3,0-3.8,2.6-3.8,5.6v1h4.7v2.7h-4.7v16.7Z"/><path class="cls-1" d="M639.4,963.1c.1,4.7,3.1,6.7,6.6,6.7a13.6,13.6,0,0,0,5.4-1l.6,2.5a15,15,0,0,1-6.4,1.2c-6,0-9.6-3.9-9.6-9.8s3.5-10.4,9.1-10.4,8,5.6,8,9.1c0,.7-.1,1.3-.1,1.7Zm10.3-2.6c.1-2.2-.9-5.7-4.9-5.7s-5.1,3.3-5.4,5.7Z"/><path class="cls-1" d="M661.7,947.2v5.5h5.1v2.7h-5.1v10.5c0,2.4.7,3.7,2.7,3.7l2-.2.2,2.6a8.5,8.5,0,0,1-3.2.5,4.9,4.9,0,0,1-3.8-1.5c-1-1-1.3-2.7-1.3-5V955.4h-3v-2.7h3v-4.6Z"/><path class="cls-1" d="M672.4,952.7l4.2,11.5c.4,1.3.9,2.8,1.2,3.9h.1c.4-1.1.8-2.6,1.3-4l3.8-11.4h3.7l-5.3,13.8c-2.5,6.7-4.2,10.1-6.6,12.2a8.6,8.6,0,0,1-4.3,2.2l-.9-2.9a9.7,9.7,0,0,0,6-5.7,1.6,1.6,0,0,0,.3-.8,5.1,5.1,0,0,0-.2-.9l-7.2-17.9Z"/><path class="cls-1" d="M698.5,945.1H702v24.1h11.5v2.9h-15Z"/><path class="cls-1" d="M734.2,962.3c0,7.1-4.9,10.2-9.6,10.2s-9.3-3.8-9.3-9.9,4.3-10.3,9.6-10.3S734.2,956.3,734.2,962.3Zm-15.3.2c0,4.2,2.4,7.4,5.9,7.4s5.8-3.2,5.8-7.5-1.6-7.5-5.8-7.5S718.9,958.8,718.9,962.5Z"/><path class="cls-1" d="M752.5,971.4a12.9,12.9,0,0,1-5.6,1.1c-5.8,0-9.6-4-9.6-9.9s4.1-10.3,10.4-10.3a13.4,13.4,0,0,1,4.9,1l-.8,2.8a8.2,8.2,0,0,0-4.1-1c-4.5,0-6.9,3.3-6.9,7.4s2.9,7.2,6.8,7.2a9,9,0,0,0,4.3-1Z"/><path class="cls-1" d="M760.1,961.6h.1a16.3,16.3,0,0,1,1.7-2.2l5.7-6.7h4.2l-7.5,8,8.5,11.4h-4.2l-6.7-9.3-1.8,2v7.3h-3.5V943.7h3.5Z"/></svg>