<svg id="servizi_custom_copy" data-name="servizi custom copy" xmlns="http://www.w3.org/2000/svg" viewBox="0 0 1080 1080"><defs><style>.cls-1{fill:#fdf3f8;}.cls-2,.cls-3,.cls-4{fill:none;stroke:#fdf3f8;stroke-linecap:round;stroke-linejoin:round;}.cls-2,.cls-4{stroke-width:10px;}.cls-3{stroke-width:23px;}.cls-4{stroke-dasharray:5 20;}</style></defs><title>servizi_ricarica</title><path class="cls-1" d="M1026.3,15A38.7,38.7,0,0,1,1065,53.7v972.6a38.7,38.7,0,0,1-38.7,38.7H53.7A38.7,38.7,0,0,1,15,1026.3V53.7A38.7,38.7,0,0,1,53.7,15h972.6m0-15H53.7A53.6,53.6,0,0,0,0,53.7v972.6A53.6,53.6,0,0,0,53.7,1080h972.6a53.6,53.6,0,0,0,53.7-53.7V53.7A53.6,53.6,0,0,0,1026.3,0Z"/><path class="cls-2" d="M151.8,917.1c0,35.4,59,64,131.8,64s131.8-28.6,131.8-64"/><path class="cls-2" d="M151.8,362.7c0,35.4,59,64.1,131.8,64.1s129.6-27.6,131.7-62.1a13.4,13.4,0,0,0,.1-2,33.2,33.2,0,0,0-3.8-15.2h0"/><polyline class="cls-2" points="415.4 362.7 415.4 365 415.4 568.4"/><line class="cls-2" x1="415.4" y1="917.1" x2="415.4" y2="721.2"/><line class="cls-2" x1="151.8" y1="917.1" x2="151.8" y2="362.7"/><path class="cls-2" d="M336.4,241.2l.9.6c34.5,19.8,62,57.8,74.3,105.7h0c1.5,5.6,2.7,11.3,3.7,17.2,0,.1.1.2.1.3"/><path class="cls-2" d="M302.5,228.6l-3.7-.7"/><path class="cls-2" d="M259,229.3c-50.1,11.5-92.4,66.1-107.2,131.3"/><path class="cls-2" d="M259,128.9h39.7a0,0,0,0,1,0,0V229.8a19.9,19.9,0,0,1-19.9,19.9h0A19.9,19.9,0,0,1,259,229.8V128.9A0,0,0,0,1,259,128.9Z"/><line class="cls-3" x1="278.9" y1="77.1" x2="278.9" y2="172.4"/><line class="cls-3" x1="361.8" y1="123.2" x2="195.9" y2="123.2"/><line class="cls-3" x1="348.4" y1="88.7" x2="209.4" y2="157.6"/><line class="cls-3" x1="219.4" y1="93.7" x2="348.4" y2="157.6"/><path class="cls-2" d="M353.6,207c0,19.3-7.8,34.8-17.4,34.8a9.6,9.6,0,0,1-3.3-.6,14.3,14.3,0,0,1-6.7-5.7c-4.5-6.3-7.4-16.7-7.4-28.5,0-19.2,7.8-34.8,17.4-34.8S353.6,187.8,353.6,207Z"/><path class="cls-2" d="M316.2,172.2c-9.6,0-17.4,15.6-17.4,34.8s7.8,34.8,17.4,34.8a9.1,9.1,0,0,0,3.2-.6"/><polyline class="cls-2" points="311.7 172.2 316.2 172.2 336.2 172.2 341.8 172.2"/><path class="cls-2" d="M326.2,235.5a15.3,15.3,0,0,0,6.7,5.7H319.4"/><line class="cls-2" x1="338.8" y1="241.2" x2="332.9" y2="241.2"/><line class="cls-2" x1="319.4" y1="241.2" x2="315.7" y2="241.2"/><path class="cls-2" d="M334.6,710.1l-1,.2"/><path class="cls-2" d="M283.6,580.2c40.9,0,77.5-9.1,101.7-23.3"/><polyline class="cls-2" points="333.6 603.2 333.6 606.7 333.6 641.1 333.6 671.1 333.6 701.1 333.6 710.3 333.6 735.1 334.6 710.1"/><path class="cls-2" d="M333.6,602.7l-50-22.5V715.1l50,20c30.9,0,59.3-5.2,81.8-13.9a131.4,131.4,0,0,0,19.9-9.5"/><path class="cls-2" d="M432.3,575.9c-5.9,3.5-9.6,7.7-16.9,10.5a187.3,187.3,0,0,1-30.1,8.7c-15.9,3.3-33.4,8.1-51.7,8.1"/><path class="cls-2" d="M435.3,711.7v0Z"/><line class="cls-2" x1="388.3" y1="556.9" x2="435.3" y2="576.9"/><path class="cls-2" d="M670.4,917.1c0,35.4,59,64,131.8,64S934,952.5,934,917.1"/><path class="cls-2" d="M670.4,362.7c0,35.4,59,64.1,131.8,64.1S931.8,399.2,934,364.7v-2a34.4,34.4,0,0,0-3.7-15.2h0"/><polyline class="cls-2" points="934 362.7 934 365 934 568.4"/><line class="cls-2" x1="934" y1="917.1" x2="934" y2="721.2"/><line class="cls-2" x1="670.4" y1="917.1" x2="670.4" y2="362.7"/><path class="cls-2" d="M855.1,241.2l.9.6c34.5,19.8,61.9,57.8,74.3,105.7h0c1.4,5.6,2.7,11.3,3.7,17.2v.3"/><path class="cls-2" d="M821.2,228.6l-3.8-.7"/><path class="cls-2" d="M777.7,229.3c-50.1,11.5-92.5,66.1-107.3,131.3"/><path class="cls-2" d="M777.7,128.9h39.7a0,0,0,0,1,0,0V229.8a19.9,19.9,0,0,1-19.9,19.9h0a19.9,19.9,0,0,1-19.9-19.9V128.9A0,0,0,0,1,777.7,128.9Z"/><line class="cls-3" x1="797.5" y1="77.1" x2="797.5" y2="172.4"/><line class="cls-3" x1="880.5" y1="123.2" x2="714.6" y2="123.2"/><line class="cls-3" x1="867" y1="88.7" x2="728" y2="157.6"/><line class="cls-3" x1="738.1" y1="93.7" x2="867" y2="157.6"/><path class="cls-2" d="M872.2,207c0,19.3-7.8,34.8-17.4,34.8a8.7,8.7,0,0,1-3.2-.6,15,15,0,0,1-6.8-5.7c-4.5-6.3-7.4-16.7-7.4-28.5,0-19.2,7.8-34.8,17.4-34.8S872.2,187.8,872.2,207Z"/><path class="cls-2" d="M834.8,172.2c-9.6,0-17.4,15.6-17.4,34.8s7.8,34.8,17.4,34.8a8.7,8.7,0,0,0,3.2-.6"/><polyline class="cls-2" points="830.4 172.2 834.8 172.2 854.8 172.2 860.4 172.2"/><path class="cls-2" d="M844.8,235.5a15,15,0,0,0,6.8,5.7H838"/><line class="cls-2" x1="857.4" y1="241.2" x2="851.6" y2="241.2"/><line class="cls-2" x1="838" y1="241.2" x2="834.4" y2="241.2"/><path class="cls-2" d="M853.2,710.1l-1,.2"/><path class="cls-2" d="M802.2,580.2c41,0,77.6-9.1,101.8-23.3"/><polyline class="cls-2" points="852.2 603.2 852.2 606.7 852.2 710.3 852.2 735.1 853.2 710.1"/><path class="cls-2" d="M852.2,602.7l-50-22.5V715.1l50,20c30.9,0,59.3-5.2,81.8-13.9a137.4,137.4,0,0,0,20-9.5"/><path class="cls-2" d="M951,575.9c-6,3.5-9.7,7.7-17,10.5a189,189,0,0,1-30,8.7c-15.9,3.3-33.4,8.1-51.8,8.1"/><path class="cls-2" d="M954,711.7v0Z"/><line class="cls-2" x1="907" y1="556.9" x2="954" y2="576.9"/><path class="cls-4" d="M356.7,706.2c21.9-1.9,41.9-6.4,58.7-12.9"/><path class="cls-4" d="M356.7,676.2c21.9-1.9,41.9-6.4,58.7-12.9"/><path class="cls-4" d="M356.7,646.2c21.9-1.9,41.9-6.4,58.7-12.9"/><path class="cls-4" d="M356.7,691.2c21.9-1.9,41.9-6.4,58.7-12.9"/><path class="cls-4" d="M356.7,661.2c21.9-1.9,41.9-6.4,58.7-12.9"/><path class="cls-4" d="M356.7,631.2c21.9-1.9,41.9-6.4,58.7-12.9"/><path class="cls-2" d="M876.7,706.2c21.9-1.9,41.9-6.4,58.7-12.9"/><path class="cls-2" d="M876.7,676.2c21.9-1.9,41.9-6.4,58.7-12.9"/><path class="cls-2" d="M876.7,646.2c21.9-1.9,41.9-6.4,58.7-12.9"/><path class="cls-2" d="M876.7,691.2c21.9-1.9,41.9-6.4,58.7-12.9"/><path class="cls-2" d="M876.7,661.2c21.9-1.9,41.9-6.4,58.7-12.9"/><path class="cls-2" d="M876.7,631.2c21.9-1.9,41.9-6.4,58.7-12.9"/><path class="cls-1" d="M341.9,504.2a360.1,360.1,0,0,1,27.5-33.1q21.8,21.6,43.7,43a241,241,0,0,0-21.5,25.8Z"/><path class="cls-1" d="M449.8,413.4,475.9,469a272.7,272.7,0,0,0-24.3,13.4c-11-17.3-21.9-34.6-32.9-51.8A349.7,349.7,0,0,1,449.8,413.4Z"/><path class="cls-1" d="M802.9,552.6l-49-13-37.5-9.9-11.6-3.1,16.9-14.8c-59.4-56.5-143.2-76.3-222.2-52.2-6.5-19.4-12.9-38.8-19.4-58.2,102.1-31.6,212.2-4.9,287.9,69.9L790.1,452l1.1,8.6,5.3,41.7Z"/><path class="cls-1" d="M823.4,809.1a376.9,376.9,0,0,1-27.5,33.1l-43.7-43a253.4,253.4,0,0,0,21.5-25.8Z"/><path class="cls-1" d="M715.4,899.9c-8.7-18.5-17.3-37.1-26-55.6a272.7,272.7,0,0,0,24.3-13.4l32.8,51.8A336.2,336.2,0,0,1,715.4,899.9Z"/><path class="cls-1" d="M362.4,760.7l49,13,37.4,9.9,11.6,3.1-16.9,14.8C503,858,586.7,877.8,665.8,853.7c6.4,19.4,12.9,38.8,19.3,58.2C583,943.5,473,916.8,397.2,842l-22,19.3-1.1-8.6L368.8,811Z"/></svg>