<svg id="servizi_custom" data-name="servizi custom" xmlns="http://www.w3.org/2000/svg" viewBox="0 0 1080 1080"><defs><style>.cls-1,.cls-4{fill:#fdf3f8;}.cls-2,.cls-3,.cls-5{fill:none;}.cls-2,.cls-3,.cls-4,.cls-5{stroke:#fdf3f8;}.cls-2,.cls-3,.cls-4{stroke-linecap:round;}.cls-2,.cls-3{stroke-linejoin:round;}.cls-2,.cls-5{stroke-width:10px;}.cls-3{stroke-width:5px;stroke-dasharray:12 20;}.cls-4,.cls-5{stroke-miterlimit:10;}.cls-4{stroke-width:14px;}</style></defs><title>servizi_custom</title><path class="cls-1" d="M1026.3,15A38.7,38.7,0,0,1,1065,53.7v972.6a38.7,38.7,0,0,1-38.7,38.7H53.7A38.7,38.7,0,0,1,15,1026.3V53.7A38.7,38.7,0,0,1,53.7,15h972.6m0-15H53.7A53.6,53.6,0,0,0,0,53.7v972.6A53.6,53.6,0,0,0,53.7,1080h972.6a53.6,53.6,0,0,0,53.7-53.7V53.7A53.6,53.6,0,0,0,1026.3,0Z"/><polygon class="cls-2" points="843.4 210.3 443.1 424.2 213.9 293.9 614.3 80.1 843.4 210.3"/><path class="cls-2" d="M547,368.7l-51.6-38.8c5.9-3.8,27.8-16.9,57.5-13.2a86.1,86.1,0,0,1,48.3,23"/><line class="cls-3" x1="259.7" y1="320" x2="655.5" y2="103.5"/><line class="cls-3" x1="550.5" y1="114.2" x2="785.2" y2="241.4"/><path class="cls-1" d="M640.2,229.5v-2.1l2.7-2.7c6.6-6.3,9.6-9.7,9.7-13.6s-1.3-5.1-5.2-5.1a8.9,8.9,0,0,0-5.5,2.2l-1.1-2.5a11.3,11.3,0,0,1,7.3-2.6c5.6,0,8,3.8,8,7.5s-3.5,8.7-9,14l-2,1.9h11.6v2.9Z"/><path class="cls-1" d="M661.8,215.4a41.8,41.8,0,0,0-.2-5.2h3.1l.2,3.1h.1a6.7,6.7,0,0,1,6.1-3.6,5.6,5.6,0,0,1,5.4,3.9h.1a7.8,7.8,0,0,1,2.2-2.5,6.3,6.3,0,0,1,4.3-1.4c2.5,0,6.3,1.7,6.3,8.4v11.4H686V218.6c0-3.8-1.4-6-4.2-6a4.6,4.6,0,0,0-4.2,3.2,8.4,8.4,0,0,0-.3,1.8v11.9h-3.4V217.9c0-3.1-1.4-5.3-4-5.3a5,5,0,0,0-4.4,3.5,4.7,4.7,0,0,0-.3,1.7v11.7h-3.4Z"/><path class="cls-1" d="M460.2,245.6a11.4,11.4,0,0,0,5.8,1.7c4.5,0,5.9-2.9,5.9-5.1s-3.3-5.2-6.7-5.2h-2v-2.6h2c2.5,0,5.8-1.3,5.8-4.4s-1.4-3.9-4.6-3.9a9.4,9.4,0,0,0-5.2,1.7l-.9-2.6a12.2,12.2,0,0,1,6.8-2c5.1,0,7.4,3.1,7.4,6.2s-1.6,5-4.8,6.2h0c3.2.7,5.8,3.1,5.8,6.7s-3.2,7.8-9.5,7.8a13.6,13.6,0,0,1-6.7-1.7Z"/><path class="cls-1" d="M478.8,254.6a74.7,74.7,0,0,0,2.4-9.6l3.9-.4a50.2,50.2,0,0,1-3.8,9.8Z"/><path class="cls-1" d="M503.7,226.6h-9.9l-1,6.7h2.1a10.6,10.6,0,0,1,5.6,1.4,7.2,7.2,0,0,1,3.7,6.6c0,5.1-4,8.9-9.6,8.9a12.5,12.5,0,0,1-6.5-1.6l.9-2.7a10.6,10.6,0,0,0,5.5,1.5c3.3,0,6.2-2.2,6.2-5.7s-2.3-5.7-7.5-5.7a17.9,17.9,0,0,0-3.6.3l1.7-12.5h12.4Z"/><path class="cls-1" d="M509.8,235.6c0-2,0-3.7-.1-5.3h3.1v3.1h.1a6.8,6.8,0,0,1,6.1-3.5,5.6,5.6,0,0,1,5.5,3.9h.1a8,8,0,0,1,2.1-2.6,7.3,7.3,0,0,1,4.3-1.3c2.6,0,6.4,1.7,6.4,8.4v11.4H534v-11c0-3.7-1.3-5.9-4.2-5.9a4.4,4.4,0,0,0-4.1,3.2,4.3,4.3,0,0,0-.3,1.7v12H522V238.1c0-3.1-1.4-5.3-4.1-5.3a4.6,4.6,0,0,0-4.3,3.5,4.7,4.7,0,0,0-.3,1.7v11.7h-3.5Z"/><path class="cls-1" d="M292.8,143.9c0-2-.1-3.6-.2-5.2h3.1v3.1h.2a6.5,6.5,0,0,1,6-3.6,5.6,5.6,0,0,1,5.5,3.9h.1a7.5,7.5,0,0,1,2.1-2.5,6.7,6.7,0,0,1,4.3-1.4c2.6,0,6.4,1.7,6.4,8.4V158h-3.5V147.1c0-3.7-1.3-6-4.2-6a4.5,4.5,0,0,0-4.1,3.2,4.8,4.8,0,0,0-.3,1.8V158h-3.4V146.4c0-3-1.4-5.3-4.1-5.3a4.7,4.7,0,0,0-4.3,3.5,5.7,5.7,0,0,0-.3,1.8V158h-3.4Z"/><path class="cls-1" d="M330,133.2a2,2,0,0,1-2.2,2.2,2.2,2.2,0,0,1,.1-4.4A2.1,2.1,0,0,1,330,133.2ZM326.1,158V138.7h3.5V158Z"/><path class="cls-1" d="M335.5,143.9c0-2-.1-3.6-.2-5.2h3.1l.2,3.2h.1a7.1,7.1,0,0,1,6.4-3.7c2.7,0,6.8,1.6,6.8,8.3V158h-3.5V146.9c0-3.1-1.1-5.7-4.5-5.7a4.9,4.9,0,0,0-4.7,3.6,7,7,0,0,0-.2,1.6V158h-3.5Z"/><path class="cls-1" d="M365.7,154.4a8.6,8.6,0,0,0,4.6,1.4c2.6,0,3.8-1.2,3.8-2.8s-1-2.6-3.6-3.6-5.1-3.2-5.1-5.5,2.5-5.7,6.6-5.7a10.2,10.2,0,0,1,4.8,1.2l-.9,2.6a7.6,7.6,0,0,0-4-1.1c-2,0-3.2,1.2-3.2,2.6s1.2,2.3,3.7,3.3,5.1,3,5.1,5.8-2.7,5.8-7.3,5.8a10.8,10.8,0,0,1-5.4-1.3Z"/><path class="cls-1" d="M385.9,133.2a2.1,2.1,0,0,1-2.2,2.2,2.2,2.2,0,0,1-2.2-2.2,2.2,2.2,0,0,1,2.2-2.2A2.1,2.1,0,0,1,385.9,133.2ZM382,158V138.7h3.5V158Z"/><path class="cls-1" d="M389.1,156l8.8-11.4,2.5-3H389.9v-2.8h14.8v2.2L396,152.1a37.6,37.6,0,0,1-2.5,3.1h11.4V158H389.1Z"/><path class="cls-1" d="M410.1,149c.1,4.8,3.2,6.7,6.7,6.7a11.8,11.8,0,0,0,5.3-1l.6,2.5a14.6,14.6,0,0,1-6.4,1.2c-6,0-9.5-3.9-9.5-9.7s3.4-10.5,9.1-10.5,8,5.6,8,9.2a6.3,6.3,0,0,1-.2,1.6Zm10.4-2.5c0-2.3-1-5.7-4.9-5.7s-5.1,3.2-5.4,5.7Z"/><path class="cls-1" d="M624.9,504.4V487.3L612.1,464H618l5.7,11.1c1.6,3.1,2.8,5.6,4,8.4h.2c1.1-2.7,2.5-5.3,4-8.4l5.9-11.1h5.9l-13.6,23.2v17.2Z"/><path class="cls-1" d="M669.9,489.7c0,10.7-7.5,15.4-14.5,15.4s-13.9-5.8-13.9-15,6.3-15.4,14.4-15.4S669.9,480.8,669.9,489.7Zm-23.1.3c0,6.3,3.7,11.1,8.8,11.1s8.9-4.7,8.9-11.3c0-4.9-2.5-11.1-8.7-11.1S646.8,484.4,646.8,490Z"/><path class="cls-1" d="M700.8,496.5c0,3,.1,5.6.3,7.9h-4.7l-.3-4.7H696a11.1,11.1,0,0,1-9.6,5.4c-4.6,0-10.1-2.5-10.1-12.7v-17h5.3v16.1c0,5.5,1.7,9.2,6.5,9.2a7.8,7.8,0,0,0,7-4.8,7.7,7.7,0,0,0,.4-2.7V475.4h5.3Z"/><path class="cls-1" d="M709.6,484.4c0-3.4-.1-6.3-.3-9H714v5.7h.3c1.3-3.9,4.5-6.4,8-6.4l1.5.2v5l-1.8-.2c-3.7,0-6.3,2.8-7.1,6.8a16.6,16.6,0,0,0-.2,2.4v15.5h-5.2Z"/><path class="cls-1" d="M742.1,464.5a57.8,57.8,0,0,1,10-.8c5.6,0,9.2,1,11.7,3.3a9.8,9.8,0,0,1,3.2,7.7c0,5.3-3.4,8.8-7.6,10.3v.2c3.1,1,5,3.9,5.9,8.1,1.3,5.7,2.3,9.6,3.1,11.1H763c-.6-1.1-1.5-4.6-2.7-9.6s-3.3-7.7-8.1-7.9h-4.9v17.5h-5.2Zm5.2,18.4h5.4c5.5,0,9.1-3,9.1-7.6s-3.8-7.5-9.3-7.6a19.2,19.2,0,0,0-5.2.5Z"/><path class="cls-1" d="M800.7,489.7c0,10.7-7.4,15.4-14.4,15.4s-14-5.8-14-15,6.4-15.4,14.4-15.4S800.7,480.8,800.7,489.7Zm-23,.3c0,6.3,3.6,11.1,8.8,11.1s8.8-4.7,8.8-11.3c0-4.9-2.4-11.1-8.7-11.1S777.7,484.4,777.7,490Z"/><path class="cls-1" d="M833.7,489.7c0,10.7-7.5,15.4-14.5,15.4s-13.9-5.8-13.9-15,6.3-15.4,14.4-15.4S833.7,480.8,833.7,489.7Zm-23.1.3c0,6.3,3.7,11.1,8.8,11.1s8.9-4.7,8.9-11.3c0-4.9-2.5-11.1-8.7-11.1S810.6,484.4,810.6,490Z"/><path class="cls-1" d="M840.3,483.2c0-3,0-5.4-.2-7.8h4.6l.2,4.7h.2a9.9,9.9,0,0,1,9.1-5.4,8.5,8.5,0,0,1,8.2,5.8h.2a11.7,11.7,0,0,1,3.2-3.7,9.5,9.5,0,0,1,6.4-2.1c3.9,0,9.6,2.5,9.6,12.6v17.1h-5.2V488c0-5.6-2-9-6.3-9s-5.3,2.3-6.2,4.8a7.6,7.6,0,0,0-.5,2.7v17.9h-5.1V487c0-4.6-2-8-6.1-8s-5.7,2.7-6.5,5.3a7.5,7.5,0,0,0-.4,2.6v17.5h-5.2Z"/><path class="cls-1" d="M650.4,585.8c0,13.9-8.4,21.3-18.8,21.3s-18.1-8.3-18.1-20.5,7.9-21.3,18.7-21.3S650.4,573.8,650.4,585.8Zm-31.4.6c0,8.7,4.7,16.4,12.9,16.4s13-7.6,13-16.8-4.2-16.4-12.9-16.4S619,577.6,619,586.4Z"/><path class="cls-1" d="M681.5,598.5c0,3,.1,5.6.2,7.9h-4.6l-.3-4.7h-.2a10.8,10.8,0,0,1-9.6,5.4c-4.5,0-10-2.5-10-12.7v-17h5.3v16.1c0,5.5,1.7,9.2,6.5,9.2a7.5,7.5,0,0,0,7.4-7.5V577.4h5.3Z"/><path class="cls-1" d="M690.3,586.4c0-3.4-.1-6.3-.3-9h4.6l.2,5.7h.3c1.3-3.9,4.5-6.4,8-6.4l1.5.2v5l-1.8-.2c-3.7,0-6.4,2.8-7.1,6.8a16.6,16.6,0,0,0-.2,2.4v15.5h-5.2Z"/><path class="cls-1" d="M722.1,600.1a18.5,18.5,0,0,0,9.3,2.6c5.4,0,8.5-2.8,8.5-6.9s-2.2-5.9-7.6-8-10.7-5.8-10.7-11.5,5.2-11,13.1-11a18.5,18.5,0,0,1,8.9,2l-1.4,4.3a15.6,15.6,0,0,0-7.7-2c-5.5,0-7.6,3.3-7.6,6.1s2.4,5.6,8,7.8,10.3,5.9,10.3,11.9S740.6,607,731.1,607c-3.9,0-8.2-1.1-10.4-2.6Z"/><path class="cls-1" d="M773.2,605.3a17.8,17.8,0,0,1-8.3,1.7c-8.8,0-14.5-5.9-14.5-14.8s6.2-15.4,15.6-15.4a18.3,18.3,0,0,1,7.4,1.5l-1.2,4.1A11.8,11.8,0,0,0,766,581c-6.6,0-10.2,4.9-10.2,11s4.3,10.8,10.1,10.8a15.6,15.6,0,0,0,6.4-1.4Z"/><path class="cls-1" d="M785.3,569.2a3.3,3.3,0,1,1-3.2-3.3A3.2,3.2,0,0,1,785.3,569.2Zm-5.9,37.2v-29h5.3v29Z"/><path class="cls-1" d="M796.4,592.9c.1,7.1,4.7,10,10,10a18.3,18.3,0,0,0,8-1.5l.9,3.8a22.6,22.6,0,0,1-9.7,1.8c-8.9,0-14.2-5.9-14.2-14.6s5.1-15.7,13.6-15.7,12,8.4,12,13.7a14.7,14.7,0,0,1-.2,2.5Zm15.5-3.8c0-3.4-1.4-8.6-7.3-8.6s-7.7,4.9-8.1,8.6Z"/><path class="cls-1" d="M823.5,585.2c0-3,0-5.4-.2-7.8H828l.3,4.8h.1a10.6,10.6,0,0,1,9.6-5.5c4,0,10.2,2.4,10.2,12.4v17.3H843V589.7c0-4.7-1.8-8.6-6.8-8.6a7.5,7.5,0,0,0-7,5.4,6.6,6.6,0,0,0-.4,2.5v17.4h-5.3Z"/><path class="cls-1" d="M877.5,605.3a18.1,18.1,0,0,1-8.3,1.7c-8.8,0-14.5-5.9-14.5-14.8s6.1-15.4,15.6-15.4a17.8,17.8,0,0,1,7.3,1.5l-1.2,4.1a11.1,11.1,0,0,0-6.1-1.4c-6.6,0-10.2,4.9-10.2,11s4.3,10.8,10,10.8a16.1,16.1,0,0,0,6.5-1.4Z"/><path class="cls-1" d="M886.3,592.9c.1,7.1,4.7,10,9.9,10a18.5,18.5,0,0,0,8.1-1.5l.9,3.8a23,23,0,0,1-9.7,1.8c-8.9,0-14.3-5.9-14.3-14.6s5.2-15.7,13.7-15.7,12,8.4,12,13.7c0,1.1-.2,1.9-.2,2.5Zm15.5-3.8c0-3.4-1.4-8.6-7.4-8.6s-7.6,4.9-8.1,8.6Z"/><line class="cls-4" x1="53.1" y1="539.4" x2="1023.6" y2="539.4"/><rect class="cls-5" x="91.2" y="658.8" width="222.7" height="319.92"/><line class="cls-5" x1="90.2" y1="657.8" x2="161.5" y2="619.1"/><line class="cls-5" x1="385.5" y1="619.1" x2="314.2" y2="657.8"/><line class="cls-5" x1="315.2" y1="979.8" x2="386.5" y2="941.1"/><polyline class="cls-5" points="158.2 620 384 620 384 945.9"/><rect class="cls-5" x="225.6" y="758.3" width="64.4" height="64.42"/><rect class="cls-5" x="117.8" y="701.9" width="84.8" height="276.81"/><ellipse class="cls-5" cx="234.6" cy="639.4" rx="23.2" ry="8.7"/><path class="cls-1" d="M271.3,993a52.8,52.8,0,0,1,6.7-.5c3.4,0,5.9.8,7.5,2.3a7,7,0,0,1,2.4,5.6,7.9,7.9,0,0,1-2.1,5.8c-1.8,1.9-4.8,2.9-8.2,2.9a11.9,11.9,0,0,1-2.8-.2v10.8h-3.5Zm3.5,13a11.2,11.2,0,0,0,2.9.3c4.2,0,6.7-2,6.7-5.7s-2.5-5.3-6.3-5.3a12.1,12.1,0,0,0-3.3.3Z"/><path class="cls-1" d="M293.9,1000.3l4.2,11.5a35.6,35.6,0,0,1,1.3,3.9h.1c.3-1.1.7-2.6,1.2-4l3.8-11.4h3.8l-5.3,13.8c-2.5,6.7-4.3,10.1-6.7,12.1a8.2,8.2,0,0,1-4.3,2.3l-.9-2.9a9.2,9.2,0,0,0,3.1-1.8,9.8,9.8,0,0,0,3-3.9,4.1,4.1,0,0,0,.3-.8,2.3,2.3,0,0,0-.3-.9l-7.1-17.9Z"/><path class="cls-1" d="M311.5,1005.6c0-2-.1-3.7-.2-5.3h3.1v3.1h.2a6.5,6.5,0,0,1,6-3.5,5.6,5.6,0,0,1,5.5,3.9h.1a8.2,8.2,0,0,1,2.2-2.6,6.8,6.8,0,0,1,4.2-1.3c2.6,0,6.4,1.7,6.4,8.4v11.4h-3.4v-11c0-3.7-1.4-5.9-4.2-5.9a4.5,4.5,0,0,0-4.2,3.2,4.3,4.3,0,0,0-.3,1.7v12h-3.4v-11.6c0-3.1-1.4-5.3-4.1-5.3a4.6,4.6,0,0,0-4.3,3.5,4.7,4.7,0,0,0-.3,1.7v11.7h-3.4Z"/><path class="cls-1" d="M352.9,1015.4a12.3,12.3,0,0,0,6.3,1.8c3.5,0,5.6-1.9,5.6-4.6s-1.4-4-5.1-5.4-7.1-3.8-7.1-7.6,3.5-7.3,8.7-7.3a12.1,12.1,0,0,1,6,1.3l-1,2.8a11.3,11.3,0,0,0-5.1-1.2c-3.7,0-5.1,2.2-5.1,4s1.7,3.8,5.4,5.2,6.9,4,6.9,7.9-3.1,7.8-9.5,7.8a14.1,14.1,0,0,1-6.8-1.7Z"/><path class="cls-1" d="M377.1,994.8v5.5h5.1v2.7h-5.1v10.4c0,2.4.7,3.8,2.7,3.8l2-.2.2,2.6a8.3,8.3,0,0,1-3.1.5,4.6,4.6,0,0,1-3.8-1.5c-1-1-1.4-2.8-1.4-5V1003h-3v-2.7h3v-4.6Z"/><path class="cls-1" d="M396.9,1019.7l-.3-2.5h-.1a7.1,7.1,0,0,1-6,2.9c-3.9,0-5.9-2.7-5.9-5.5,0-4.7,4.2-7.3,11.7-7.2v-.4c0-1.6-.5-4.5-4.4-4.5a9.8,9.8,0,0,0-5.1,1.4l-.8-2.3a12.4,12.4,0,0,1,6.4-1.7c5.9,0,7.3,4,7.3,7.9v7.2a22.3,22.3,0,0,0,.4,4.7Zm-.6-9.9c-3.8-.1-8.2.6-8.2,4.4a3.2,3.2,0,0,0,3.4,3.3,4.7,4.7,0,0,0,4.6-3.2,2.3,2.3,0,0,0,.2-1.1Z"/><path class="cls-1" d="M409.5,994.8v5.5h5v2.7h-5v10.4c0,2.4.7,3.8,2.6,3.8l2.1-.2v2.6a7.6,7.6,0,0,1-3.1.5,4.9,4.9,0,0,1-3.8-1.5c-1-1-1.3-2.8-1.3-5V1003h-3v-2.7h3v-4.6Z"/><path class="cls-1" d="M422.4,994.9a2,2,0,0,1-2.2,2.1,2,2,0,0,1-2.1-2.1,2.1,2.1,0,0,1,2.2-2.2A2,2,0,0,1,422.4,994.9Zm-3.9,24.8v-19.4H422v19.4Z"/><path class="cls-1" d="M445.4,1009.8c0,7.2-5,10.3-9.7,10.3s-9.2-3.8-9.2-9.9,4.2-10.3,9.6-10.3S445.4,1003.9,445.4,1009.8Zm-15.4.2c0,4.3,2.5,7.5,5.9,7.5s5.9-3.2,5.9-7.5-1.7-7.5-5.8-7.5S430,1006.4,430,1010Z"/><path class="cls-1" d="M449.8,1005.6c0-2,0-3.7-.1-5.3h3.1l.2,3.2h.1a7.1,7.1,0,0,1,6.4-3.6c2.6,0,6.8,1.6,6.8,8.2v11.6h-3.5v-11.2c0-3.1-1.2-5.7-4.5-5.7a4.9,4.9,0,0,0-4.7,3.6,3.8,3.8,0,0,0-.3,1.6v11.7h-3.5Z"/><path class="cls-2" d="M526.2,986.3c0,11.3,20.3,20.5,45.3,20.5s45.3-9.2,45.3-20.5"/><path class="cls-2" d="M616.8,785.3c0,11.4-20.3,20.6-45.3,20.6s-45.3-9.2-45.3-20.6"/><line class="cls-2" x1="526.2" y1="986.3" x2="526.2" y2="785.3"/><path class="cls-2" d="M581.3,737.7c30,4.4,33.9,42.5,35.8,44.4s0,204.2,0,204.2"/><path class="cls-2" d="M526.2,781.4c3.7-19.4,12.8-39.4,39-43.4"/><path class="cls-1" d="M641.7,991a39,39,0,0,1,6.7-.5c3.4,0,5.9.8,7.5,2.2a7.4,7.4,0,0,1,2.4,5.7,7.7,7.7,0,0,1-2.1,5.7c-1.8,2-4.8,3-8.2,3a11.9,11.9,0,0,1-2.8-.2v10.8h-3.5Zm3.5,13a10.9,10.9,0,0,0,2.8.3c4.2,0,6.8-2,6.8-5.8s-2.5-5.2-6.4-5.2l-3.2.2Z"/><path class="cls-1" d="M664.3,998.3l4.2,11.4c.5,1.3.9,2.8,1.3,4h0c.4-1.2.8-2.6,1.3-4l3.8-11.4h3.7l-5.2,13.8c-2.6,6.6-4.3,10-6.7,12.1a10,10,0,0,1-4.3,2.3l-.9-3a7.4,7.4,0,0,0,3.1-1.7,9.8,9.8,0,0,0,3-3.9,4.5,4.5,0,0,0,.2-.8,2.4,2.4,0,0,0-.2-1l-7.2-17.8Z"/><path class="cls-1" d="M681.8,1003.5c0-2,0-3.6-.1-5.2h3.1v3.1h.1a6.8,6.8,0,0,1,6.1-3.5,5.7,5.7,0,0,1,5.5,3.8h.1a8.7,8.7,0,0,1,2.1-2.5,6.7,6.7,0,0,1,4.3-1.3c2.6,0,6.4,1.6,6.4,8.4v11.4H706v-11c0-3.7-1.3-6-4.2-6a4.5,4.5,0,0,0-4.1,3.2,5.2,5.2,0,0,0-.3,1.8v12H694v-11.6c0-3.1-1.4-5.4-4.1-5.4a5.5,5.5,0,0,0-4.6,5.3v11.7h-3.5Z"/><path class="cls-1" d="M727.3,993.7h-8.2v-3H739v3h-8.2v24h-3.5Z"/><path class="cls-1" d="M750.1,1017.7l-.3-2.5h-.1a7.4,7.4,0,0,1-5.9,2.9c-4,0-6-2.8-6-5.6,0-4.6,4.2-7.2,11.7-7.2v-.4c0-1.6-.5-4.4-4.4-4.4a9.8,9.8,0,0,0-5.1,1.4l-.8-2.3a11.7,11.7,0,0,1,6.4-1.7c5.9,0,7.4,4,7.4,7.9v7.2a23.2,23.2,0,0,0,.3,4.7Zm-.5-9.9c-3.9-.1-8.2.6-8.2,4.3a3.1,3.1,0,0,0,3.3,3.4,4.9,4.9,0,0,0,4.7-3.2,5,5,0,0,0,.2-1.2Z"/><path class="cls-1" d="M758.6,1003.5c0-2,0-3.6-.1-5.2h3.1l.2,3.2h.1a7.1,7.1,0,0,1,6.4-3.6c2.7,0,6.8,1.6,6.8,8.2v11.6h-3.5v-11.2c0-3.1-1.2-5.7-4.5-5.7a4.9,4.9,0,0,0-4.7,3.6,3.9,3.9,0,0,0-.2,1.6v11.7h-3.6Z"/><path class="cls-1" d="M784.3,1007.2h.1l1.7-2.2,5.7-6.7H796l-7.4,8,8.5,11.4h-4.3l-6.7-9.3-1.8,2v7.3h-3.5V989.3h3.5Z"/><path class="cls-5" d="M565.2,687.5h15.7a0,0,0,0,1,0,0v55.9a7.8,7.8,0,0,1-7.8,7.8h0a7.8,7.8,0,0,1-7.8-7.8V687.5a0,0,0,0,1,0,0Z"/><ellipse class="cls-2" cx="862.1" cy="698.4" rx="36.6" ry="21.2"/><line class="cls-2" x1="862.1" y1="725.3" x2="862.1" y2="759.4"/><line class="cls-2" x1="898.7" y1="759.4" x2="825.5" y2="759.4"/><line class="cls-2" x1="892.7" y1="744.2" x2="831.4" y2="774.6"/><line class="cls-2" x1="835.8" y1="746.4" x2="888.3" y2="772.5"/><line class="cls-2" x1="861.9" y1="722.8" x2="862.2" y2="780.5"/><path class="cls-1" d="M847.8,938.4a11.6,11.6,0,0,0,6.2,1.8c3.6,0,5.7-1.9,5.7-4.6s-1.5-4-5.1-5.4-7.1-3.8-7.1-7.6,3.4-7.3,8.7-7.3a12,12,0,0,1,5.9,1.3l-.9,2.9a10.6,10.6,0,0,0-5.1-1.3c-3.7,0-5.1,2.2-5.1,4s1.6,3.8,5.3,5.2,6.9,4,6.9,7.9-3.1,7.8-9.4,7.8a14.6,14.6,0,0,1-6.9-1.7Z"/><path class="cls-1" d="M867.9,929.6c0-2.4-.1-4.4-.2-6.3h3.2v3.3h.1a7.6,7.6,0,0,1,6.9-3.7c4.7,0,8.2,3.9,8.2,9.8s-4.3,10.4-8.8,10.4a6.9,6.9,0,0,1-6-3h-.1v10.5h-3.4Zm3.4,5.2a5.9,5.9,0,0,0,.2,1.4,5.4,5.4,0,0,0,5.3,4.2c3.7,0,5.9-3.1,5.9-7.5s-2.1-7.2-5.8-7.2a5.6,5.6,0,0,0-5.3,4.3,8,8,0,0,0-.3,1.5Z"/><path class="cls-1" d="M890.6,929.4c0-2.3,0-4.3-.1-6.1h3l.2,3.8h.1a5.8,5.8,0,0,1,5.4-4.2h1v3.3H899c-2.5,0-4.3,1.9-4.7,4.5a8.8,8.8,0,0,0-.2,1.7v10.3h-3.5Z"/><path class="cls-1" d="M907.8,917.9a2.2,2.2,0,0,1-2.3,2.2,2.2,2.2,0,1,1,2.3-2.2Zm-3.9,24.8V923.3h3.5v19.4Z"/><path class="cls-1" d="M913.2,928.6c0-2,0-3.7-.1-5.3h3.1l.2,3.2h.1a7.1,7.1,0,0,1,6.4-3.6c2.6,0,6.8,1.6,6.8,8.2v11.6h-3.5V931.5c0-3.1-1.2-5.7-4.5-5.7a4.9,4.9,0,0,0-4.7,3.6,3.8,3.8,0,0,0-.3,1.6v11.7h-3.5Z"/><path class="cls-1" d="M938.9,932.2h.1l1.7-2.2,5.7-6.7h4.2l-7.5,8,8.6,11.4h-4.3l-6.7-9.3-1.8,2v7.3h-3.5V914.3h3.5Z"/><path class="cls-1" d="M954.9,914.3h3.5v28.4h-3.5Z"/><path class="cls-1" d="M966.3,933.6c0,4.8,3.1,6.8,6.6,6.8a14.4,14.4,0,0,0,5.4-1l.6,2.5a17.3,17.3,0,0,1-6.5,1.2c-5.9,0-9.5-3.9-9.5-9.8s3.4-10.4,9.1-10.4,8,5.5,8,9.1c0,.7-.1,1.3-.1,1.6Zm10.3-2.5c0-2.2-.9-5.7-4.9-5.7s-5.1,3.3-5.4,5.7Z"/><path class="cls-1" d="M984.3,929.4c0-2.3,0-4.3-.1-6.1h3.1v3.8h.1a5.8,5.8,0,0,1,5.4-4.2h1v3.3h-1.2c-2.5,0-4.2,1.9-4.7,4.5a8.8,8.8,0,0,0-.2,1.7v10.3h-3.5Z"/><ellipse class="cls-2" cx="861.9" cy="698.2" rx="6.4" ry="3.2"/><path class="cls-1" d="M1000.7,904.1a2.8,2.8,0,0,1-2.8-2.2c-1.2-4.4-2.5-8.9-3.8-13.3a2.9,2.9,0,1,1,5.5-1.8c1.4,4.5,2.7,9.1,3.9,13.7a2.9,2.9,0,0,1-2.1,3.5Zm-284-9h-.8a2.9,2.9,0,0,1-2-3.7c1.3-4.5,2.8-9,4.3-13.5A3.1,3.1,0,0,1,722,876a3.1,3.1,0,0,1,1.8,3.8c-1.6,4.3-3,8.7-4.3,13.2A3,3,0,0,1,716.7,895.1Zm272.2-26.4a2.9,2.9,0,0,1-2.7-1.8c-1.8-4.3-3.7-8.6-5.7-12.7a2.9,2.9,0,1,1,5.3-2.5c2,4.2,4,8.5,5.8,12.9a2.9,2.9,0,0,1-1.6,3.8A2.3,2.3,0,0,1,988.9,868.7Zm-259.2-8.6a2.7,2.7,0,0,1-1.2-.3,3,3,0,0,1-1.4-3.9c2-4.3,4.1-8.6,6.3-12.7a2.9,2.9,0,0,1,5.2,2.7c-2.2,4.1-4.3,8.3-6.2,12.5A3,3,0,0,1,729.7,860.1ZM972,835.4a2.9,2.9,0,0,1-2.5-1.4c-2.5-4-5-7.8-7.7-11.5a2.9,2.9,0,1,1,4.8-3.4c2.7,3.8,5.3,7.8,7.8,11.8a2.8,2.8,0,0,1-.9,4A3,3,0,0,1,972,835.4Zm-224-7.9a3.3,3.3,0,0,1-1.6-.5,3,3,0,0,1-.8-4.1c2.7-3.9,5.5-7.8,8.4-11.5a3,3,0,0,1,4.1-.4,2.9,2.9,0,0,1,.5,4.1c-2.8,3.5-5.5,7.3-8.2,11.1A2.8,2.8,0,0,1,748,827.5Zm201.5-21.9a3.2,3.2,0,0,1-2.2-1c-3.1-3.4-6.4-6.7-9.7-9.7a2.9,2.9,0,0,1,3.9-4.3,120.3,120.3,0,0,1,10.1,10.1,2.9,2.9,0,0,1-.1,4.1A3.2,3.2,0,0,1,949.5,805.6ZM772,798.8a2.7,2.7,0,0,1-2.1-.9,2.9,2.9,0,0,1,0-4.1c3.5-3.3,7.1-6.5,10.7-9.5a2.9,2.9,0,0,1,4.1.5,3,3,0,0,1-.4,4.1c-3.5,2.8-7,5.9-10.3,9.1A2.7,2.7,0,0,1,772,798.8Z"/><path class="cls-1" d="M758.8,905.2h-.5a3,3,0,0,1-2.4-3.4l2.7-13.9a2.9,2.9,0,0,1,3.5-2.2,2.8,2.8,0,0,1,2.2,3.4c-.9,4.5-1.8,9.1-2.6,13.7A2.9,2.9,0,0,1,758.8,905.2Zm192.5-22.9a2.9,2.9,0,0,1-2.8-2.2c-1.1-4.6-2.3-9.1-3.5-13.5a2.9,2.9,0,0,1,2-3.6,3,3,0,0,1,3.6,2c1.3,4.5,2.5,9.1,3.6,13.7a2.8,2.8,0,0,1-2.2,3.5ZM767.1,868.8l-.8-.2a2.8,2.8,0,0,1-2-3.6q2-6.9,4.2-13.5a2.8,2.8,0,0,1,3.7-1.8,2.9,2.9,0,0,1,1.8,3.7c-1.4,4.3-2.8,8.7-4.1,13.2A3,3,0,0,1,767.1,868.8Zm173.5-22.3a3,3,0,0,1-2.8-1.9c-1.6-4.4-3.4-8.7-5.1-12.8a2.9,2.9,0,1,1,5.3-2.4c1.8,4.3,3.6,8.7,5.3,13.2a2.8,2.8,0,0,1-1.7,3.7A2,2,0,0,1,940.6,846.5Zm-161.1-13-1.1-.2a2.9,2.9,0,0,1-1.5-3.9c1.9-4.4,3.9-8.7,6-12.8a2.9,2.9,0,0,1,5.2,2.6c-2,4-4,8.2-5.9,12.6A2.8,2.8,0,0,1,779.5,833.5Zm145.4-20.9a2.7,2.7,0,0,1-2.5-1.5c-2.4-4.1-4.8-8-7.3-11.7a2.9,2.9,0,0,1,.7-4,3,3,0,0,1,4.1.7c2.6,3.8,5.1,7.9,7.6,12.1a2.9,2.9,0,0,1-1.1,4A2.8,2.8,0,0,1,924.9,812.6ZM797.4,800.7a3.4,3.4,0,0,1-1.7-.5,3,3,0,0,1-.7-4.1,129.3,129.3,0,0,1,8.7-11.3,2.9,2.9,0,1,1,4.4,3.7c-2.8,3.4-5.6,7-8.3,10.9A2.8,2.8,0,0,1,797.4,800.7Z"/><path class="cls-1" d="M833.8,901.7h-.1a3,3,0,0,1-2.8-3.1c.2-4.7.5-9.4.7-14a3,3,0,0,1,3.1-2.8,2.9,2.9,0,0,1,2.7,3.1l-.6,14A3,3,0,0,1,833.8,901.7Zm46.6-13.8a2.8,2.8,0,0,1-2.9-2.8c-.3-4.7-.6-9.4-.9-13.9a3.1,3.1,0,0,1,2.8-3.2,3,3,0,0,1,3.1,2.8c.3,4.6.5,9.2.8,14a3,3,0,0,1-2.8,3.1ZM836,864.3h-.2a2.9,2.9,0,0,1-2.7-3.1c.3-4.8.7-9.5,1.1-14a2.9,2.9,0,0,1,3.1-2.7,3.1,3.1,0,0,1,2.7,3.2c-.4,4.5-.8,9.2-1.1,13.9A2.9,2.9,0,0,1,836,864.3Zm41.8-13.7a2.9,2.9,0,0,1-2.9-2.7c-.4-4.8-.8-9.5-1.3-13.9a2.9,2.9,0,0,1,2.6-3.2,2.9,2.9,0,0,1,3.2,2.6c.5,4.5.9,9.2,1.3,14a2.9,2.9,0,0,1-2.6,3.2Zm-38.4-23.5H839a2.9,2.9,0,0,1-2.5-3.3c.5-4.8,1.1-9.5,1.7-14a2.9,2.9,0,0,1,3.3-2.5,3,3,0,0,1,2.5,3.3c-.6,4.4-1.2,9.1-1.7,13.9A3,3,0,0,1,839.4,827.1Zm34.4-13.7a3,3,0,0,1-2.9-2.6c-.7-4.9-1.4-9.5-2.1-13.7a3,3,0,0,1,2.4-3.4,2.9,2.9,0,0,1,3.4,2.4c.7,4.3,1.4,9,2.1,14a2.8,2.8,0,0,1-2.5,3.2Z"/></svg>