<svg width="1320" height="817" viewBox="0 0 1320 817" fill="none" xmlns="http://www.w3.org/2000/svg">
<path d="M1319.5 30C1319.5 13.4315 1306.07 0 1289.5 0H917.914C903.249 0 890.733 10.6024 888.322 25.068L872.779 118.329C870.115 134.308 880.619 149.515 896.506 152.682L1283.64 229.851C1302.19 233.55 1319.5 219.353 1319.5 200.43V30Z" fill="#9E6679"/>
<path d="M0 156C0 128.386 22.3858 106 50 106H1270C1297.61 106 1320 128.386 1320 156V767C1320 794.614 1297.61 817 1270 817H50C22.3858 817 0 794.614 0 767V156Z" fill="#600320"/>
</svg>
