<svg width="1320" height="817" viewBox="0 0 1320 817" fill="none" xmlns="http://www.w3.org/2000/svg">
<path d="M449.469 25.9556C451.492 11.087 464.189 0 479.195 0H834.586C849.251 0 861.767 10.6024 864.178 25.068L878.678 112.068C881.726 130.354 867.624 147 849.086 147H467.358C449.182 147 435.182 130.966 437.632 112.956L449.469 25.9556Z" fill="#9E6679"/>
<path d="M0 156C0 128.386 22.3858 106 50 106H1270C1297.61 106 1320 128.386 1320 156V767C1320 794.614 1297.61 817 1270 817H50C22.3858 817 0 794.614 0 767V156Z" fill="#600320"/>
</svg>
