<svg xmlns="http://www.w3.org/2000/svg" viewBox="0 0 1080 1080"><defs><style>.cls-1{fill:#fdf3f8;}</style></defs><title>home_soluzione</title><g id="Soluzione"><polygon class="cls-1" points="401.9 94.9 280.7 29 91.4 29 29.9 37.6 29.9 71 29.9 72.8 29.9 351.5 141.7 411.6 401.4 375.1 401.9 94.9"/><polygon class="cls-1" points="930.8 802.3 812.6 818.9 812.3 946.6 879.4 983 997.6 966.4 997.8 838.8 930.8 802.3"/><path class="cls-1" d="M689.7,847.2l-46.4-32-2.1,48-6.7.4c-54.5,3-105.7,5.8-152.3,7.1-56.7,1.5-106.6.6-147.9-5.1-59-8.2-95.1-25.6-112.7-55.4-.4-1.7-.9-3.4-1.2-5.2-15.7-72.9,21.9-119.3,45.7-140.5,40.1-35.7,87.9-59.8,139.5-76.8a210.4,210.4,0,0,1,7.9-46,135.8,135.8,0,0,1,10.9-27.1C342.1,536,277.5,568.4,227,613.3c-23.8,21.2-42,47.1-52.8,75-12.9,33.3-15.4,69-7.3,106.2a130.5,130.5,0,0,0,7.1,23.2l9,21.6a18,18,0,0,1-.8-2.1c9.4,23.8,25.4,43.3,47.9,58,25.4,16.6,59.2,27.7,103.5,33.9s96.7,7,155.8,5.5c45.9-1.3,95.8-4,148.9-7l-1,20.8,9,21.6,49.4-34.6L745,900.8l-8.9-21.5Z"/><path class="cls-1" d="M506.8,246V202.5l-12.4-20.3-21.1.5L471.5,225l9,21.6Z"/><path class="cls-1" d="M603.5,244.4V202.5l-.2-.4-13.1-21.5-20.7.2-9.9,1.8-.3,20-.2,22.4,18.7,19.6Z"/><path class="cls-1" d="M793.4,253.1c66.9,9.3,103.9,26.1,119.3,54.4,15.1,47.9-2.2,89.2-23.9,111.8-38.5,39.8-125,49.7-226.3,59.7a205.7,205.7,0,0,1,5.5,21.9,245,245,0,0,1,4,41.9c111.6-11.1,207.4-22,258.5-74.9,32.8-34,59-97.7,29.3-168.3l-8.6-20.7c-1.4-3.4-3-6.8-4.7-10.2-11-22.6-29.4-39.9-56.3-53.1-24.2-11.9-55.6-20.4-96-26s-87.9-8.1-143.6-8.9L627,185.1l-.2,17-.2,25.4,16.1,17C702.1,244.9,752.4,247.4,793.4,253.1Z"/><path class="cls-1" d="M596.3,598.2h-2a40.4,40.4,0,0,1-10.9-1.8l-1.4-.4a31.9,31.9,0,0,1-9.7,7.1,67.7,67.7,0,0,0,7,2c8,1.9,14.2,1.6,17-.7a3.8,3.8,0,0,0,1.1-1.1,5.8,5.8,0,0,0,.9-3.3,9.6,9.6,0,0,0-.3-2.2Z"/><path class="cls-1" d="M517.1,544.1q-4.4.6-6,3c-1.9,2.9-.5,8.2,3.7,14.6l1.9,2.7a77,77,0,0,0,6.1,7.1A32.6,32.6,0,0,1,525,560l.3-.9-.8-1C520,552.7,517.6,548,517.1,544.1Z"/><path class="cls-1" d="M527.8,554.3a30.4,30.4,0,0,1,3.4-4.6,22,22,0,0,1,3-3.1,52.2,52.2,0,0,0-12.1-2.5C522.6,546.4,524.2,549.8,527.8,554.3Z"/><path class="cls-1" d="M528,539.2l-2.4.2a64.5,64.5,0,0,1,8.8,2c-.1-.5-.3-1-.4-1.5A29.9,29.9,0,0,0,528,539.2Z"/><path class="cls-1" d="M539.1,536h0a70.4,70.4,0,0,1,8.7,3.1h0a34.6,34.6,0,0,1,10.1-1.3c-5.8-2.3-10.6-3.3-14-3.3S539.8,535,539.1,536Z"/><path class="cls-1" d="M592.4,575.8l-.8-.9c0,.3-.1.6-.1.9Z"/><path class="cls-1" d="M596.3,572.8l1.3,1.5h0a2.4,2.4,0,0,0,.4-1.5,10.5,10.5,0,0,0-1.7-5h0a42.4,42.4,0,0,0-7.8-9.8,33.5,33.5,0,0,1,2.9,9.8C593.2,569.3,594.8,571.1,596.3,572.8Z"/><path class="cls-1" d="M596.3,593.1a54.2,54.2,0,0,0-6.5-9.6,35.1,35.1,0,0,1-4.3,8.4C590.4,593.2,593.9,593.5,596.3,593.1Z"/><path class="cls-1" d="M440,602.4a47,47,0,0,0,3.8,10.9,6.1,6.1,0,0,1,.5,1.2c.8,1.6,1.7,3.2,2.6,4.7a42.7,42.7,0,0,0,16.1,15l6.2,3.4a34.7,34.7,0,0,0,5.9,2.7v31.9a43.2,43.2,0,0,0,2.1,12.4,35.5,35.5,0,0,0,2,4.6,28.8,28.8,0,0,0,3.1,4.9,26.7,26.7,0,0,0,3.4,3.8c1,.9,2.3,2,3.4,2.8l2.2,1.6a30.5,30.5,0,0,0,4.4,2.3l2.1.9h.2l.6.3,1,.4,1.7.6h.4l4.8,1.5,4.8,1.6,4.9,1.5,4.8,1.5,4.8,1.6,9.7,3.1,4.8,1.5,9.7,3.1h0l3,.9,4,.8a52.8,52.8,0,0,0,7.7.9,54.7,54.7,0,0,0,8.1,0,70.8,70.8,0,0,0,7.9-.9l11.1-1.8,6.4-1.4,3.8-1.1a48.2,48.2,0,0,0,7.2-2.7l3.3-1.5,4.3-2.4c1.7-1.1,4-2.6,5.6-3.9a21.7,21.7,0,0,0,2.9-2.4,46.3,46.3,0,0,0,6-6.5c.7-.9,1.5-2.3,2.2-3.3l1.4-2.6,1.7-3.9a34.9,34.9,0,0,0,1.1-3.8,22.2,22.2,0,0,0,.6-3.6,25.3,25.3,0,0,0,.3-4.9V634l4.9,1.2q2.8.9,5.7,2.1a37.4,37.4,0,0,1,8.6,8.7,34.5,34.5,0,0,1,2.9,5h0c0,.1,0,.1.1.1h0a49.4,49.4,0,0,1,2.8,8.2,72,72,0,0,1,2.2,18.2,77.3,77.3,0,0,1-4.8,26.9,49.4,49.4,0,0,1-5.6,11,35.5,35.5,0,0,1-7.5,8.3,33.9,33.9,0,0,1-8.2,4.8,39.7,39.7,0,0,1-9,2.3h-.4a61.2,61.2,0,0,1-16.8-.9l-7-1.7-4.3-1.4a6.6,6.6,0,0,0-3.1-.3h.1l-1.5.2h-.1a8,8,0,0,0-6.1,5,8.3,8.3,0,0,0,.1,6.2l.6,1.2a5.9,5.9,0,0,0,2.8,3l6.1,3.4h.1l.9.4a43.2,43.2,0,0,0,5,1.6,89.1,89.1,0,0,0,13.3,2.8,74.7,74.7,0,0,0,17.1.1h2.3a59.6,59.6,0,0,0,12.2-3.2,48,48,0,0,0,12-7.1,53.8,53.8,0,0,0,10.9-11.9A75.6,75.6,0,0,0,685,705.5a99.4,99.4,0,0,0,3.3-24.8,87,87,0,0,0-2.7-21.9,60.1,60.1,0,0,0-4.4-12.1c0-.1,0-.2-.1-.2H681a.3.3,0,0,0-.1-.2h0a.1.1,0,0,1-.1-.1h-.2a58.3,58.3,0,0,0-3.9-6.9,46.2,46.2,0,0,0-16.3-14.6l-6.2-3.4-.8-.5a61.9,61.9,0,0,0-14.8-5.2V576.3l-.9-30.2-.4-11.8-.7-24.3h-.1v-.2a1.3,1.3,0,0,0-.1-.6c0-.3-.1-.5-.1-.8l-.3-1.4c0-.1-.1-.3-.1-.4s-.1-.6-.2-.9a2.9,2.9,0,0,0-.2-.9,1.3,1.3,0,0,0-.1-.6,111,111,0,0,0-6.9-21.7h-.3a.4.4,0,0,0-.1-.3l-2.8-5.6h0l-.6-1.2-.9-1.6-1.7-2.8,5-1.3c6.5-1.8,12.7-3.6,18.4-5.6a111.3,111.3,0,0,0,12-4.6,63.7,63.7,0,0,0,14.6-8.8,39.8,39.8,0,0,0,5.6-6,26.5,26.5,0,0,0,3.6-7.6,43.9,43.9,0,0,0,1.9-12.4,30.5,30.5,0,0,0-1.1-8.5,32.9,32.9,0,0,0-1.6-4.4h-.1l-.4-.9a21.1,21.1,0,0,0-1.6-3,30.5,30.5,0,0,0-10.3-10.2l-2.8-1.6-1-.6-5.3-2.8c-6.1-3.4-13.9-5.9-23.9-7.4a181.1,181.1,0,0,0-25.6-2.1,6.6,6.6,0,0,1-.1-1.4,20.3,20.3,0,0,0-1.1-6,6.9,6.9,0,0,0-1.6-2.3,10.6,10.6,0,0,0-2.4-1.8l-1.5-.7-1.7-.5a11.7,11.7,0,0,0-2.7-.5,15.6,15.6,0,0,0-6.9,1.1,12.9,12.9,0,0,0-3.4,2.1,7.5,7.5,0,0,0-2,3,7.8,7.8,0,0,0-.6,2.8,35.3,35.3,0,0,0-16.7-13.3h5.5c1.9,0,3.5-3.8,3.8-9.2s-1.1-12.3-3.2-13.5l-.7-.2-34.8.3c-1.9,0-3.4,3.8-3.8,9.2s1.1,12.2,3.2,13.4a1.1,1.1,0,0,0,.7.3h4.9a34.3,34.3,0,0,0,1.3,64.5v12.5l-5.7,1c-2.2.4-5.3,1-7.5,1.6s-6.1,1.8-8.7,2.7a83.3,83.3,0,0,0-8.1,3.6l-5.3,2.9a66.6,66.6,0,0,0-10.9,8.1c-1,.9-2.3,2.1-3.2,3.1s-4,4.6-5.6,6.6a56.5,56.5,0,0,0-3.8,5.7c-.9,1.4-1.9,3.3-2.7,4.8s-2.1,4.9-3.1,7.2a5,5,0,0,1-.5,1.3l-1.6,5c-.6,2.3-1.2,4.5-1.6,6.4a20,20,0,0,0-.4,2.4c-2.5,2-4.9,4.2-7.2,6.4A104.4,104.4,0,0,0,454,531.1a97.8,97.8,0,0,0-6.2,11.5,117.7,117.7,0,0,0-6.9,20.3,103.5,103.5,0,0,0-2.4,15.1,65.7,65.7,0,0,0-.4,7.8,69.9,69.9,0,0,0,1.4,14.5A16,16,0,0,0,440,602.4Zm34,18.2a36.1,36.1,0,0,1-8-8.5c-.5-.8-.9-1.6-1.3-2.4s-.1-.2-.2-.2A44,44,0,0,1,462,602a13.6,13.6,0,0,0-.4-1.7,60.8,60.8,0,0,1-1-11.5,87.2,87.2,0,0,1,1.8-16.8l.6-2.4a84.7,84.7,0,0,1,5.8-17,78.8,78.8,0,0,1,6.3-11.4v79.9l-.8-.3Zm130-26.4a6.4,6.4,0,0,1-1.3,1.5c1,3.9.8,7.5-1.1,10.4a10.8,10.8,0,0,1-5.1,4h-.2a21.7,21.7,0,0,1-7.7,1.3,47.5,47.5,0,0,1-10.5-1.4,86.8,86.8,0,0,1-13.1-4.3,34.3,34.3,0,0,1-29.1-6.5l-1.2-1a34.1,34.1,0,0,1-11.2-19.1h0a103.8,103.8,0,0,1-10.8-11.7,58.1,58.1,0,0,1-3.2-4.9c-4.5-7.5-5.4-13.8-2.6-18.2s6.1-5.1,10.9-5.4l.4-.7c2.5-3.8,8-5,16-3.4a7.7,7.7,0,0,1,.7-1.6h.1c5.6-8.3,25.7-1.6,41.8,8.9,2.2,1.4,4.3,2.9,6.4,4.5a97.6,97.6,0,0,1,13.1,12.3c5.7,6.9,8.5,13.5,5.5,18.1l-1.1,1.3C605,584.6,606.6,590.2,604,594.2Zm-6.2,146.3a4.3,4.3,0,0,0,.2,1.1A4.3,4.3,0,0,1,597.8,740.5ZM585.7,416.3h0v.5a9.1,9.1,0,0,0,2,4.9,8.6,8.6,0,0,0,1.4,1.3h0a10,10,0,0,0,2.3,1.4h.2l.9.3h.7a8.7,8.7,0,0,0,2.2.5h2.8a14.5,14.5,0,0,0,2.7-.3,15.7,15.7,0,0,0,2.4-.8,10,10,0,0,0,3.9-2.6,7,7,0,0,0,1.5-2.4,16.7,16.7,0,0,0,.7-2.9c.1-1.3.4-5,.5-13.7h0a193.2,193.2,0,0,1,23.2,1.3,90.2,90.2,0,0,1,17.8,3.9,20.8,20.8,0,0,1,3,1.2,17,17,0,0,1,5.6,5.9,14.9,14.9,0,0,1,1.2,6.4,29.7,29.7,0,0,1-1.2,7.8,7.7,7.7,0,0,1-2,3.4,22.4,22.4,0,0,1-4.7,4,82.9,82.9,0,0,1-16.7,7.7c-6.1,2.2-13.1,4.3-20.7,6.3l-9.4,2.5-.3-.2a47.4,47.4,0,0,0-6-3.9,68.2,68.2,0,0,0-7.7-3.7l-4.1-1.5h-.4a66.3,66.3,0,0,0-8.9-2.1,67.2,67.2,0,0,0-9-1V429.6A34.4,34.4,0,0,0,585.7,416.3Z"/><path class="cls-1" d="M596.3,580.5h-.1l-2.2.3a20.9,20.9,0,0,1,2.3,2.9h0a48.1,48.1,0,0,1,4,6c.1-2.1-1.3-5.3-4-9.1Z"/><path class="cls-1" d="M535.8,545.2c.1-.1.2-.1.2-.2s-.1-.2-.2-.3Z"/><path class="cls-1" d="M596.3,593.1h0v0Z"/></g><g id="Guide_copy" data-name="Guide copy"><path class="cls-1" d="M0,0V1079.8H1080V0ZM1065.5,1065.5H14.5V14.5h1051Z"/></g></svg>