<svg xmlns="http://www.w3.org/2000/svg" viewBox="0 0 1080 1080"><defs><style>.cls-1{fill:#fdf3f8;}</style></defs><title>home_eventi</title><g id="Eventi"><path class="cls-1" d="M265.1,677.5c4.7-2.8,7.7-8.6,7.7-16.8,0-16.7-11.7-37-26.2-45.3-7.2-4.3-13.9-4.6-18.6-1.9l-7.1,4.1h.1c-4.8,2.7-7.7,8.6-7.7,16.9-.1,16.6,11.6,36.9,26.1,45.2,7.5,4.4,14.3,4.7,19.1,1.6l-.4.3Zm-4.6,2.2c.1-.1.3-.2.4-.4S260.6,679.6,260.5,679.7Zm.7-.7.4-.4Zm.7-.8a1,1,0,0,1,.4-.5A1,1,0,0,0,261.9,678.2Zm.7-.9.3-.5Zm.5-1,.3-.5Zm.6-1a1.4,1.4,0,0,1,.2-.6A1.4,1.4,0,0,0,263.7,675.3Zm.4-1.1.3-.6Zm.4-1.2a1.4,1.4,0,0,0,.2-.6A1.4,1.4,0,0,1,264.5,673Zm.4-1.2a6.4,6.4,0,0,1,.2-.7A6.4,6.4,0,0,0,264.9,671.8Zm.8-5.5v0Zm-.5,4.2c0-.3.1-.5.1-.8S265.2,670.2,265.2,670.5Zm.2-1.4a1.9,1.9,0,0,0,.1-.8A1.9,1.9,0,0,1,265.4,669.1Zm.2-1.4a2.8,2.8,0,0,1,.1-.9A2.8,2.8,0,0,0,265.6,667.7Zm-37.4-51.8h0Zm-6.3,1.2-.5.3Zm5.1-1.2h0Zm-1.1.1h0Zm-1,.1-.5.2Zm-1.1.3h0Zm-1,.3-.4.2Zm7.2-.7h0Zm-1.2-.1h0Zm6.8,1.6-.6-.2Zm-1.3-.5-.6-.2Zm-1.3-.4h0Zm-1.2-.3h0Zm4.6,1.5.5.3Zm1.4.7.4.2Zm21.5,62.2-.4.3Zm.8-.6-.4.3Z"/><path class="cls-1" d="M246.8,699c-11.7-6.7-22.2-7.3-29.8-2.9l-7.1,4.1a.1.1,0,0,0,.1-.1c-7.6,4.4-12.3,13.7-12.3,27l-.3,92.8c0,5.7,4,12.5,8.9,15.4l66,38.1c2.6,1.5,5,1.5,6.6.4l-.3.2,7.1-4.1c1.6-.9,2.6-2.9,2.6-5.7l.2-92.9C288.6,744.7,269.9,712.4,246.8,699Z"/><path class="cls-1" d="M179.3,698.6c-2.7-1.6-5.3-1.8-7.1-.7l-7,4.1h0c-1.8,1-2.9,3.2-2.9,6.4l-.3,95.2c0,6.4,4.4,14.1,10,17.3,2.9,1.7,5.6,1.8,7.4.5l-.3.2,7-4.1c1.8-1,2.9-3.3,2.9-6.4l.3-95.2C189.3,709.5,184.9,701.8,179.3,698.6Z"/><path class="cls-1" d="M318.8,765.6l-3.7-2.1c-2.8-1.6-5.3-1.8-7.1-.7l-7.1,4.1h0c-1.8,1.1-2.9,3.3-2.9,6.5l-.3,106c0,6.4,4.4,14.1,10,17.3l3.7,2.1c3,1.8,5.6,1.8,7.5.5a.5.5,0,0,1-.4.2l7.1-4.1c1.8-1,2.9-3.2,2.9-6.4l.3-106C328.8,776.6,324.4,768.8,318.8,765.6Zm-17.2.9-.3.2Z"/><path class="cls-1" d="M253.5,889.5h.1c-2.9,1.6-4.6,5.1-4.6,10.1l-.3,97.6c0,9.9,7,22,15.6,27,4.6,2.7,8.8,2.7,11.7.7l-.6.4,7.1-4.1c2.8-1.6,4.5-5.1,4.6-10.1l.2-97.6c.1-9.9-6.9-22-15.6-27-4.3-2.5-8.3-2.7-11.1-1.1m-5.9,3.6-.5.2Z"/><path class="cls-1" d="M201.6,855.4h0c-2.8,1.6-4.6,5.1-4.6,10l-.3,97.6c0,9.9,7,22,15.6,27,4.7,2.7,8.8,2.8,11.7.8l-.5.3,7-4.1c2.8-1.6,4.6-5.1,4.6-10l.3-97.6c0-9.9-7-22-15.6-27-4.4-2.6-8.3-2.8-11.2-1.1m-5.9,3.5-.5.3Z"/><path class="cls-1" d="M448.7,890.8c4.7-2.7,7.6-8.5,7.7-16.8,0-16.6-11.7-36.9-26.2-45.3-7.3-4.2-13.9-4.6-18.7-1.8l-7,4.1h0c-4.7,2.7-7.6,8.5-7.7,16.8,0,16.7,11.7,36.9,26.2,45.3,7.5,4.3,14.3,4.6,19.1,1.6l-.4.2Zm-43.2-60.3-.5.2Zm37.4,63.6-.4.3Z"/><path class="cls-1" d="M472.1,984.7c.1-26.6-18.6-59-41.8-72.3-11.6-6.8-22.1-7.4-29.8-3l-7,4.1m.1,0c-7.6,4.3-12.3,13.6-12.3,26.9l-.3,92.9c0,5.6,4,12.5,8.9,15.3l2.1,1.3h79.9l.2-65.2m-77.2-71.9"/><path class="cls-1" d="M348.7,915.3h.1c-1.8,1.1-3,3.3-3,6.5l-.2,95.2c-.1,6.3,4.4,14.1,9.9,17.3,3,1.7,5.6,1.7,7.5.4l-.4.3,7.1-4.1c1.8-1.1,2.9-3.3,2.9-6.4l.3-95.3c0-6.3-4.5-14.1-10-17.3-2.8-1.6-5.3-1.7-7.1-.7"/><path class="cls-1" d="M512.4,996.3c0-6.4-4.5-14.1-10-17.3l-3.8-2.2c-2.7-1.6-5.3-1.7-7.1-.7l-7,4.1h0c-1.8,1.1-2.9,3.3-2.9,6.4l-.2,63.3h30.8l.2-53.6"/><path class="cls-1" d="M273.6,398.3c1.9-9.4,9.3-16.6,19.6-19.3s20.7-.4,27.7,5.5a103.4,103.4,0,0,1,11.7-7l1.2-.6c-8.3-10.1-13.2-23.3-15-32.6-2.2-11.2-1-22,3.4-30.7,5.7-11.2,18.2-19.7,33.5-22.7s29.3,1.2,40.8,11.7,21.6,26.5,25.2,42.1a70.9,70.9,0,0,1,1.5,25.6,24.6,24.6,0,0,1-4.1,11.9,29.1,29.1,0,0,1-2.4,2.7l-7.4,7.1-2.4,2.2-.4.4a25.2,25.2,0,0,1,5.3,5,19.4,19.4,0,0,1,2,3.3h77.3L490.7,29H29.9V402.9H273A36.2,36.2,0,0,1,273.6,398.3Z"/><path class="cls-1" d="M55.5,723.1c-7.3-4.2-13.9-4.6-18.7-1.8l-6.9,4h-.1a.1.1,0,0,1,.1-.1v43c4.8,8.1,11.2,15.1,18.4,19.2s13.9,4.6,18.7,1.8h-.1l7.1-4.1c4.7-2.7,7.6-8.5,7.6-16.8.1-16.6-11.6-36.9-26.1-45.3"/><path class="cls-1" d="M29.9,805.1V951.6l51.2,29.5c2.5,1.5,4.8,1.6,6.4.6h0l7-4c1.6-1,2.6-2.9,2.6-5.8l.3-92.8c0-26.6-18.7-59-41.8-72.3m0,0c-9.6-5.6-18.6-7-25.7-4.8v3.1"/><path class="cls-1" d="M127.7,873.4l-3.8-2.2c-2.8-1.6-5.3-1.7-7.1-.7l-7.1,4.1h.1c-1.8,1-3,3.3-3,6.4l-.3,106.1c0,6.3,4.5,14,10,17.2l3.8,2.2c2.9,1.7,5.6,1.8,7.4.5l-.3.2,7-4.1c1.8-1,2.9-3.3,2.9-6.4l.3-106C137.7,884.3,133.2,876.6,127.7,873.4Z"/><path class="cls-1" d="M80.6,994.3c-4.4-2.5-8.3-2.8-11.2-1.1l-7,4.1h0c-2.8,1.6-4.6,5.1-4.6,10v42.6H96.1v-28.6h0C96.2,1011.4,89.2,999.3,80.6,994.3Z"/><path class="cls-1" d="M29.9,961v88.9H44l.2-62.8C44.2,977.7,38,966.4,29.9,961Z"/><path class="cls-1" d="M367,377c7.3,4.3,13.9,4.6,18.7,1.8h.2l6.8-3.9c4.7-2.8,7.6-8.6,7.6-16.9.1-16.6-11.6-36.9-26.1-45.3-7.3-4.2-13.9-4.6-18.7-1.8l-6.7,3.9-.3.2c-4.7,2.7-7.6,8.6-7.7,16.8C340.8,348.4,352.5,368.7,367,377Z"/><path class="cls-1" d="M413.2,567.2c1.6-.9,2.6-2.9,2.6-5.7l.3-92.9h0c0-12.7-4.3-26.8-11.3-39.5a88.1,88.1,0,0,0-4.7-7.7,81.1,81.1,0,0,0-5.4-7.3,89.7,89.7,0,0,0-11-11.2,66.4,66.4,0,0,0-9.4-6.6c-11.6-6.7-22.1-7.3-29.8-2.9l-6.5,3.7-.2.2a21.4,21.4,0,0,0-6.4,5.6c-3.9,5.1-6.1,12.3-6.1,21.4v21.8l-.2,71.1c0,5.6,4,12.5,8.9,15.4l65.9,38.1c2.6,1.4,4.8,1.5,6.5.5h-.1Zm-5.9,3.2Zm1.3-3v.2h0Zm.1-.8v.1Zm-1.2,3.5.4-.6Zm.5-.9h0Zm-1.2,1.6a.1.1,0,0,1-.1.1A.1.1,0,0,0,406.8,570.8Z"/><path class="cls-1" d="M306.7,518.8c0,.1,0,.1-.1.1l7.1-4.1c1.8-1.1,2.9-3.3,2.9-6.4h0l.2-66.1V413.1a14.4,14.4,0,0,0-.6-4,22.1,22.1,0,0,0-2.6-6.2,19.9,19.9,0,0,0-6.8-7c-2.8-1.6-5.3-1.8-7.1-.7l-2.3,1.3h0l-4.8,2.8a.2.2,0,0,0-.2.2h-.1a6,6,0,0,0-2.2,3.4,8.6,8.6,0,0,0-.4,2.8v22.7l-.3,72.5c0,6.4,4.5,14.1,10,17.3C302.3,519.8,304.9,519.9,306.7,518.8Z"/><path class="cls-1" d="M453.1,592.6c1.8-1,3-3.2,3-6.4l.3-106c0-6.4-4.5-14.1-10-17.3l-3.8-2.2c-2.7-1.6-5.3-1.7-7.1-.6l-7,4h0c-1.8,1.1-2.9,3.3-2.9,6.5l-.3,106c-.1,6.3,4.4,14.1,9.9,17.3L439,596c2.9,1.7,5.6,1.8,7.4.5"/><path class="cls-1" d="M391.9,721.5c4.6,2.6,8.7,2.7,11.6.7l-.5.4,7.1-4.1c2.8-1.7,4.5-5.1,4.5-10.1l.3-97.6c0-9.9-7-22-15.6-27-4.4-2.5-8.3-2.7-11.2-1.1l-7,4.1h0c-2.8,1.6-4.5,5.1-4.6,10l-.2,97.7C376.2,704.4,383.2,716.5,391.9,721.5Zm-6.4-135.7h0Zm1.4.1h0Zm1.6.4h0Zm1.6.5.5.3ZM404,721.9l.5-.5Zm.9-.9.4-.5Zm2.6-6.7c0-.6.1-1.2.1-1.8S407.5,713.7,407.5,714.3Zm-1.8,5.7.3-.7Zm.6-1.2.3-.8Zm.6-1.3a2.9,2.9,0,0,1,.2-.9A2.9,2.9,0,0,0,406.9,717.5Zm.3-1.5a5,5,0,0,0,.2-1.2A5,5,0,0,1,407.2,716ZM384.8,585.8h0Zm-2.6.5-.5.2Zm1.3-.4-.6.2Z"/><path class="cls-1" d="M351.6,688.1l-.6.3,7.1-4.1c2.8-1.6,4.5-5.1,4.6-10l.2-97.6c.1-10-6.9-22.1-15.6-27.1-4.3-2.5-8.3-2.7-11.1-1l-7.1,4h.1c-2.9,1.7-4.6,5.1-4.6,10.1l-.3,97.6c0,9.9,7,22,15.6,27C344.5,690,348.7,690.1,351.6,688.1Zm.4-.4.5-.4Zm.9-.8a2.1,2.1,0,0,0,.4-.6A2.1,2.1,0,0,1,352.9,686.9Zm2.6-6.7a10.9,10.9,0,0,0,.1-1.8A10.9,10.9,0,0,1,355.5,680.2Zm-1.8,5.6a2.1,2.1,0,0,1,.4-.6A2.1,2.1,0,0,0,353.7,685.8Zm.7-1.2.3-.7Zm.5-1.3a2.9,2.9,0,0,0,.2-.9A2.9,2.9,0,0,1,354.9,683.3Zm.4-1.5c0-.3.1-.7.1-1.1S355.3,681.5,355.3,681.8ZM338.7,552.9l-.6-.2Zm-1.6-.6-.6-.2Zm-4.3-.7h0Zm-2.5.5-.5.3Zm1.2-.3h0Zm2-.2h0Zm2.1.3h0Z"/><path class="cls-1" d="M500.4,404.2c0,1.4,47.4,19.6,115,44.9-22.3-39.6-35.6-87-36-137.1-.9-113.3,64.1-202.7,151-216.7l11.8-1.8A147.1,147.1,0,0,1,777.4,92c103.9,7.6,189,117.7,190.1,245.8.7,92.9-42.8,169.7-106.4,202.1,83.1,30.5,156.8,57.6,189.7,70.1V29H500.4Z"/><path class="cls-1" d="M729.4,494.9l-41.2-3.2L647,488.5l-.6,4.3-1.2,7.9,14.8,9.6L517.2,583.1h0l-1.9,12.2,34.5,22.3,154.4-78.7v-.2h0v.2l24.5,15.9.8-5.2,1-7-.5-23.8Z"/><polygon class="cls-1" points="463.8 610.3 462 622.5 496.4 644.8 525.2 630.1 527.1 617.9 492.7 595.6 463.8 610.3"/><polygon class="cls-1" points="429 628.1 427.1 640.3 461.5 662.5 472.5 656.9 474.4 644.7 440 622.4 429 628.1"/><path class="cls-1" d="M938.2,337.3c-.5-63.2-24-121.4-60.6-162l-108.1-7.9-11.8,1.9.8,98.7c17,1.3,30.9,19.2,31,40.1.2,16.1-7.8,29.2-19.1,33.9l-11.2,1.7,1.3,159.1v1.8l61.4,22.9,3.8-.7,8-1.2C895.6,500,939,424.6,938.2,337.3Z"/><path class="cls-1" d="M10.4,963.1l.4-.2h-.4Z"/></g><g id="Guide_copy" data-name="Guide copy"><path class="cls-1" d="M0,0V1079.8H1080V0ZM1065.5,1065.5H14.5V14.5h1051Z"/></g></svg>