<svg xmlns="http://www.w3.org/2000/svg" viewBox="0 0 1080 1080"><defs><style>.cls-1{fill:#fdf3f9;}.cls-2{fill:#fdf3f8;}</style></defs><title>home_us</title><g id="Us..."><path class="cls-1" d="M913.2,603.4c22.6,13.1,43.1,14.3,57.9,5.6a.1.1,0,0,0-.1.1l42.3-24.6c14.5-8.5,23.6-26.5,23.7-52.1.1-51.6-36.2-114.4-81-140.3-22.6-13-43.1-14.2-57.8-5.7L855.9,411a.1.1,0,0,0,.1-.1c-14.7,8.5-23.8,26.5-23.8,52.2C832,514.7,868.3,577.5,913.2,603.4ZM884.8,406.1h0Zm1.8.3h0Zm1.9.3.9.2Zm1.9.4,1,.3Zm2,.5.9.3Zm1.9.6,1,.3Zm2,.6,1,.3Zm2,.7,1,.3Zm2,.7,1,.4Zm2.1.9.9.3Zm2.1.9.9.4Zm2.1.9a2,2,0,0,0,.8.4A2,2,0,0,1,906.6,412.9Zm2.1,1.1.8.4Zm2.2,1.1.7.4Zm67.6,188.3.2-.2Zm-4.9,4h0Zm2.5-1.9c.1,0,.1-.1.2-.2S976.2,605.5,976.1,605.5Zm4.7-4.5a.3.3,0,0,0,.1-.2A.3.3,0,0,1,980.8,601Zm2.1-2.6h0Zm1.9-2.7a.3.3,0,0,0,.1-.2A.3.3,0,0,1,984.8,595.7Zm1.8-3c0-.1.1-.1.1-.2S986.6,592.6,986.6,592.7Zm1.6-3.2c.1-.1.1-.1.1-.2S988.3,589.4,988.2,589.5Zm1.5-3.4c0-.1,0-.1.1-.2S989.7,586,989.7,586.1Zm1.3-3.6h0Zm1.1-3.8h0Zm.9-4h0Zm.7-4.1h0Zm.5-4.4h0Zm.4-4.5h0ZM883.8,405.9h0Zm-1.9-.1h0Zm-1.8-.2h0Zm-1.8-.1h0Zm-1.7,0h0Zm-19.2,4.7-.7.3Zm17.4-4.6h0Zm-1.7.1h0Zm-1.7.2h0Zm-1.7.2-.8.2Zm-1.6.3-.8.2Zm-1.6.4-.8.2Zm-1.6.4-.8.2Zm-1.6.5-.7.2Zm-1.5.5-.7.3Zm-1.5.6-.7.3Zm-1.5.7-.7.3Z"/><path class="cls-1" d="M1044.2,701.9l-42.3,24.6h0l42.3-24.6L868.5,600.5c-11.6-6.8-22.2-7.4-29.8-3l-42.3,24.6h.2c-7.6,4.3-12.4,13.7-12.4,27l-1.1,400.9h267.7V706.3A58.2,58.2,0,0,0,1044.2,701.9ZM822.3,623l-1.9-.9Zm-2.3-1.1-2.3-.8Zm-11.9-2.6h0Zm7.8,1.2h0Zm-2.1-.5h0Zm-1.8-.3h0Zm-2.2-.3Zm-3.6-.1h0Zm-1.6.2h0Zm-3.4.6h0Zm-1.7.6h0Zm3.1-.9h0Zm23,4.9.6.3,77.4,44.7L826.2,625Zm-2.3-1.2,1,.4Z"/><path class="cls-1" d="M66.6,584.1l42.2,24.8h-.2c14.8,8.7,35.3,7.7,58-5.3,45-25.6,81.6-88.2,81.8-139.8.1-25.7-8.9-43.8-23.6-52.3h.2l-42.2-24.8c-14.7-8.7-35.2-7.6-57.8,5.3-45,25.6-81.6,88.2-81.8,139.8C43.1,557.4,52.1,575.5,66.6,584.1Zm34.5,18.8c.1.1.1.2.2.2S101.2,603,101.1,602.9ZM106,607a.2.2,0,0,0,.2.2A.2.2,0,0,1,106,607Zm-2.5-1.9c0,.1.1.1.2.2S103.5,605.2,103.5,605.1ZM224.1,411l-.7-.4Zm-1.4-.8-.7-.3Zm-1.4-.6-.7-.4Zm-1.5-.7-.7-.3Zm-1.5-.6-.8-.2Zm-1.6-.5-.7-.2Zm-1.5-.4-.8-.2Zm-1.6-.4-.8-.2Zm-1.6-.4h0Zm-1.7-.2-.8-.2Zm-1.7-.2h0Zm-1.7-.2h0Zm-1.7-.1h0Zm-1.8,0h0Zm-8.2.6h0Zm1.9-.3h0Zm1.8-.1h0Zm1.9-.2h0Zm-6.5.7-1,.2Zm-1.9.4-1,.2Zm-2,.4-.9.2Zm-1.9.5-.9.2Zm-2,.5-.9.3Zm-2,.6-.9.3Zm-2,.7-.9.3Zm-2,.7-.9.4Zm-2,.8-.9.4Zm-2.1.9-.9.4Zm-2.1,1-.9.4Zm-2.1,1-.9.4Zm-2.4,1.3-.5.2ZM99,600.8v0Zm-2.1-2.6a.3.3,0,0,0-.1-.2A.3.3,0,0,1,96.9,598.2ZM95,595.4c0-.1-.1-.1-.1-.2S95,595.3,95,595.4Zm-1.8-3c0-.1,0-.1-.1-.2S93.2,592.3,93.2,592.4Zm-1.6-3.2c0-.1,0-.1-.1-.2S91.6,589.1,91.6,589.2Zm-1.4-3.4c0-.1-.1-.1-.1-.2S90.2,585.7,90.2,585.8Zm-1.3-3.6v0Zm-1.1-3.8h0Zm-.8-4a.1.1,0,0,1-.1-.1A.1.1,0,0,0,87,574.4Zm-.7-4.2a.1.1,0,0,1-.1-.1A.1.1,0,0,0,86.3,570.2Zm-.5-4.3h0Zm-.3-4.6Z"/><path class="cls-1" d="M285.5,622.9h0l-42.2-24.8c-7.6-4.5-18.1-3.9-29.8,2.7L37.3,701.3h0a55.7,55.7,0,0,0-7.4,4.9v343.7H296.4l1.1-400.1C297.6,636.6,293,627.3,285.5,622.9Zm-1.4-.7-.5-.3Zm-4.7-1.7h0Zm-1.6-.3h0Zm-3.7-.2h0Zm-1.5.1h0Zm-2.1.2h0Zm-1.9.3h0Zm-1.9.4-.7.2Zm-2.2.7-.6.2Zm-52.8,29,44-25.1.7-.4-.7.4Zm50.9-28.3-.8.3Zm-1.9.7-1,.4Zm-2.1,1-.9.4Zm17.1-4.1h.3c-.1,0-.1,0-.1-.1Zm5.1.9,1.9.6h-.2A5.8,5.8,0,0,0,280.8,620.9Z"/><path class="cls-1" d="M758.2,663.4a23.6,23.6,0,0,0-8.9-2.8,19.7,19.7,0,0,0-12.9,3l-17.2,11.5.3-.3a20.1,20.1,0,0,0-7.6,9.5A359.3,359.3,0,0,1,687.2,737,212.9,212.9,0,0,1,669,763.7a148.7,148.7,0,0,1-12.4,13.7.1.1,0,0,1-.1-.1l-8.6,5.8,8.6-5.8a24.5,24.5,0,0,1-1.4-2.1c-.7-1.5-1.7-3.5-2.7-5.9a157.2,157.2,0,0,1-5.9-18.2c-1.7-6.4-3.3-13.7-4.9-21.6-2.7-13.9-5.2-29.8-7.3-46.8-3.3-25.6-5.9-53.7-7.9-81.9s-3.5-56.5-4.6-82.5-1.8-49.7-2.3-68.8-.7-33.3-.8-40.7c-.2-13.1-10.5-25.1-23.6-26.8a19.2,19.2,0,0,0-12.8,3l-17.2,11.4h.1c-5.5,3.6-9,10.1-8.9,18s.4,21.8.9,41.1,1.1,43.2,2.3,69.7,2.7,57.6,4.9,87.7c1.7,22.6,3.7,45.1,6.2,66.7,1.8,16.1,3.9,31.7,6.3,46.2,1.8,11,3.8,21.3,6,31,1.6,7.3,3.4,14.2,5.3,20.7,1.5,4.8,3.1,9.5,4.8,13.9a114.5,114.5,0,0,0,9.1,19,72.8,72.8,0,0,0,6.5,8.7,48.5,48.5,0,0,0,8.8,8,64.7,64.7,0,0,0,10.5,6.2,43,43,0,0,0,6.9,2.6,48,48,0,0,0,7.9,1.6,39.6,39.6,0,0,0,9.1-.1,45.8,45.8,0,0,0,13.3-3.8,50.7,50.7,0,0,0,7.4-4.3l-.2.2,17.3-11.5a42.9,42.9,0,0,0,5-3.7,182.6,182.6,0,0,0,27.7-27.9A288.1,288.1,0,0,0,752.4,739a422.6,422.6,0,0,0,19-43C775.8,684.4,769.9,669.8,758.2,663.4ZM576.3,393.3h0Zm-9.8,2.3h0Zm7.9-2.2h0Zm-1.6.1h0Zm-1.7.3h0Zm-1.6.5h0Zm-1.4.5-.3.2Zm76.4,393-1,.6Zm85.8-115.9h0Zm-9.4,2.2-.6.3Zm7.8-2.1h0Zm-1.7.1h0Zm-1.6.3-.7.2Zm-1.5.4-.7.3Zm-1.5.6-.7.3ZM674.7,827.7l.4-.3Z"/><path class="cls-1" d="M513.4,453.4c-.2-9.8-.4-18.3-.5-25.4s-.4-12.5-.5-16.2c-.2-9.2-5.1-16.5-12.2-19.5h.2l-19-8.2a20.8,20.8,0,0,0-10.6-1.4c-12.1,1.9-21.7,14.3-21.4,27.7.1,3.7.3,9.2.5,16.2.5,20.9,1.2,55.1,1.2,94.6.1,27.1-.2,56.6-1.1,85.9-.6,22-1.6,43.8-3,64.4-1.1,15.4-2.4,30-4,43.4-1.2,10.1-2.6,19.4-4,27.8-1.2,6.2-2.4,11.9-3.6,16.9s-1.9,7-2.8,9.8a54.7,54.7,0,0,1-3,7.6,147.8,147.8,0,0,1-12.7-13.5c-10.4-12.3-19.5-26.4-27.1-40.1A404.5,404.5,0,0,1,371.4,685a19.2,19.2,0,0,0-10.7-10.8l.5.2-19-8.2a18.8,18.8,0,0,0-10-1.4,22.4,22.4,0,0,0-8.8,3.2c-11.1,6.8-16.2,21.7-11.3,33.4a398.9,398.9,0,0,0,29.7,58.5A279.6,279.6,0,0,0,364.2,791a188.3,188.3,0,0,0,28.3,27.4,60,60,0,0,0,8.1,5.4,35.5,35.5,0,0,0,4.4,2.1l19,8.3-.3-.2a39.3,39.3,0,0,0,8.6,2.8,38.8,38.8,0,0,0,13.1.6,38,38,0,0,0,7.9-1.9,42.5,42.5,0,0,0,9.8-4.5c2.8-1.7,5.2-3.4,7.1-4.8a47.7,47.7,0,0,0,6.1-5.7,62.7,62.7,0,0,0,8.5-12,108.1,108.1,0,0,0,5.5-12,185.4,185.4,0,0,0,7.5-25.1c1.8-7.8,3.4-16.3,4.8-25.2,2.4-15.6,4.4-32.7,5.9-50.8,2.3-27.2,3.7-56.6,4.6-85.9s1.1-58.7,1.1-85.6S513.8,472.9,513.4,453.4Zm-20.5-62.5h0Zm6.5,1.1h0Zm-1.2-.3-.4-.2Zm-1.3-.4h0Zm-1.5-.2h0Zm-1.2-.2h0ZM360.2,674l-1-.3Zm-1.3-.4a7,7,0,0,0-1.4-.3A7,7,0,0,1,358.9,673.6Zm-1.7-.4-1.1-.2Zm-1.6-.2h0Zm-1.5-.1h0Zm-1.4,0h0ZM421.5,833l.6.3Zm26-45.6L435.1,782h0l12.4,5.4Zm44.1-396.5h0Z"/><g id="LOGO_copy_3" data-name="LOGO copy 3"><path class="cls-2" d="M442.7,280.7A117.9,117.9,0,0,0,540,332.1a123,123,0,0,0,13.7-.8,530.3,530.3,0,0,1-55.9-22.2A598.2,598.2,0,0,1,442.7,280.7Z"/><path class="cls-2" d="M426,200.5l5.3,25.5q33,24.1,84.7,47.8c33.8,15.5,67.9,26.3,98.8,31.5a113.8,113.8,0,0,0,13.7-13.2c-33.3-2.7-71.8-13.5-109.5-30.8S449.7,223.2,426,200.5Z"/><path class="cls-2" d="M537.1,225.8c38.1,17.4,76.4,27.6,107.9,28.7h5.8a116.6,116.6,0,0,0,6.6-29,84.4,84.4,0,0,1-24.8,3.6h-4.8c-26.3-1-57.6-9.2-88.4-23.3s-57.5-32.4-75.4-51.6a100.1,100.1,0,0,1-12.9-17.4A120.2,120.2,0,0,0,438,155.2c2.1,2.4,4.3,5,6.8,7.7C466.3,186,499.1,208.4,537.1,225.8Z"/><path class="cls-2" d="M525.2,100.8a114.9,114.9,0,0,0-44.7,15.7l-3.2,2,3.3,4.3h0l.4.5c1.8,2.2,3.9,4.6,6.3,7.1,15.6,16.8,39.4,33.1,67.1,45.7S610,196.2,632.9,197c9.6.3,15.9-.2,20-1.3-.2-1.5-.5-2.9-.8-4.3a103.7,103.7,0,0,0-4-14.5,115.4,115.4,0,0,0-14.8-28.8h0a118.6,118.6,0,0,0-18.1-20h0a113.6,113.6,0,0,0-59.8-27.2h0a128.5,128.5,0,0,0-15.4-1,104.1,104.1,0,0,0-14.8,1Z"/><path class="cls-2" d="M661.3,169.6a6,6,0,0,1,.8.8,47.7,47.7,0,0,0-8.4-13.9,114.7,114.7,0,0,0-8.4-9.5c-2.6-1.9-5.3-3.7-8-5.5a129.2,129.2,0,0,1,10.6,16.9A172.4,172.4,0,0,1,661.3,169.6Z"/><path class="cls-2" d="M395.6,125.8c-1,17.9,7.8,39.9,27.1,60.6l.5.6,1.7,1.8c23.4,24.4,57.8,47.7,97.2,65.7s78.6,28.6,112.2,30.5h0l4.3.2h6.2c16.6,0,31-3.4,42.2-9a57.5,57.5,0,0,0,15.1-10.7h0a40.3,40.3,0,0,0,5.7-7.1.1.1,0,0,1,.1-.1h0c0-.1.1-.2.1-.3a36.4,36.4,0,0,0,5.6-15,2.8,2.8,0,0,0,.1-.9,10.7,10.7,0,0,0,.3-2.5h0a48.5,48.5,0,0,0-1.7-14.8c-3.1-11.7-10.3-24.4-21.3-37.5l-.5-.6a35.1,35.1,0,0,1-2.7,13.3l.3.5a7.5,7.5,0,0,1,.7,1.2h.1a59.4,59.4,0,0,1,6.6,15.3,21,21,0,0,1,.6,2.4,18.5,18.5,0,0,1,.4,2.3h0a43.7,43.7,0,0,1-.3,14.5,3.1,3.1,0,0,1-.2.8,1.9,1.9,0,0,1-.2.8c0,.2-.1.5-.1.7s-.5,1.7-.8,2.5v.3a27.5,27.5,0,0,1-1.5,3.6v.2c-5.9,12.8-18,17.5-45.4,16.8h-3c-32.5-1.2-71.9-11.6-110.8-29.4s-72.5-40.8-94.7-64.6l-5.1-5.7C419.1,145.1,412,132,415,120.6a19.6,19.6,0,0,1,1.2-3.4l.3-.5h0l1.8-3.9c3.7-6.7,10.1-10.9,16.7-13.6v.2l.9-.5,3.8-1.4h0l3.6-1.1h.4a33.7,33.7,0,0,1,6.7-13h-.5c-12.2,1.1-22.6,3.8-30.9,8a46.9,46.9,0,0,0-12,8.5h-.5l-1.2,1.3h0a43.6,43.6,0,0,0-3.9,5.5h-.1c-.2.4-.5.8-.7,1.3a2.5,2.5,0,0,0-.4.7c-.1.2-.2.3-.2.4h-.1l-.6,1.2v.2c0,.1-.1.1-.1.2l-.4.9c0,.1-.1.2-.1.4a35.4,35.4,0,0,0-1.8,4.9h.1A41.5,41.5,0,0,0,395.6,125.8Z"/><path class="cls-2" d="M659.4,192.1h0a1.5,1.5,0,0,1,.1.7,13.8,13.8,0,0,0,2.4-3.7,11.1,11.1,0,0,0,.7-1.6l-.4-.3-4.6-3.5Q658.6,187.9,659.4,192.1Z"/><path class="cls-2" d="M471.2,102.6h-.5a7.9,7.9,0,0,0-.2,3.1,2.2,2.2,0,0,0,.1.8v.5l.3,1.1c0,.2.1.3.1.4a7.8,7.8,0,0,0,.5,1.4c.1.2.1.4.2.5A21,21,0,0,0,473,113h.1l.4-.3a103.7,103.7,0,0,1,12.5-7.2C481,104.4,476,103.5,471.2,102.6Z"/><path class="cls-2" d="M677.5,214.1l.4.4c4.2,4.3,8,8.7,11.6,13.1l.5.6a39.7,39.7,0,0,0-5.7-20.7c.2-.3-.3.3-.1,0l-.3-.4c-.2.3.3-.3.1-.1l-.5.6A36.8,36.8,0,0,1,677.5,214.1Z"/><path class="cls-2" d="M720,249.4l-.4-.8a54.2,54.2,0,0,1-3.5,9.3c-.5-1,.5.9,0-.1-.7,1.6.2-.6-.3.8h0c-.9,1.8-1.9,3.4-2.9,5l-.5.7c-.8,1.1-1.5,2.2-2.3,3.1a4.3,4.3,0,0,0,.1.5,49.6,49.6,0,0,1,.6,7.6,47.2,47.2,0,0,1-4.6,20.2c-4.1,12.5-22.7,21.9-58.9,20.6a277.2,277.2,0,0,1-40.7-4.8c-29.6-5.7-61.8-16.2-93.8-30.9-28.8-13.1-56.2-27.8-79.2-43.8-3.6-2.5-7.1-5-10.5-7.6a216,216,0,0,1-27.6-24.6c-24.6-26.5-33.1-47.7-25.6-64A42.5,42.5,0,0,1,388.5,121l.2-.2a55,55,0,0,1,2.7-9.7l.4-.9a47.5,47.5,0,0,1,4.6-8.7h-.7c-23.2,4.9-39.3,15.6-46.6,31.4-10.8,23.6-1.5,56,28.8,88.7,14.9,16,34.4,31.2,56.7,45.2l6,3.8A601.5,601.5,0,0,0,501,302.3a502,502,0,0,0,68.7,26h0c24,6.9,46.9,11,68.7,11.8h7.5c20.2,0,38-3,52-8.8s24.2-14.3,29.3-25.4C734.6,289.9,732,270.5,720,249.4Z"/><path class="cls-2" d="M514.5,88.7l-1.5-.2h-1.4l-1.3-.2h-7.2c-14.6-.5-22.2,2.5-26.8,6.7h1a297.5,297.5,0,0,1,30,2.9h0a121.9,121.9,0,0,1,24-4.2c-5.8-1.6-11.5-3.1-17.1-4.3"/><path class="cls-2" d="M451.5,94.8h0a26.1,26.1,0,0,0-1.2,5c-.2.8-.5,1.8-.6,2.5s.1-.1,0-.1v.4a37.1,37.1,0,0,0,.4,10.7h.1a56.1,56.1,0,0,0,6.3,17.8,91.1,91.1,0,0,0,13,18c17.3,18.5,43.2,36.2,73,49.9s60.3,21.7,85.5,22.6h4.6a74.9,74.9,0,0,0,25.3-4.2,47.6,47.6,0,0,0,14.7-8.4,32.3,32.3,0,0,0,6.7-7.7c.1-.1-.3-.4.1-.1s-.2.3.1-.2l1.5-2.8a28.5,28.5,0,0,0,1.8-5.4,31.1,31.1,0,0,0,.5-9.2,39.6,39.6,0,0,0-.9-5.7c-2.5-10.1-9.1-21.2-19.7-32.6-17.2-18.5-43.2-36.3-73-49.9s-60.2-21.7-85.5-22.6h-4.6c-11.7,0-21.7,1.7-29.6,5a36.4,36.4,0,0,0-8.7,4.9h0c-4.3,3.3-8,7.6-9.8,12m51.8-13.5h.1l13.4.7h0l8.9.9c17.1,2,36,6.7,61.8,18.4,39,17.7,57.8,33.8,71.7,50.8a65.3,65.3,0,0,1,7.5,11.4,36.9,36.9,0,0,1,4.3,15.7,29.8,29.8,0,0,1-2.7,12.9h0a18.4,18.4,0,0,1-6.1,7.6l-1.5,1a34.9,34.9,0,0,1-3.4,1.5,27.5,27.5,0,0,1-3.4,1,68.4,68.4,0,0,1-15.7,1.5h-5.6c-23.9-.8-52.8-8.5-81.3-21.6S498,153,481.8,135.5a129.1,129.1,0,0,1-10.6-12.6c0-.1,0-.1.1-.1l-2.1-2.8h-.1l-1.8-2.9c-.4-.8-.9-1.6-1.2-2.4a24,24,0,0,1-2.6-8.3h0a18.3,18.3,0,0,1,.3-4.7h-.1a21.3,21.3,0,0,1,1.1-3.3,8.3,8.3,0,0,1,.7-1.3c.5-.9,1-1.8,1.6-2.7l.2-.2.5-.8,1-1.1a30.2,30.2,0,0,1,13.5-8.5c-.4-.1-.9.4-1.3.4C486.6,81.9,493.8,80.9,503.3,81.2Z"/><path class="cls-2" d="M442.6,103.8a.1.1,0,0,1-.1.1h-.4a45.3,45.3,0,0,0-8.3,3.4h0l-.8.5a24.6,24.6,0,0,0-3.4,2.2l-.4.4-.6.5-.7.7-.3.2-.4.5h6.4l8.9.4h.5a50,50,0,0,1-.4-8.6Z"/></g></g><g id="Guide_copy" data-name="Guide copy"><path class="cls-2" d="M0,0V1079.8H1080V0ZM1065.5,1065.5H14.5V14.5h1051Z"/></g></svg>