<svg xmlns="http://www.w3.org/2000/svg" viewBox="0 0 1080 1080"><defs><style>.cls-1{fill:#fdf3f8;}.cls-2{fill:#fdf3f9;}</style></defs><title>home_sfida</title><g id="Problema"><path class="cls-1" d="M1065,15V1065H15V15H1065m15-15H0V1080H1080V0Z"/><polygon class="cls-2" points="552.8 287.2 643.5 248.1 640.8 101 498.8 89 408.1 128.2 410.8 275.2 552.8 287.2"/><polygon class="cls-2" points="492.4 531.3 444.3 538.1 479.2 575.9 514.1 613.8 536.9 626.2 572 578.5 607.1 530.8 584.3 518.4 559 522 559.2 409.6 536.4 397.2 492.7 403.3 492.4 531.3"/><polygon class="cls-2" points="492.7 379.5 515.5 391.9 559.2 385.8 559.3 362.2 536.5 349.8 492.8 355.9 492.7 379.5"/><polygon class="cls-2" points="559.3 329.8 536.5 317.4 492.8 323.5 492.8 333.8 515.6 346.2 559.3 340 559.3 329.8"/><path class="cls-2" d="M994.7,526.6l-.2,76.6-38.9,8.2-.3,150.2-5,1v61.2l-8.9,1.9-7.6-2.8V800.6c3.2-1.9,4.9-3.9,4.9-5.9v-6.6h0c0-1.4-.9-2.8-2.6-4.2l-2.3-1.5V710.6c3.1-1.9,4.8-3.9,4.8-5.9v-6.6h0c0-1.4-.9-2.8-2.6-4.2a16.4,16.4,0,0,0-2.2-1.4v-.1c.1-1.7-.7-3.3-2.8-4.9-3.7-2.9-11-5.3-20.5-7.1L913,450.7l-24.1-8.8-29.1,6L857.3,677c-7,.2-14.2.5-21.3,1.2-34.6,3-57.2,10.6-56.9,18.1v1.3c-3.2,2-5,4-4.9,6h0v6.6c0,1.5.9,2.9,2.6,4.2l2.4,1.5v50.6l-5.9-2.1-73.8,15.5v9.7l18.6,6.8a4.6,4.6,0,0,0-.6,2.2v1.3c-3.3,2-5,4-5,6h0v6.6c0,1.5.8,2.9,2.6,4.2a9.7,9.7,0,0,0,2.4,1.5V890c-3.2,1.9-4.9,3.9-4.9,5.9h0v6.6c0,1.5.8,2.9,2.6,4.2l2.3,1.5V920c-3.2,1.9-4.9,4-4.9,6h0v6.6c0,1.5.8,2.9,2.6,4.2l2.2,1.5v32.9l-25.7,5.4.4-218.3-18.4-6.7L599.6,767l-.3,132.7-49.1-26.8-42,6-30.3-16.5-32.2,4.5V789.3l-51-27.8L272.1,778.8l.3-154.5-51.1-27.7-15.5,2.1v-38c3.2-1.9,4.9-3.9,4.9-5.9v-6.6h0c0-1.5-.8-2.9-2.6-4.2a15.3,15.3,0,0,0-2.3-1.5V530.7c3.2-1.9,4.9-3.9,4.9-5.9v-6.6h0c0-1.4-.8-2.9-2.6-4.2l-2.2-1.5V440.7c3.1-2,4.8-3.9,4.8-5.9v-6.6h0c0-1.4-.8-2.9-2.6-4.2a11,11,0,0,0-2.1-1.4v-.5c0,.1-.1.2-.1.4.2-1.7-.7-3.3-2.7-4.9-11.3-8.8-53.8-12.9-95-9.3-34.6,3-57.3,10.6-56.9,18.1v1.3c-3.3,2-5,4-5,6h0v6.6c0,1.4.8,2.8,2.6,4.2l2.4,1.5v71.8c-3.2,1.9-4.9,3.9-4.9,5.9h0v6.6c0,1.4.8,2.8,2.6,4.2a15.3,15.3,0,0,0,2.3,1.5v11.8c-3.2,1.9-4.9,3.9-4.9,5.9h0v6.6c0,1.4.8,2.8,2.6,4.2a11.8,11.8,0,0,0,2.2,1.4v54.6l-21.2,2.9V924.2l1.7.9-1.7.2v125.3H599.1v.3l338.5-1h113.2V514.7ZM51.2,549.8l-.5.7.5-.7Zm0-25.2Zm0-4.8Zm.1-85.1h0Zm0-5a.1.1,0,0,0-.1.1c0-.1.1-.1.1-.2Zm.2-2.2v0Zm.6,1.2ZM717.2,922l-.4.7.4-.7Zm0-25.2Zm0-4.8Zm.1-85.1h0Zm0-5a.1.1,0,0,0-.1.1.1.1,0,0,1,.1-.1Zm.2-2.1v0Zm.6,1.1Zm61-96.3a.1.1,0,0,0-.1-.1.1.1,0,0,1,.1.1Zm0-5a.1.1,0,0,1-.1.1Zm.3-2.1a.4.4,0,0,1-.1-.3c0,.1.1.2.1.3Zm.6,1.1Z"/><path class="cls-2" d="M291.7,562.3l15.7-3.3c16.7-27.8,23.5-57.2,20.5-87.2-2.3-23.2-9.7-40.2-16.9-56.7s-12.9-29.9-14.2-48.4c-1.6-24,5.8-47.3,22-69L312,285.5l-15.8,3.3c-18.1,24.3-26.2,51.1-24.3,79.6,1.5,22.8,9,39.9,16.2,56.5s13,30.1,14.9,49.4c2.6,25.8-3.6,51.5-18.6,76.6l7.3,11.4"/><path class="cls-2" d="M145.1,349.3l15.8-3.3c16.6-27.8,23.5-57.1,20.4-87.2-2.3-23.2-9.7-40.2-16.8-56.7s-13-29.9-14.2-48.4c-1.7-24,5.7-47.3,21.9-69l-6.8-12.2-15.7,3.3c-18.1,24.3-26.3,51.1-24.4,79.6,1.6,22.8,9,39.9,16.2,56.5s13,30.1,15,49.4c2.6,25.8-3.7,51.6-18.7,76.6l7.3,11.4"/><path class="cls-2" d="M816,270.4c6.7,15.4,13.1,30,15,49.4,2.6,25.7-3.6,51.5-18.6,76.6l7.3,11.3,15.7-3.2c16.6-27.9,23.5-57.2,20.5-87.3-2.4-23.1-9.7-40.2-16.9-56.6s-12.9-29.9-14.2-48.4c-1.6-24.1,5.8-47.3,21.9-69.1L840,131l-15.8,3.2c-18.1,24.4-26.3,51.2-24.3,79.7C801.4,236.6,808.9,253.8,816,270.4Z"/><path class="cls-2" d="M968.7,172.3c6.7,15.4,13,30,15,49.4,2.6,25.7-3.7,51.5-18.7,76.6l7.3,11.3h0l15.8-3.2c16.6-27.9,23.5-57.2,20.5-87.3-2.4-23.1-9.8-40.2-16.9-56.6s-13-29.9-14.2-48.4C975.9,90,983.2,66.8,999.4,45l-6.8-12.1-15.7,3.2c-18.1,24.4-26.3,51.2-24.4,79.7C954.1,138.5,961.5,155.7,968.7,172.3Z"/></g><g id="Guide_copy" data-name="Guide copy"><path class="cls-1" d="M0,0V1079.8H1080V0ZM1065.5,1065.5H14.5V14.5h1051Z"/></g></svg>