<svg xmlns="http://www.w3.org/2000/svg" viewBox="0 0 910.9 834.5"><defs><style>.cls-1{fill:#5f1023;}.cls-2{fill:#fdf3f8;}.cls-3{fill:none;}</style></defs><title>pinchpym_logo_hero</title><g id="PLANET_FIN" data-name="PLANET FIN"><path class="cls-1" d="M492.6,238.5l.6,4.9a29.3,29.3,0,0,1-4.7,1.2l-4.7.7a110.5,110.5,0,0,1-11.8.2c-20.6-.8-45.4-7.3-70-18.6s-45.7-25.7-59.7-40.8q-2.9-3-5.1-5.7c-1.1-1.3-2.1-2.5-3-3.8s-2-2.6-2.8-3.8l3.9-2.8,1.4-.9,2.6-1.7a87.6,87.6,0,0,1,11.3-6,101.1,101.1,0,0,1,21-6.8,95.2,95.2,0,0,1,20.1-2.2h2.4a103.2,103.2,0,0,1,27.4,4.3,101,101,0,0,1,46.3,29.4c1.2,1.3,2.3,2.7,3.4,4h0c2.2,2.7,4.1,5.4,6,8.2l1.6,2.5.4.7,2.5,4.4a94,94,0,0,1,7.7,18.8,89.3,89.3,0,0,1,2.3,8.9l.6,3.4Z" transform="translate(-94.5 -122.7)"/><path class="cls-1" d="M485,294.9h10.4c16.6-.9,24.5-5.2,28.8-14.6V280c.5-1.1.9-2.3,1.3-3.4a26.6,26.6,0,0,0,1-3.8,33.4,33.4,0,0,0-.6-16.5,50.4,50.4,0,0,0-2.4-6.8,40,40,0,0,0-2-4.2h0l.3-.6.4-.8c.1-.2.1-.4.2-.6l.2-.4h.1l1-2.8.6-2.5c.2-1.1.4-2.1.5-3.2,8.3,10.4,13.6,20.5,15.8,29.8l.6,2.5c.2,1.3.4,2.6.5,3.8a49.5,49.5,0,0,1,.1,5.4c-.1,1.2-.2,2.4-.4,3.5h0a28.9,28.9,0,0,1-2.5,8.2,29.3,29.3,0,0,1-2.3,4.3,34.6,34.6,0,0,1-2.2,3.1l-2.5,2.7a37.1,37.1,0,0,1-2.9,2.7h0c-9.9,8.4-25.1,14-43.9,14.4H473.4c1.1-1.5,2.2-3.1,3.2-4.7h.1c1-1.4,1.9-3,2.9-4.6l.7-1.1c0-.1.1-.2.2-.4h0l2.3-4.3C483.6,298.1,484.3,296.5,485,294.9Z" transform="translate(-94.5 -122.7)"/><path class="cls-1" d="M512.1,215.2l.5,1.1a46.5,46.5,0,0,1,2.1,6.3,27.3,27.3,0,0,1,.7,10.9l-.3,2c-.1.5-.3,1-.4,1.5a15.9,15.9,0,0,1-.7,2l-.5,1.1a18.6,18.6,0,0,1-1,2,4.3,4.3,0,0,0-.4.7,19.5,19.5,0,0,1-1.7,2.3,23.8,23.8,0,0,1-4.1,4.3,21.1,21.1,0,0,1-2.3,1.9l-.7.4h0a13.7,13.7,0,0,1-2,1.3l-1.6.9-1.2.6-1.8.9-3,1.2v-5.1c0-1.1-.1-2.1-.2-3.2a10.9,10.9,0,0,0-.1-1.8v-.8c-.1-.7-.1-1.5-.2-2.3l1.4-.6,1.5-.7,1.3-.9.3-.2a5.2,5.2,0,0,0,1.1-1,14,14,0,0,0,3-3.8h0a10.9,10.9,0,0,0,.8-1.5h0a14.5,14.5,0,0,0,1.1-2.9l.2-.4a28.6,28.6,0,0,0,.7-2.8c0-.3.1-.6.1-.8a28.3,28.3,0,0,0,.2-2.9v-1.3a29.3,29.3,0,0,0-3.7-13.5,48.4,48.4,0,0,0-5.1-8l-1.3-1.8c-2.5-3-5.1-6-8.1-9h0a96.5,96.5,0,0,0-8.7-7.9h0a137.2,137.2,0,0,0-16.9-12,110.4,110.4,0,0,0-20-13.3l1.4-2.7,8.4,4.3h.1c18.9,10.3,35.2,22.4,46.8,35a84,84,0,0,1,10.7,13.7A64.3,64.3,0,0,1,512.1,215.2Z" transform="translate(-94.5 -122.7)"/><path class="cls-1" d="M490.1,341.7c27.5,0,41.9-7.8,45.2-17.9A41,41,0,0,0,539,304a22.6,22.6,0,0,0,2.9-3.2c.7-.9,1.5-1.9,2.2-3l.5-.7a45.2,45.2,0,0,0,3-5.5h.1a23.9,23.9,0,0,0,1.5-3.7c8.5,16.7,10,32,4.1,44.9-8.8,19.1-35.1,29.4-69.9,29.4h-6.5a227.7,227.7,0,0,1-39.8-5.2h0l-8.3-2-1.6-.4-3.8-1-5.5-1.5,2.8-.8,2.3-.7,3.2-1.1h0c2.4-.8,4.9-1.8,7.2-2.8l4-1.9h0l4.2-2.2,2.2-1.3,5.8-3.7h0l4.1.8,2.4.4,1.7.3,4.8.6a191.2,191.2,0,0,0,22,2Z" transform="translate(-94.5 -122.7)"/><path class="cls-2" d="M346.7,152.7c3.1-1.4,6.2-2.6,9.4-3.7h-3a32.3,32.3,0,0,0-7.4,1.5q-5.6,1.8-8.1,5.4l-.5.7-.3.4-.4.9h-.1v.2A93.5,93.5,0,0,1,346.7,152.7Zm142.7,72a94,94,0,0,0-7.7-18.8l-2.5-4.4-.4-.7-1.6-2.5c-1.9-2.8-3.8-5.5-6-8.2h0c-1.1-1.3-2.2-2.7-3.4-4a101,101,0,0,0-46.3-29.4,103.2,103.2,0,0,0-27.4-4.3h-2.4a95.2,95.2,0,0,0-20.1,2.2,101.1,101.1,0,0,0-21,6.8,87.6,87.6,0,0,0-11.3,6l-2.6,1.7-1.4.9-3.9,2.8-.8-1.4-.7-1.1c-.4-.6-.6-1.1-.9-1.6a1.7,1.7,0,0,1-.2-.5l-.3-.7a18.1,18.1,0,0,1-1.3-3.4,15.4,15.4,0,0,1-.5-7.3v-.4a10.9,10.9,0,0,1,.9-2.3h0l.3-.6a18.6,18.6,0,0,1,1.3-2.3l.5-.6a26.6,26.6,0,0,1,3.6-4h.1a27.3,27.3,0,0,1,9.3-5,42,42,0,0,1,9.5-1.9l4.9-.2h3.6c3.4.2,6.8.3,10.1.6a150,150,0,0,1,21.9,2.9h0a145.5,145.5,0,0,1,17.6,4.7l1.6.6a104.7,104.7,0,0,1,49.1,23.1,137.2,137.2,0,0,1,16.9,12h0a96.5,96.5,0,0,1,8.7,7.9h0c3,3,5.6,6,8.1,9l1.3,1.8a48.4,48.4,0,0,1,5.1,8,29.3,29.3,0,0,1,3.7,13.5v1.3a28.3,28.3,0,0,1-.2,2.9c0,.2-.1.5-.1.8a28.6,28.6,0,0,1-.7,2.8l-.2.4a14.5,14.5,0,0,1-1.1,2.9h0a10.9,10.9,0,0,1-.8,1.5h0a14,14,0,0,1-3,3.8,5.2,5.2,0,0,1-1.1,1l-.3.2-1.3.9-1.5.7-1.4.6-.6-4.9-.3-1.5-.6-3.4A89.3,89.3,0,0,0,489.4,224.7Zm10.6,2.4a20,20,0,0,0,.2-3.4,15,15,0,0,0-.3-2.9,26.8,26.8,0,0,0-2.9-8.5,47.7,47.7,0,0,0-4.7-7.4,13.4,13.4,0,0,0-1.1-1.4,108.7,108.7,0,0,1,6.4,15.4c.4,1,.7,2,1,3S499.5,225.3,500,227.1Z" transform="translate(-94.5 -122.7)"/><path class="cls-2" d="M472,245.5a110.5,110.5,0,0,0,11.8-.2l4.7-.7a29.3,29.3,0,0,0,4.7-1.2c.1.8.1,1.6.2,2.3v.8a10.9,10.9,0,0,1,.1,1.8c.1,1.1.2,2.1.2,3.2v5.1a39.7,39.7,0,0,1-4.9,1.5l-4.8,1.1a75.9,75.9,0,0,1-12.1,1H468c-21.7-.8-47.8-7.7-73.5-19.4s-47.9-27-62.7-42.9a64.2,64.2,0,0,1-6-7.3c-1-1.3-1.9-2.6-2.8-4s-1.7-2.8-2.5-4.2l3.6-3.4,3.6-3.1a.1.1,0,0,1,.1-.1l1.7-1.4,1.9-1.5c.8,1.2,1.8,2.5,2.8,3.8s1.9,2.5,3,3.8,3.2,3.7,5.1,5.7c14,15.1,35.2,29.6,59.7,40.8S451.4,244.7,472,245.5Z" transform="translate(-94.5 -122.7)"/><path class="cls-1" d="M328.5,167.5l.3.7a1.7,1.7,0,0,0,.2.5c.3.5.5,1,.9,1.6l.7,1.1.8,1.4-1.9,1.5-1.7,1.4a.1.1,0,0,0-.1.1l-3.6,3.1-3.6,3.4c-.5-1-1-1.8-1.4-2.8s-.5-1.2-.8-1.7-.3-.9-.5-1.3l-1.2-3.3c0-.1-.1-.2-.1-.4a27.6,27.6,0,0,1-.8-2.7l-.6-3a45.6,45.6,0,0,1-.5-6.2,19.8,19.8,0,0,1,.3-3.5,5.8,5.8,0,0,1,.3-1.9,5.1,5.1,0,0,1,.2-1.3l.5-1.7.3-.8.3-.7a3.6,3.6,0,0,1,.4-.9l.2-.5a23.7,23.7,0,0,1,7.5-8.9,33.7,33.7,0,0,1,4.9-3l2-.9h0c1.6-.6,3.2-1.2,5-1.7a74.1,74.1,0,0,1,21.1-2.7h3.9c20.5.8,44.8,6.9,69,17.4h.3l4.3,1.9c2.5,1.1,4.9,2.3,7.4,3.6l-1.4,2.7a109.7,109.7,0,0,0-29.1-9.8l-1.6-.6a145.5,145.5,0,0,0-17.6-4.7h0a150,150,0,0,0-21.9-2.9c-3.3-.3-6.7-.4-10.1-.6h-3.6l-4.9.2a42,42,0,0,0-9.5,1.9,27.3,27.3,0,0,0-9.3,5h-.1a26.6,26.6,0,0,0-3.6,4l-.5.6a18.6,18.6,0,0,0-1.3,2.3l-.3.6h0a10.9,10.9,0,0,0-.9,2.3v.4a15.4,15.4,0,0,0,.5,7.3A18.1,18.1,0,0,0,328.5,167.5Z" transform="translate(-94.5 -122.7)"/><path class="cls-1" d="M471.9,260.2a75.9,75.9,0,0,0,12.1-1l4.8-1.1a39.7,39.7,0,0,0,4.9-1.5l-.3,5.2a46,46,0,0,1-.6,5.2,100.4,100.4,0,0,1-4.1,18.4l-1.7,4.8c-.6,1.6-1.3,3.1-2,4.7h-5.1l-5.1-.3c-26.4-2.2-57.2-10.9-87.6-24.8-32-14.6-59.8-33.3-78.8-52.9l-2.6-2.7h-.1l-.9-1c-1.2-1.3-2.4-2.6-3.4-3.9.7-1.5,1.5-3,2.3-4.5s1.7-2.9,2.6-4.3a86.9,86.9,0,0,1,7.5-10.5,39,39,0,0,1,3.3-3.8c1.1-1.3,2.2-2.5,3.4-3.7.8,1.4,1.6,2.8,2.5,4.2s1.8,2.7,2.8,4a64.2,64.2,0,0,0,6,7.3c14.8,15.9,37,31.2,62.7,42.9s51.8,18.6,73.5,19.4Z" transform="translate(-94.5 -122.7)"/><path class="cls-1" d="M407.8,353.9a93.8,93.8,0,0,1-13.1,1.2h-2.3a101.2,101.2,0,0,1-79-37.8,95.9,95.9,0,0,1-6.9-9.8,86.8,86.8,0,0,1-4.8-8.4l7.5,4.6.2.2,7.6,4.3h0c13.2,7.5,27.3,14.6,41.8,21.2,6,2.8,12.1,5.5,18.1,7.9h0c8.1,3.4,16.1,6.4,23.9,9.1h.1c2.8,1,5.5,1.9,8.3,2.7h0q4.4,1.5,8.7,2.7c-3.3.8-6.7,1.5-10.1,2Z" transform="translate(-94.5 -122.7)"/><path class="cls-2" d="M482.4,294.8H485c-.7,1.6-1.4,3.2-2.2,4.7l-2.3,4.3h0c-.1.2-.2.3-.2.4l-.7,1.1c-1,1.6-1.9,3.2-2.9,4.6h-.1c-1,1.6-2.1,3.2-3.2,4.7l-5.6-.5-5.6-.5c-26.3-3.1-56-11.9-85.3-25.3s-55.9-30.5-75.5-48.6l-3.1-2.9-.9-.9-4-4a49.2,49.2,0,0,1,1.4-5.5c.4-1.8,1-3.5,1.5-5.2l.9-2.5.6-1.5c.4-1.1.9-2.3,1.4-3.4s1.4-3.2,2.2-4.8c1,1.3,2.2,2.6,3.4,3.9l.9,1h.1l2.6,2.7c19,19.6,46.8,38.3,78.8,52.9,30.4,13.9,61.2,22.6,87.6,24.8l5.1.3h2.5Z" transform="translate(-94.5 -122.7)"/><path class="cls-1" d="M298.3,236.9l3.1,2.9c19.6,18.1,45.9,35,75.5,48.6s59,22.2,85.3,25.3l5.6.5,5.6.5-3.7,4.5a43.8,43.8,0,0,1-4.1,4.5,78,78,0,0,1-5.8,5.7h-.1a61.2,61.2,0,0,1-4.9,4,50.3,50.3,0,0,1-5.2,3.9h0l-2.8-.6L443,336c-2.3-.4-4.6-1-6.9-1.5a364.3,364.3,0,0,1-48-15.4l-.5-.2c-6.2-2.5-12.4-5.1-18.6-8-23.9-10.9-46.7-23-66-36.2h0c-1.3-.8-2.5-1.7-3.6-2.5h0l-2.1-1.5-2.5-1.8h-.1l-2.9-2.1h0c-.3-2.2-.4-4.3-.6-6.5s-.2-4.2-.2-6.3h0c0-3.4.2-6.7.5-10s.5-4,.8-6.1.7-3.8,1.1-5.7l4,4Z" transform="translate(-94.5 -122.7)"/><path class="cls-2" d="M292.9,273.4c-.4-2-.7-4-1-6v-.7l2.9,2.1h.1l2.5,1.8,2.1,1.5h0c1.1.8,2.3,1.7,3.6,2.5h0c19.3,13.2,42.1,25.3,66,36.2,6.2,2.9,12.4,5.5,18.6,8l.5.2a364.3,364.3,0,0,0,48,15.4c2.3.5,4.6,1.1,6.9,1.5l3.8.8,2.8.6-5.8,3.7-2.2,1.3-4.2,2.2h0l-4,1.9c-2.3,1-4.8,2-7.2,2.8h0l-3.2,1.1-2.3.7-2.8.8q-4.3-1.2-8.7-2.7h0c-2.8-.8-5.5-1.7-8.3-2.7h-.1c-7.8-2.7-15.8-5.7-23.9-9.1h0c-6-2.4-12.1-5.1-18.1-7.9-14.5-6.6-28.6-13.7-41.8-21.2h0l-7.6-4.3-.2-.2-7.5-4.6a77.5,77.5,0,0,1-3.5-7.8h0a76.3,76.3,0,0,1-2.6-7.2c-.3-1.1-.7-2.3-1-3.5S293.4,275.8,292.9,273.4Z" transform="translate(-94.5 -122.7)"/><path class="cls-1" d="M291.9,267.4c.3,2,.6,4,1,6s1.1,4.8,1.7,7.1.7,2.4,1,3.5a76.3,76.3,0,0,0,2.6,7.2h0a77.5,77.5,0,0,0,3.5,7.8l-4.7-3-3.2-2.1-1.4-.9-6.7-4.7a221.2,221.2,0,0,1-32.8-28.2c-26-28.1-34-55.9-24.7-76.2,5.8-12.7,18.1-21.5,35.9-26a28.5,28.5,0,0,0-1.6,3,47.3,47.3,0,0,0-2.4,6.7h0a35.8,35.8,0,0,0-.9,4.5c-.2,1.1-.3,2.2-.4,3.4a35.2,35.2,0,0,0-9.7,9.5h0a31.2,31.2,0,0,0-3,5.3q-9.6,20.9,21.7,54.7v.2h.2a166.8,166.8,0,0,0,13.5,12.9l3.7,3.1,1.3,1.1,1.9,1.5,3.3,2.6h0Z" transform="translate(-94.5 -122.7)"/><path class="cls-1" d="M287.4,148.6c6.3-3.4,14.2-5.7,23.3-6.9a24.3,24.3,0,0,0-2,3.5c-.1.1-.1.2-.2.2v.3l-.2.5a9.4,9.4,0,0,0-.6,1.5l-.3.7-.2.5-.2.5v.4l-.6,2.2a13,13,0,0,0-.3,1.3v.2l-2.9,1.1a30.4,30.4,0,0,0-5.1,2.6h-.1a30.6,30.6,0,0,0-9.6,9.3,33.7,33.7,0,0,0-1.9,3.2l-.3.7a11.7,11.7,0,0,0-.9,2.4c-2.4,8.1,1.2,17.1,9.8,28.3l2.3,3,.9,1.1h0l1.2,1.5,2.2,2.4c-.8,1.6-1.5,3.2-2.2,4.8s-1,2.3-1.4,3.4l-.6,1.5-.9,2.5c-.5,1.7-1.1,3.4-1.5,5.2a49.2,49.2,0,0,0-1.4,5.5l-1.9-2.1-.6-.6-1.4-1.6-1-1.1-2.9-3.5c-11.4-14.4-17.2-29.2-17.5-41.9,0-1.3,0-2.7.1-4s.2-2.3.4-3.4.4-2.4.7-3.5a30.3,30.3,0,0,1,1.9-5.3l.2-.4a28.4,28.4,0,0,1,6.6-9.1,27.1,27.1,0,0,1,4-3.5l3.2-2.1Z" transform="translate(-94.5 -122.7)"/><path class="cls-2" d="M517.3,270.7a25.4,25.4,0,0,0-.4-11.9c-.5-1.5-1-3.1-1.7-4.7a21.6,21.6,0,0,1-2.7,2.5,26,26,0,0,1-2.8,2.3h-.2c-1,.8-2.2,1.5-3.2,2.2l-2.1,1.1-1.3.7a116.9,116.9,0,0,1-4.1,22c11.9-1.2,14.8-4.7,16.6-8.5h0l.2-.4a18.4,18.4,0,0,0,.9-2.5A17.1,17.1,0,0,0,517.3,270.7ZM275.1,239c2.1,2.3,4.3,4.5,6.7,6.8a98.3,98.3,0,0,1,1.3-10.9l-1-1.2-.7-.8h-.2c-12.5-14.6-20.1-30.2-22.1-44.9a26.2,26.2,0,0,0-4.4,6.6C249,207,262.6,225.6,275.1,239Zm25-46.7a118.3,118.3,0,0,1,9-11.8c0-.2-.1-.3-.1-.5s-1-2.4-1.5-3.9l-.9-3.2v-.4h0v-.2c-.2-1.2-.5-2.4-.7-3.6s-.4-3.1-.5-4.6a21.5,21.5,0,0,0-9.2,7.8,8.4,8.4,0,0,0-1.1,1.9v.5l-.3.4a9.4,9.4,0,0,0-.3.9C293,179.4,294.9,184.9,300.1,192.3Zm190,139.8c22.4,0,34.3-5.7,36.1-11.3l.2-.5.2-.5a30.2,30.2,0,0,0,2.5-7.7c-12.3,8-28.7,12.3-46.7,12.3h-4.6c-1.9,2.3-3.9,4.6-6,6.7,4.5.5,8.9.8,13.1.9ZM228.2,184c-9.3,20.3-1.3,48.1,24.7,76.2a221.2,221.2,0,0,0,32.8,28.2l6.7,4.7,1.4.9,3.2,2.1,4.7,3a86.8,86.8,0,0,0,4.8,8.4,95.9,95.9,0,0,0,6.9,9.8,101.2,101.2,0,0,0,79,37.8h2.3a93.8,93.8,0,0,0,13.1-1.2h0c3.4-.5,6.8-1.2,10.1-2l5.5,1.5,3.8,1,1.6.4,8.3,2h0a227.7,227.7,0,0,0,39.8,5.2h6.5c34.8,0,61.1-10.3,69.9-29.4,5.9-12.9,4.4-28.2-4.1-44.9a23.9,23.9,0,0,1-1.5,3.7h-.1a45.2,45.2,0,0,1-3,5.5l-.5.7c-.7,1.1-1.5,2.1-2.2,3A22.6,22.6,0,0,1,539,304a41,41,0,0,1-3.7,19.8c-3.3,10.1-17.7,17.9-45.2,17.9l-5.5-.2a191.2,191.2,0,0,1-22-2l-4.8-.6-1.7-.3-2.4-.4-4.1-.8a50.3,50.3,0,0,0,5.2-3.9,61.2,61.2,0,0,0,4.9-4h.1a78,78,0,0,0,5.8-5.7,43.8,43.8,0,0,0,4.1-4.5l3.7-4.5h11.8c18.8-.4,34-6,43.9-14.4h0a37.1,37.1,0,0,0,2.9-2.7l2.5-2.7a34.6,34.6,0,0,0,2.2-3.1,29.3,29.3,0,0,0,2.3-4.3,28.9,28.9,0,0,0,2.5-8.2h0c.2-1.1.3-2.3.4-3.5a49.5,49.5,0,0,0-.1-5.4c-.1-1.2-.3-2.5-.5-3.8l-.6-2.5c-2.2-9.3-7.5-19.4-15.8-29.8-.1,1.1-.3,2.1-.5,3.2l-.6,2.5-1,2.8h-.1l-.2.4c-.1.2-.1.4-.2.6l-.4.8-.3.6h0a40,40,0,0,1,2,4.2,50.4,50.4,0,0,1,2.4,6.8,33.4,33.4,0,0,1,.6,16.5,26.6,26.6,0,0,1-1,3.8c-.4,1.1-.8,2.3-1.3,3.4v.2c-4.3,9.4-12.2,13.7-28.8,14.6H485c.7-1.6,1.4-3.1,2-4.7l1.7-4.8a100.4,100.4,0,0,0,4.1-18.4,46,46,0,0,0,.6-5.2l.3-5.2,3-1.2,1.8-.9,1.2-.6,1.6-.9a13.7,13.7,0,0,0,2-1.3h0l.7-.4a21.1,21.1,0,0,0,2.3-1.9,23.8,23.8,0,0,0,4.1-4.3,19.5,19.5,0,0,0,1.7-2.3,4.3,4.3,0,0,1,.4-.7,18.6,18.6,0,0,0,1-2l.5-1.1a15.9,15.9,0,0,0,.7-2c.1-.5.3-1,.4-1.5l.3-2a27.3,27.3,0,0,0-.7-10.9,46.5,46.5,0,0,0-2.1-6.3l-.5-1.1a64.3,64.3,0,0,0-3.6-6.8,84,84,0,0,0-10.7-13.7c-11.6-12.6-27.9-24.7-46.8-35h-.1l-8.4-4.3c-2.5-1.3-4.9-2.5-7.4-3.6l-4.3-1.9h-.3c-24.2-10.5-48.5-16.6-69-17.4h-3.9a74.1,74.1,0,0,0-21.1,2.7c-1.8.5-3.4,1.1-5,1.7h0l-2,.9a33.7,33.7,0,0,0-4.9,3,23.7,23.7,0,0,0-7.5,8.9l-.2.5a3.6,3.6,0,0,0-.4.9l-.3.7-.3.8-.5,1.7a5.1,5.1,0,0,0-.2,1.3,5.8,5.8,0,0,0-.3,1.9,19.8,19.8,0,0,0-.3,3.5,45.6,45.6,0,0,0,.5,6.2l.6,3a27.6,27.6,0,0,0,.8,2.7c0,.2.1.3.1.4l1.2,3.3c.2.4.3.8.5,1.3s.5,1.1.8,1.7.9,1.8,1.4,2.8c-1.2,1.2-2.3,2.4-3.4,3.7a39,39,0,0,0-3.3,3.8,86.9,86.9,0,0,0-7.5,10.5c-.9,1.4-1.8,2.8-2.6,4.3s-1.6,3-2.3,4.5l-2.2-2.4-1.2-1.5h0l-.9-1.1-2.3-3c-8.6-11.2-12.2-20.2-9.8-28.3a11.7,11.7,0,0,1,.9-2.4l.3-.7a33.7,33.7,0,0,1,1.9-3.2,30.6,30.6,0,0,1,9.6-9.3h.1a30.4,30.4,0,0,1,5.1-2.6l2.9-1.1v-.2a13,13,0,0,1,.3-1.3l.6-2.2v-.4l.2-.5.2-.5.3-.7a9.4,9.4,0,0,1,.6-1.5l.2-.5v-.3c.1,0,.1-.1.2-.2a24.3,24.3,0,0,1,2-3.5c-9.1,1.2-17,3.5-23.3,6.9l-2.2,1.3L282,152a27.1,27.1,0,0,0-4,3.5,28.4,28.4,0,0,0-6.6,9.1l-.2.4a30.3,30.3,0,0,0-1.9,5.3c-.3,1.1-.5,2.3-.7,3.5s-.3,2.2-.4,3.4-.1,2.7-.1,4c.3,12.7,6.1,27.5,17.5,41.9l2.9,3.5,1,1.1,1.4,1.6.6.6,1.9,2.1c-.4,1.9-.8,3.8-1.1,5.7s-.6,4.1-.8,6.1-.5,6.6-.5,10h0c0,2.1.1,4.2.2,6.3s.3,4.3.6,6.5l-3.3-2.6-1.9-1.5-1.3-1.1-3.7-3.1a166.8,166.8,0,0,1-13.5-12.9h-.2v-.2q-31.4-33.9-21.7-54.7a31.2,31.2,0,0,1,3-5.3h0a35.2,35.2,0,0,1,9.7-9.5c.1-1.2.2-2.3.4-3.4a35.8,35.8,0,0,1,.9-4.5h0a47.3,47.3,0,0,1,2.4-6.7,28.5,28.5,0,0,1,1.6-3C246.3,162.5,234,171.3,228.2,184Zm-8.6-4c7.5-16.5,23.9-27.7,47.4-32.5l7.1-1.4,2.2-1.8a52.9,52.9,0,0,1,6.6-4.1c8.6-4.6,19.2-7.5,31.7-8.6l7.4-.6,3.4-1.9a53.1,53.1,0,0,1,8.3-3.3,86.1,86.1,0,0,1,23.9-3.1h4.3c23,.8,50.4,8,77.1,20.2s50.2,28.3,65.8,45.1a103.2,103.2,0,0,1,11.8,15.3,73.9,73.9,0,0,1,4.8,9.2c.7,1.7,1.2,3.2,1.7,4.6l5.8,6.8c11.1,13,18.2,25.7,21,37.7a61.4,61.4,0,0,1,1.4,7.8,28.1,28.1,0,0,1,.1,2.9l3.6,6.3c12.2,21.2,14.6,41.2,6.9,57.9-10.1,22.3-38.7,35.1-78.5,35.1l-6.8-.2c-15.7-.5-32.6-3.1-50.1-7.4l-5.6-1.5-3.3-.9a106.6,106.6,0,0,1-25.2,3,110.3,110.3,0,0,1-97.9-58.9h0c-.8-.4-1.4-.9-2.2-1.4l-.4-.3-4.1-2.6-.8-.6c-16.5-11.1-30.3-22.7-41-34.2C217.9,236.4,208.2,204.8,219.6,180Z" transform="translate(-94.5 -122.7)"/></g><g id="LOGO_copy_4" data-name="LOGO copy 4"><polygon class="cls-1" points="91.5 582.3 47.1 624.9 0 624.9 0 328.1 26.1 267.9 26.1 582.3 91.5 582.3"/><path class="cls-3" d="M266.3,618.5l5.2-5.6A55.6,55.6,0,0,1,266.3,618.5Z" transform="translate(-94.5 -122.7)"/><path class="cls-1" d="M548.6,786.6h0l-35.8,35-13.4,13.2h-.2c-17.7,13.9-41.7,21.3-71.9,22.4V817.7H432l18.8.2h4.5q40.6,0,68.6-14a97.4,97.4,0,0,0,22.9-15.6Z" transform="translate(-94.5 -122.7)"/><path class="cls-3" d="M512.8,821.6a83.4,83.4,0,0,1-8.1,8.7c-1.7,1.6-3.5,3.1-5.3,4.5Z" transform="translate(-94.5 -122.7)"/><polygon class="cls-1" points="332.8 795.1 287.6 834.5 240.5 834.5 240.5 537.7 266.6 479.3 266.6 795.1 332.8 795.1"/><path class="cls-1" d="M306.3,575.5l-34.8,37.4-5.2,5.6h-.1l-2,2q-27.3,25.2-77.4,27V604.8h4.7c6.1.2,13.8.2,23.3.2h3.6q39.6-.6,66.9-14.9A95.2,95.2,0,0,0,306.3,575.5Z" transform="translate(-94.5 -122.7)"/><path class="cls-2" d="M324.7,432.3a84.8,84.8,0,0,0-40.4-35.5c-16.7-7.2-36.7-10.9-59.5-10.9-13.5,0-26.6.6-38.8,1.7s-23.6,1.5-35.5,1.5H120.6V705h66.2V604.8h4.7c6.1.2,13.8.2,23.3.2h3.6q39.6-.6,66.9-14.9a95.2,95.2,0,0,0,21-14.7c21.4-19.8,32.3-47.6,32.3-82.6C338.6,468.4,333.9,448,324.7,432.3ZM299.8,568.5a75.5,75.5,0,0,1-10,7.9c-15.2,10.4-34.6,16.6-58,18.5-5.4.5-11.1.7-17,.7l-23-.2-14.5-.2V695.5H130.1V398.7h20.4c12.3,0,24.4-.6,36.4-1.6s24.6-1.6,37.9-1.6q32.4,0,55.7,10a75.6,75.6,0,0,1,36,31.6q12.6,21.4,12.6,55.8c0,29.1-7.9,52.3-23.6,69.8A78,78,0,0,1,299.8,568.5Z" transform="translate(-94.5 -122.7)"/><path class="cls-1" d="M316.5,437.1a75.6,75.6,0,0,0-36-31.6q-23.2-10-55.7-10c-13.3,0-26,.5-37.9,1.6s-24.1,1.6-36.4,1.6H130.1V695.5h47.2V595.2l14.5.2,23,.2c5.9,0,11.6-.2,17-.7,23.4-1.9,42.8-8.1,58-18.5a75.5,75.5,0,0,0,10-7.9,78,78,0,0,0,5.7-5.8c15.7-17.5,23.6-40.7,23.6-69.8Q329.1,458.6,316.5,437.1Zm-33.8,55.8c0,19-3.3,33.3-9.9,43.1a48.3,48.3,0,0,1-26,19.9h-.1a111.6,111.6,0,0,1-34.7,5.3c-5.3,0-10.9-.2-16.8-.5s-11.9-.8-17.9-1.5V432.6A130.2,130.2,0,0,1,194,430c6.1-.5,11.9-.8,17.6-1h4.9c20.7,0,36.6,4.8,47.9,14.4s18.3,26.7,18.3,49.3Z" transform="translate(-94.5 -122.7)"/><path class="cls-2" d="M264.4,443.3c-11.3-9.6-27.2-14.4-47.9-14.4h-4.9c-5.7.2-11.5.5-17.6,1a130.2,130.2,0,0,0-16.7,2.6V559.3c6,.7,11.9,1.3,17.9,1.5s11.5.5,16.8.5a111.6,111.6,0,0,0,34.7-5.3h.1a48.3,48.3,0,0,0,26-19.9c6.6-9.8,9.9-24.1,9.9-43.1v-.3Q282.7,458.7,264.4,443.3ZM243.8,546.9a102.3,102.3,0,0,1-31.8,4.8c-5.1,0-10.6-.1-16.4-.4l-8.8-.6V440.5l8.1-1c5.8-.5,11.5-.8,16.9-.9h4.7c18.2,0,32.3,4.1,41.8,12.1,6.9,5.9,11.5,14.7,13.6,26.2a100,100,0,0,1,1.3,16.1c0,16.9-2.8,29.6-8.3,37.8a40.2,40.2,0,0,1-17.8,15Z" transform="translate(-94.5 -122.7)"/><path class="cls-1" d="M273.2,492.9c0,16.9-2.8,29.6-8.3,37.8a40.2,40.2,0,0,1-17.8,15l-3.3,1.2a102.3,102.3,0,0,1-31.8,4.8c-5.1,0-10.6-.1-16.4-.4l-8.8-.6V440.5l8.1-1c5.8-.5,11.5-.8,16.9-.9h4.7c18.2,0,32.3,4.1,41.8,12.1,6.9,5.9,11.5,14.7,13.6,26.2A100,100,0,0,1,273.2,492.9Z" transform="translate(-94.5 -122.7)"/><path class="cls-2" d="M353.2,389.2V568.9h52.2V389.2Zm42.7,170.1H362.7V398.8h33.2Z" transform="translate(-94.5 -122.7)"/><rect class="cls-1" x="268.2" y="276" width="33.2" height="160.6"/><path class="cls-1" d="M580.5,459V559.3H547V460.7c0-13.5-1.8-23.1-5.5-29s-9.8-7.9-19.8-7.9h-3.6a53.9,53.9,0,0,0-11.6,1.8,78.3,78.3,0,0,0-13.5,4.8,70.7,70.7,0,0,0-13.1,7.8v121H446.7V398.8h29.9l.2,17a125,125,0,0,1,14.9-8.5,121.8,121.8,0,0,1,19.5-7.7,80.9,80.9,0,0,1,20.9-3.5h2.5c15.9,0,27.5,4.5,34.6,13.4S580.5,435.4,580.5,459Z" transform="translate(-94.5 -122.7)"/><path class="cls-2" d="M576.7,403.5c-9.1-11.2-23.2-16.9-42.1-16.9h-2.8a87.5,87.5,0,0,0-23.4,3.9,144.2,144.2,0,0,0-20.9,8.2l-1.3.7V389.2H437.2V568.9h52.3V443.3a55.2,55.2,0,0,1,7.5-4.2,76.2,76.2,0,0,1,11.8-4.2,49.2,49.2,0,0,1,9.6-1.5h3.3c6.1,0,10.4,1.2,11.7,3.4s4,8.8,4,24V568.9H590V459C590,432.9,585.6,414.8,576.7,403.5Zm3.8,155.8H547V460.7c0-13.5-1.8-23.1-5.5-29s-9.8-7.9-19.8-7.9h-3.6a53.9,53.9,0,0,0-11.6,1.8,78.3,78.3,0,0,0-13.5,4.8,70.7,70.7,0,0,0-13.1,7.8v121H446.7V398.8h29.9l.2,17a125,125,0,0,1,14.9-8.5,121.8,121.8,0,0,1,19.5-7.7,80.9,80.9,0,0,1,20.9-3.5h2.5c15.9,0,27.5,4.5,34.6,13.4s11.3,25.9,11.3,49.5Z" transform="translate(-94.5 -122.7)"/><path class="cls-1" d="M736.5,546.4c-5,4.6-11.9,8.3-20.9,11.1a94.4,94.4,0,0,1-28.5,4.2c-15.4,0-28.3-3.6-38.9-10.7A68.8,68.8,0,0,1,624,522c-5.5-12.1-8.3-25.9-8.3-41.2s2.9-30.2,8.7-42.9a69.7,69.7,0,0,1,26-30.3c11.5-7.4,26-11.2,43.3-11.2a104.5,104.5,0,0,1,25.7,2.8c7,1.8,11.8,3.6,14.5,5.3l-5.2,26.3a45.1,45.1,0,0,0-14.6-6.3,88.5,88.5,0,0,0-20.7-2,44.6,44.6,0,0,0-20.9,5.2c-6.8,3.5-12.4,9.1-16.9,16.8s-7.1,17.9-7.5,30.5,1.3,24.5,5.2,33.6,9.3,16,16.2,20.6a40.2,40.2,0,0,0,23.1,7.1,78.2,78.2,0,0,0,22.1-3.1,68.3,68.3,0,0,0,15.4-6.2Z" transform="translate(-94.5 -122.7)"/><path class="cls-2" d="M745.5,543.4,739.2,524l-3.8-11.4-10.3,6.3c-1.9,1.1-5.7,3-13.1,5.2a70,70,0,0,1-19.4,2.6,30.5,30.5,0,0,1-17.7-5.3c-5.4-3.7-9.6-9.1-12.8-16.6s-4.8-17.7-4.5-29.5,2.5-19.6,6.2-25.9,7.9-10.5,13.1-13.2a34,34,0,0,1,16.5-4.2,79.4,79.4,0,0,1,18.4,1.8,34.1,34.1,0,0,1,11.4,4.9l12,8.2,2.8-14.2,5.2-26.3,1.2-6.3-5.3-3.5c-3.5-2.4-9-4.5-17.3-6.7s-17.2-3-28.1-3c-19.1,0-35.4,4.3-48.5,12.7A79.7,79.7,0,0,0,615.7,434c-6.3,13.8-9.5,29.6-9.5,46.8s3.1,31.8,9.1,45.2a78.7,78.7,0,0,0,27.6,32.9c12.1,8.2,27,12.3,44.2,12.3a107.4,107.4,0,0,0,31.4-4.6c10.3-3.2,18.5-7.7,24.5-13.3l4.4-4.2Zm-58.4,18.3c-15.4,0-28.3-3.6-38.9-10.7A68.8,68.8,0,0,1,624,522c-5.5-12.1-8.3-25.9-8.3-41.2s2.9-30.2,8.7-42.9a69.7,69.7,0,0,1,26-30.3c11.5-7.4,26-11.2,43.3-11.2a104.5,104.5,0,0,1,25.7,2.8c7,1.8,11.8,3.6,14.5,5.3l-5.2,26.3a45.1,45.1,0,0,0-14.6-6.3,88.5,88.5,0,0,0-20.7-2,44.6,44.6,0,0,0-20.9,5.2c-6.8,3.5-12.4,9.1-16.9,16.8s-7.1,17.9-7.5,30.5,1.3,24.5,5.2,33.6,9.3,16,16.2,20.6a40.2,40.2,0,0,0,23.1,7.1,78.2,78.2,0,0,0,22.1-3.1,68.3,68.3,0,0,0,15.4-6.2l6.4,19.4c-5,4.6-11.9,8.3-20.9,11.1A94.4,94.4,0,0,1,687.1,561.7Z" transform="translate(-94.5 -122.7)"/><path class="cls-1" d="M904.6,461v98.3H871.4V460.7c0-13.2-2.1-22.7-6.2-28.6s-10.6-8-20.7-8h-3c-5.2.1-11.3,1.3-18.4,3.6A69.1,69.1,0,0,0,803,438.3v121H769.8V324.5H803v66.2l.6,22.1v.3c3.9-3,5-3.3,11-6.2a110.6,110.6,0,0,1,19.3-7.5,82.7,82.7,0,0,1,20.7-3.3h2.3c16.3,0,28.3,4.8,35.9,14.5S904.6,437.5,904.6,461Z" transform="translate(-94.5 -122.7)"/><path class="cls-2" d="M900.1,404.7c-9.4-12-24-18.1-43.3-18.1h-2.6a92.5,92.5,0,0,0-23,3.6,130.9,130.9,0,0,0-18.5,6.9V315H760.3V568.9h52.3V443.3a61.3,61.3,0,0,1,13.4-6.5,57.5,57.5,0,0,1,15.6-3.1h2.9c4.6,0,10.6.7,12.9,4s4.4,9.2,4.4,23.1V568.9h52.3V461C914.1,435.1,909.5,416.7,900.1,404.7Zm4.5,154.6H871.4V460.7c0-13.2-2.1-22.7-6.2-28.6s-10.6-8-20.7-8h-3c-5.2.1-11.3,1.3-18.4,3.6A69.1,69.1,0,0,0,803,438.3v121H769.8V324.5H803v66.2l.6,22.1v.3c3.9-3,5-3.3,11-6.2a110.6,110.6,0,0,1,19.3-7.5,82.7,82.7,0,0,1,20.7-3.3h2.3c16.3,0,28.3,4.8,35.9,14.5s11.9,26.9,11.9,50.4Z" transform="translate(-94.5 -122.7)"/><path class="cls-2" d="M565.2,645.2a84.3,84.3,0,0,0-40.4-35.5c-16.7-7.2-36.7-10.9-59.5-10.9-13.5,0-26.6.5-38.8,1.6S402.9,602,391,602H361.1V917.8h66.2V817.7H432l18.8.2h4.5q40.6,0,68.6-14a97.4,97.4,0,0,0,22.9-15.6l1.8-1.8c20.2-19.7,30.5-46.9,30.5-80.8C579.1,681.3,574.4,660.9,565.2,645.2ZM545.9,775.6a76,76,0,0,1-5.6,5.8,71.5,71.5,0,0,1-11.1,8.6q-23.7,15.8-60.5,18c-4.3.3-8.8.5-13.4.5l-23-.2-14.5-.3V908.3H370.6V611.5h26.3c10.2-.2,20.4-.7,30.4-1.6,12-1,24.7-1.6,38-1.6q32.4,0,55.7,10.1A75.1,75.1,0,0,1,557,650c8.3,14.3,12.6,32.9,12.6,55.8Q569.6,749.3,545.9,775.6Z" transform="translate(-94.5 -122.7)"/><path class="cls-1" d="M557,650a75.1,75.1,0,0,0-36-31.6q-23.2-10-55.7-10.1c-13.3,0-26,.6-38,1.6-10,.9-20.2,1.4-30.4,1.6H370.6V908.3h47.2V808l14.5.3,23,.2c4.6,0,9.1-.2,13.4-.5q36.8-2.2,60.5-18a71.5,71.5,0,0,0,11.1-8.6,76,76,0,0,0,5.6-5.8q23.7-26.2,23.7-69.8C569.6,682.9,565.3,664.3,557,650Zm-43.7,98.8c-6.6,9.8-15.2,16.5-26,20h-.5a109.1,109.1,0,0,1-34.3,5.2c-5.3,0-10.9-.1-16.9-.4s-11.9-.8-17.8-1.6V645.5a114.7,114.7,0,0,1,16.7-2.6c6-.5,11.9-.9,17.6-1H457c20.7,0,36.6,4.8,47.9,14.4s17.6,25.1,18.3,46v3.6C523.2,724.7,519.9,739,513.3,748.8Z" transform="translate(-94.5 -122.7)"/><path class="cls-2" d="M523.2,702.2c-.7-20.9-6.7-36.3-18.3-46s-27.2-14.4-47.9-14.4h-4.9c-5.7.1-11.6.5-17.6,1a114.7,114.7,0,0,0-16.7,2.6V772.1c5.9.8,11.9,1.3,17.8,1.6s11.6.4,16.9.4a109.1,109.1,0,0,0,34.3-5.2h.5c10.8-3.5,19.4-10.2,26-20s9.9-24.1,9.9-43Zm-17.8,41.3a40.1,40.1,0,0,1-17.9,15.1l-3.2,1.2a102.3,102.3,0,0,1-31.8,4.8c-5.1,0-10.6-.1-16.4-.4l-8.8-.6V653.4a68.9,68.9,0,0,1,8.1-1c5.8-.5,11.5-.9,16.9-1H457c18.2,0,32.3,4.1,41.8,12.1,6.1,5.2,10.3,12.6,12.6,22.1h.1a88.9,88.9,0,0,1,2.2,20.3C513.7,722.7,510.9,735.4,505.4,743.5Z" transform="translate(-94.5 -122.7)"/><path class="cls-1" d="M513.7,705.8c0,16.9-2.8,29.6-8.3,37.7a40.1,40.1,0,0,1-17.9,15.1l-3.2,1.2a102.3,102.3,0,0,1-31.8,4.8c-5.1,0-10.6-.1-16.4-.4l-8.8-.6V653.4a68.9,68.9,0,0,1,8.1-1c5.8-.5,11.5-.9,16.9-1H457c18.2,0,32.3,4.1,41.8,12.1,6.1,5.2,10.3,12.6,12.6,22.1h.1A88.9,88.9,0,0,1,513.7,705.8Z" transform="translate(-94.5 -122.7)"/><path class="cls-1" d="M738.2,621,684.8,786.8c-6.4,19.3-13.9,34.1-22.7,44.4s-18.3,16.8-28.7,19.7a64.3,64.3,0,0,1-16.2,2.6,49.4,49.4,0,0,1-5.8-.4l-6.8-.8a12.5,12.5,0,0,1-4.2-1.1V824a36.9,36.9,0,0,0,7.2,1.5,61,61,0,0,0,7,.6c4.1,0,8.9-1.2,14.4-3.4s11-6.9,16.1-13.8,7.3-13,11-27H645.2L587.7,621h35.9l33.5,104.3L666,755l7.8-29.7L702.4,621Z" transform="translate(-94.5 -122.7)"/><path class="cls-2" d="M695.2,611.5l-2,7L665.4,720,632.6,618.1l-2.1-6.6H574.2l4.6,12.7,57.5,160.9,2.2,6.3h5.1a44.6,44.6,0,0,1-6.1,11.8c-4,5.5-8.1,9-12,10.6-5.5,2.3-9,2.7-10.9,2.7a39.9,39.9,0,0,1-5.8-.5,35.3,35.3,0,0,1-5.1-.9l-12.8-4.5v46.7l4.3,1.8c1.8,1.3,4.1,2,7.9,2.6s4.8.7,7.4.9a63.2,63.2,0,0,0,6.7.4,64.6,64.6,0,0,0,9.8-.9,63.8,63.8,0,0,0,9.2-2.1c12.1-3.4,23.3-11,33.2-22.6s17.7-27.2,24.5-47.7l53.4-165.8,4-12.4ZM633.4,850.9a64.3,64.3,0,0,1-16.2,2.6,49.4,49.4,0,0,1-5.8-.4l-6.8-.8a12.5,12.5,0,0,1-4.2-1.1V824a36.9,36.9,0,0,0,7.2,1.5,61,61,0,0,0,7,.6c4.1,0,8.9-1.2,14.4-3.4s11-6.9,16.1-13.8,7.2-12.8,11-27H645.2L587.7,621h35.9l33.5,104.3L666,755l7.8-29.7L702.4,621h35.8L684.8,786.8c-6.4,19.3-13.9,34.1-22.7,44.4S643.8,848,633.4,850.9Z" transform="translate(-94.5 -122.7)"/><path class="cls-2" d="M999.7,640.4c-4.2-11.4-11.1-19.7-20.4-24.7s-18.6-6.6-30.9-6.6h-1.8a95.3,95.3,0,0,0-25.2,4,133.9,133.9,0,0,0-22.1,8.8l-6,3.3a39.5,39.5,0,0,0-11.3-9.5c-7.8-4.4-17.8-6.6-29.5-6.6h-3.4a93.9,93.9,0,0,0-23.2,3.9,138.7,138.7,0,0,0-20.8,8.3l-1.1.5V611.7H755V791.4h52.3V665.8a55.9,55.9,0,0,1,13.5-6.5,52.9,52.9,0,0,1,15.3-3.2h2.8c6,0,8.8,1.1,9.9,1.8s3,2.3,4.1,6.5,1.9,11,1.9,18.9V791.4h52.3V681.2c0-5.5-.2-10.8-.6-15.6a59.3,59.3,0,0,1,12.1-6,49.4,49.4,0,0,1,15.9-3.5h3c6,0,8.7,1.1,9.8,1.8s2.9,2.2,3.9,6.3,1.8,11.2,1.8,19.1V791.4h52.4V681.1C1005.4,664.1,1003.5,650.8,999.7,640.4Zm-3.8,141.5H962.5V683.2c0-8.7-.7-15.9-2.1-21.4s-4.1-9.6-8-12.1-8.5-3.2-14.9-3.2h-3.1c-5.6,0-12,1.4-19.1,4.1a70.4,70.4,0,0,0-18.8,10.2,177.8,177.8,0,0,1,1,20.3V781.9H864.3V683.2c0-8.7-.7-15.9-2.2-21.4s-4.3-9.6-8.3-12.1-8.5-3.2-14.9-3.2h-3c-5,0-11.1,1.3-18.1,3.6a69.7,69.7,0,0,0-20.1,10.7v121H764.5V621.3h29.9l.2,17a131.2,131.2,0,0,1,14.8-8.5,125.2,125.2,0,0,1,19.3-7.7,78.6,78.6,0,0,1,20.8-3.4h3c10.1,0,18.4,1.8,24.8,5.4a32.5,32.5,0,0,1,13.2,14.6,74.9,74.9,0,0,1,13.2-8.2,123.4,123.4,0,0,1,20.5-8.2,80,80,0,0,1,22.6-3.5h1.6c10.7,0,19.5,1.8,26.4,5.5s12.5,10.3,16,19.5,5.1,21.7,5.1,37.4Z" transform="translate(-94.5 -122.7)"/><path class="cls-1" d="M995.9,681.1V781.9H962.5V683.2c0-8.7-.7-15.9-2.1-21.4s-4.1-9.6-8-12.1-8.5-3.2-14.9-3.2h-3.1c-5.6,0-12,1.4-19.1,4.1a70.4,70.4,0,0,0-18.8,10.2,177.8,177.8,0,0,1,1,20.3V781.9H864.3V683.2c0-8.7-.7-15.9-2.2-21.4s-4.3-9.6-8.3-12.1-8.5-3.2-14.9-3.2h-3c-5,0-11.1,1.3-18.1,3.6a69.7,69.7,0,0,0-20.1,10.7v121H764.5V621.3h29.9l.2,17a131.2,131.2,0,0,1,14.8-8.5,125.2,125.2,0,0,1,19.3-7.7,78.6,78.6,0,0,1,20.8-3.4h3c10.1,0,18.4,1.8,24.8,5.4a32.5,32.5,0,0,1,13.2,14.6,74.9,74.9,0,0,1,13.2-8.2,123.4,123.4,0,0,1,20.5-8.2,80,80,0,0,1,22.6-3.5h1.6c10.7,0,19.5,1.8,26.4,5.5s12.5,10.3,16,19.5S995.9,665.4,995.9,681.1Z" transform="translate(-94.5 -122.7)"/></g></svg>