<svg id="PLANET_FIN" data-name="PLANET FIN" xmlns="http://www.w3.org/2000/svg" viewBox="0 0 351.4 248.9"><defs><style>.cls-1{fill:#600320;}.cls-2{fill:#fdf3f8;}.cls-3{fill:#5f1023;}</style></defs><title>dettagli_planet_icon</title><path class="cls-1" d="M304.2,164.9c-4.9,4.4-12.2,6.6-23.6,7.2H270.1c.7-1.6,1.4-3,2-4.6l1.7-4.8a106.2,106.2,0,0,0,4.1-18.4,46,46,0,0,0,.6-5.2l.3-5.2,3-1.2,1.8-.9,1.2-.6,1.6-.9a13.7,13.7,0,0,0,2-1.3l.7-.4a21.1,21.1,0,0,0,2.3-1.9,27.8,27.8,0,0,0,4.1-4.3,19.5,19.5,0,0,0,1.7-2.3,2.5,2.5,0,0,1,.4-.7,12.4,12.4,0,0,0,1-2l.5-1.1a11.8,11.8,0,0,0,.7-2c.1-.5.3-1,.4-1.5l.3-2a28.3,28.3,0,0,0,.2-2.9,11.3,11.3,0,0,0,0-2.6,25.3,25.3,0,0,0-.9-5.5,51.7,51.7,0,0,0-2.1-6.3l-.5-1.1c-1.1-2.3-2.3-4.6-3.6-6.8a88.6,88.6,0,0,0-10.7-13.7c-11.6-12.6-27.9-24.7-46.8-35H236l-8.4-4.3c-2.5-1.3-4.9-2.5-7.4-3.6l-4.3-1.9h-.3c-24.2-10.5-48.5-16.6-69-17.4h-3.9a75.4,75.4,0,0,0-21.1,2.7c-1.8.5-3.4,1.1-5,1.7l-2,.9a40.1,40.1,0,0,0-4.9,3,23.9,23.9,0,0,0-7.5,8.9l-.2.5a3.6,3.6,0,0,0-.4.9l-.3.7-.3.8-.5,1.7a5.9,5.9,0,0,0-.2,1.3,6.3,6.3,0,0,0-.3,1.9,20.7,20.7,0,0,0-.3,3.5,42.1,42.1,0,0,0,.5,6.2l.6,3a27.6,27.6,0,0,0,.8,2.7c0,.2.1.3.1.4l1.2,3.3c0,.1.1.1.1.2a7.6,7.6,0,0,0,.4,1.1l.8,1.7c.4.9.8,1.6,1.2,2.4s.1.3.2.4-2.3,2.4-3.4,3.7a39,39,0,0,0-3.3,3.8,77.1,77.1,0,0,0-7.5,10.5c-.9,1.4-1.8,2.8-2.6,4.3s-1.5,2.9-2.2,4.3l-2-2.2-1.2-1.5-.9-1.1-2.3-3C71.6,67.2,68,58.2,70.4,50.1a11.7,11.7,0,0,1,.9-2.4l.3-.7a33.7,33.7,0,0,1,1.9-3.2,31.5,31.5,0,0,1,9.6-9.3h.1a30.6,30.6,0,0,1,5.1-2.6l2.9-1.1v-.2l.3-1.3.6-2.2v-.4l.2-.5.2-.5.3-.7.6-1.5.2-.5v-.3c.1,0,.1-.1.2-.2a24.3,24.3,0,0,1,2-3.5h-.3c-9.1,1.2-17,3.5-23.3,6.9L70,27.2l-2.9,2.1a26.4,26.4,0,0,0-4,3.5,29.5,29.5,0,0,0-6.6,9.1l-.2.4a33.5,33.5,0,0,0-1.9,5.3c-.3,1.1-.5,2.3-.7,3.5s-.3,2.2-.4,3.4-.1,2.7-.1,4c.3,12.7,6.1,27.5,17.5,41.9l2.9,3.5,1,1.1,1.4,1.6.6.6,1.9,2.1c-.4,1.9-.8,3.8-1.1,5.7s-.3,2.1-.5,3.1a4.9,4.9,0,0,1-.1,1.2v.4c-.1.5-.1.9-.2,1.4s-.2,2.7-.3,4.5v2.1a4.5,4.5,0,0,1-.1,1.1v2.5c0,2.1,0,4.1.2,6.3v.4c.1,1.4.2,2.8.4,4.2h0l.2,1.6h-.1l-3.3-2.6-1.9-1.5-1.3-1.1-3.7-3.1a182.3,182.3,0,0,1-13.5-12.9h-.2Q24.7,91.9,29.7,71.9a38.9,38.9,0,0,1,1.6-4.1,27.8,27.8,0,0,1,3-5.3A35.1,35.1,0,0,1,44,53c.1-1.2.2-2.3.4-3.4a35.8,35.8,0,0,1,.9-4.5,41.2,41.2,0,0,1,2.4-6.7c.5-1,1-2,1.6-3H49l.2-.3c-17.8,4.5-30.1,13.3-35.9,26A42.5,42.5,0,0,0,9.6,76.7a52.8,52.8,0,0,0,.1,5.6c1,16.7,10.4,35.9,28.3,55.2a220,220,0,0,0,32.8,28.2l6.7,4.7,1.4.9,3.2,2.1,4.7,3a86.8,86.8,0,0,0,4.8,8.4,95.9,95.9,0,0,0,6.9,9.8,101.4,101.4,0,0,0,79,37.8h2.3a95.2,95.2,0,0,0,13.1-1.2c3.4-.5,6.8-1.2,10.1-2h0l5.5,1.5,3.8,1,1.6.4,8.3,2a232,232,0,0,0,39.8,5.2h6.5c34.8,0,61.1-10.3,69.9-29.4a38.4,38.4,0,0,0,3.5-15.8,10.5,10.5,0,0,0,0-2.5c-.2-8.4-2.8-17.4-7.6-26.8a23.9,23.9,0,0,1-1.5,3.7h-.1a58.6,58.6,0,0,1-3,5.5l-.5.7c-.7,1.1-1.5,2.1-2.2,3a23.7,23.7,0,0,1-2.9,3.4,41,41,0,0,1-3.7,19.8c-3.3,10.1-17.7,17.9-45.2,17.9l-5.5-.2a179.8,179.8,0,0,1-22-2l-4.8-.6-1.7-.3-2.4-.4-4.1-.8a50.3,50.3,0,0,0,5.2-3.9l4.9-4h.1a78,78,0,0,0,5.8-5.7,43.8,43.8,0,0,0,4.1-4.5l3.7-4.5h15.2c17.2-1,31.2-6.4,40.5-14.3a24.4,24.4,0,0,0,2.9-2.7l2.5-2.7a34.6,34.6,0,0,0,2.2-3.1,25.5,25.5,0,0,0,2.3-4.3,29.9,29.9,0,0,0,2.5-8.2c.2-1.1.3-2.3.4-3.5a48.7,48.7,0,0,0-.1-5.4c-.1-1.2-.3-2.5-.5-3.8l-.6-2.5c-2.2-9.3-7.5-19.4-15.8-29.8h-.1c-.1,1.1-.3,2.1-.5,3.2l-.6,2.5-1,2.8h-.1l-.2.4c-.1.2-.1.4-.2.6l-.4.8-.3.6a40,40,0,0,1,2,4.2,42.3,42.3,0,0,1,2.4,6.8,33,33,0,0,1,.6,16.5,23.6,23.6,0,0,1-1,3.8c-.4,1.1-.8,2.3-1.3,3.4v.3a22.2,22.2,0,0,1-4,6.1Zm35.9-9c12.2,21.2,14.6,41.2,6.9,57.9-10.1,22.3-38.7,35.1-78.5,35.1l-6.8-.2c-15.7-.5-32.6-3.1-50.1-7.4l-5.6-1.5-3.3-.9a106.6,106.6,0,0,1-25.2,3A110.3,110.3,0,0,1,79.6,183c-.8-.4-1.4-.9-2.2-1.4l-.4-.3-4.1-2.6-.8-.6c-16.5-11.1-30.3-22.7-41-34.2C3,113.7-6.7,82.1,4.7,57.3c7.5-16.5,23.9-27.7,47.4-32.5l7.1-1.4,2.2-1.8A55.9,55.9,0,0,1,68,17.5c8.6-4.6,19.2-7.5,31.7-8.6l7.4-.6,3.4-1.9a59.8,59.8,0,0,1,8.3-3.3A83.9,83.9,0,0,1,142.7,0H147c23,.8,50.4,8,77.1,20.2s50.2,28.3,65.8,45.1a97.4,97.4,0,0,1,11.8,15.3,80.4,80.4,0,0,1,4.8,9.2c.7,1.7,1.2,3.2,1.7,4.6l5.8,6.8c11.1,13,18.2,25.7,21,37.7a70.9,70.9,0,0,1,1.4,7.8,28.1,28.1,0,0,1,.1,2.9Zm-28.4,41.2a28.9,28.9,0,0,0,2.5-7.7c-12.3,8-28.7,12.3-46.7,12.3h-4.6c-1.9,2.3-3.9,4.6-6,6.7,4.5.5,8.9.8,13.1.9h5.2c22.4,0,34.3-5.7,36.1-11.3l.2-.5ZM302.4,148a25.2,25.2,0,0,0-.4-11.9c-.5-1.5-1-3.1-1.7-4.7a21.6,21.6,0,0,1-2.7,2.5,31.1,31.1,0,0,1-2.8,2.3h-.2c-1,.8-2.2,1.5-3.2,2.2l-2.1,1.1-1.3.7a118.4,118.4,0,0,1-4.1,22c11.9-1.2,14.8-4.7,16.6-8.5l.2-.4a12.5,12.5,0,0,0,.9-2.5A12.9,12.9,0,0,0,302.4,148ZM94.2,57.8c0-.2-.1-.3-.1-.5s-1-2.4-1.5-3.9l-.9-3.2v-.6c-.2-1.2-.5-2.4-.7-3.6s-.4-3.1-.5-4.6a22.4,22.4,0,0,0-9.2,7.8,11.8,11.8,0,0,0-1.1,1.9v.5l-.3.4-.3.9c-1.5,3.8.4,9.3,5.6,16.7A114.8,114.8,0,0,1,94.2,57.8Zm-26,54.4-1-1.2-.7-.8h-.2C53.8,95.6,46.2,80,44.2,65.3a26.2,26.2,0,0,0-4.4,6.6c-5.7,12.4,7.9,31,20.4,44.4,2.1,2.3,4.3,4.5,6.7,6.8A98.3,98.3,0,0,1,68.2,112.2Z"/><path class="cls-2" d="M78.1,151.2c.4,1.9,1,4.5,1.6,6.6s.7,2.4,1,3.5a69.3,69.3,0,0,0,2.6,7.2,68.6,68.6,0,0,0,3.5,7.8l-4.7-3-3.2-2.1-1.4-.9-6.7-4.7A220,220,0,0,1,38,137.4C20.1,118.1,10.8,98.9,9.7,82.3a52.8,52.8,0,0,1-.1-5.6,42,42,0,0,1,3.7-15.4c5.8-12.6,18-21.4,35.7-25.8-.5.9-1,1.8-1.4,2.7a41.2,41.2,0,0,0-2.4,6.7,35.8,35.8,0,0,0-.9,4.5c-.2,1.1-.3,2.2-.4,3.4a35.1,35.1,0,0,0-9.7,9.5,27.8,27.8,0,0,0-3,5.3,31.2,31.2,0,0,0-1.5,4.3c-4.6,14.2-2.1,36,23.2,50.5H53v.2h.2a163.8,163.8,0,0,0,13.5,12.9l3.7,3.1,1.3,1.1,1.9,1.5,3.2,2.5.2.9c.3,2,.6,4,1,6C78,150.9,78.1,151,78.1,151.2Z"/><path class="cls-2" d="M52.9,122.4C27.6,107.9,25.1,86.1,29.7,71.9q-4.9,19.9,23.2,50.4Z"/><path class="cls-2" d="M258.5,192.1c1.1-1.5,2.2-3.1,3.2-4.7h.1c1-1.4,1.9-3,2.9-4.6l.7-1.1.2-.4,2.3-4.3c.8-1.6,1.5-3.2,2.2-4.8h10.4c11.5-.6,18.8-2.9,23.7-7.3l1.1-1.2a20.9,20.9,0,0,0,4.1-6.2v-.2c.5-1.1.9-2.3,1.3-3.4a23.6,23.6,0,0,0,1-3.8,33,33,0,0,0-.6-16.5,42.3,42.3,0,0,0-2.4-6.8,40,40,0,0,0-2-4.2l.3-.6.4-.8c.1-.2.1-.4.2-.6l.2-.4h.1l1-2.8.6-2.5c.2-1.1.4-2,.5-3.1,8.2,10.4,13.5,20.4,15.7,29.7l.6,2.5c.2,1.3.4,2.6.5,3.8a48.7,48.7,0,0,1,.1,5.4c-.1,1.2-.2,2.4-.4,3.5a29.9,29.9,0,0,1-2.5,8.2,25.5,25.5,0,0,1-2.3,4.3,34.6,34.6,0,0,1-2.2,3.1L317,175a24.4,24.4,0,0,1-2.9,2.7,57.1,57.1,0,0,1-18.6,10.2,84.4,84.4,0,0,1-21.8,4.1H258.5Z"/><path class="cls-2" d="M76.3,138v-.6c-.1-2-.2-4.1-.2-6.1v-2.5a4.5,4.5,0,0,0,.1-1.1v-2.1l.3-4.3c.1-.6.1-1.1.2-1.6v-.4a5.3,5.3,0,0,0,.1-1.2c.2-1,.3-1.7.5-2.9s.7-3.8,1.1-5.7l4,4,.9.7,3.1,2.9c19.6,18.1,45.9,35,75.5,48.6s59,22.2,85.3,25.3l5.6.5,5.6.5-3.7,4.5a43.8,43.8,0,0,1-4.1,4.5,78,78,0,0,1-5.8,5.7h-.1a61.2,61.2,0,0,1-4.9,4,50.3,50.3,0,0,1-5.2,3.9L232,214l-3.8-.8c-2.3-.4-4.6-1-6.9-1.5a367.3,367.3,0,0,1-48-15.4l-.5-.2c-6.2-2.5-12.4-5.1-18.6-8-11.9-5.5-23.6-11.2-34.7-17.2s-21.6-12.4-31.3-19c-1.3-.8-2.5-1.7-3.6-2.5l-2.1-1.5L80,146.1h-.1L77,144v.2h-.1v-.2h0c-.1-.5-.1-1.1-.2-1.6h0C76.6,140.8,76.5,139.4,76.3,138Z"/><path class="cls-2" d="M203.4,229.3l2.4-.7,2.3-.7,3.2-1.1c2.4-.8,4.9-1.8,7.2-2.8l4-1.9,4.2-2.2,2.2-1.3,5.8-3.7,4.1.8,2.4.4,1.7.3,4.8.6a179.8,179.8,0,0,0,22,2h5.5c27.5,0,41.9-7.8,45.2-17.9a41,41,0,0,0,3.7-19.8,22.1,22.1,0,0,0,2.9-3.2c.7-.9,1.5-1.9,2.2-3l.5-.7a58.6,58.6,0,0,0,3-5.5h.1a23.9,23.9,0,0,0,1.5-3.7c4.7,9.3,7.3,18.3,7.6,26.6a10.5,10.5,0,0,1,0,2.5,39.5,39.5,0,0,1-3.5,15.6c-8.8,19.1-35.1,29.4-69.9,29.4H262c-6.7-.3-13.4-.9-20-1.7s-13.3-2.1-19.8-3.5l-8.3-2-1.6-.4-3.8-1Z"/><path class="cls-2" d="M76.9,143.9l-.2-1.6c.1.5.1,1.1.2,1.6Z"/><path class="cls-2" d="M100,34.7a6.3,6.3,0,0,1,.3-1.9,5.9,5.9,0,0,1,.2-1.3l.5-1.7.3-.8.3-.7a3.6,3.6,0,0,1,.4-.9l.2-.5a23.9,23.9,0,0,1,7.5-8.9,40.1,40.1,0,0,1,4.9-3l2-.9c1.6-.6,3.2-1.2,5-1.7a75.4,75.4,0,0,1,21.1-2.7h3.9c20.5.8,44.8,6.9,69,17.4h.3l4.3,1.9c2.5,1.1,4.9,2.3,7.4,3.6l-1.4,2.7a111,111,0,0,0-29.1-9.8l-1.6-.6a152.1,152.1,0,0,0-17.6-4.7A145.9,145.9,0,0,0,156,17.3c-3.3-.3-6.7-.4-10.1-.6h-3.6l-4.9.2a44.4,44.4,0,0,0-9.5,1.9,28,28,0,0,0-9.3,5h-.2l-1.8,1.8-1.8,2.2-.5.6a17.1,17.1,0,0,0-1.3,2.3l-.3.6a9.2,9.2,0,0,0-.9,2.3v.4a16.5,16.5,0,0,0,.5,7.3,19.9,19.9,0,0,0,1.3,3.4l.3.7a.8.8,0,0,0,.2.5c.3.5.5,1,.9,1.6l.7,1.1.8,1.4-1.9,1.5L112.9,53c-.1,0-.1,0-.1.1l-3.6,3.1-3.6,3.4c-.1-.1-.1-.3-.2-.4l-1.2-2.4a9.3,9.3,0,0,0-.8-1.7A7.6,7.6,0,0,1,103,54c0-.1-.1-.1-.1-.2l-1.2-3.3c0-.1-.1-.2-.1-.4a27.6,27.6,0,0,1-.8-2.7l-.6-3a42.1,42.1,0,0,1-.5-6.2A20.7,20.7,0,0,1,100,34.7Z"/><path class="cls-2" d="M338.4,209.9a39.5,39.5,0,0,0,3.5-15.6,38.4,38.4,0,0,1-3.5,15.8c-8.8,19.1-35.1,29.4-69.9,29.4H262a232,232,0,0,1-39.8-5.2l-8.3-2-1.6-.4-3.8-1-5.5-1.5h.4l5.1,1.4,3.8,1,1.6.4,8.3,2c6.5,1.4,13.2,2.6,19.8,3.5s13.3,1.4,20,1.7h6.5C303.3,239.3,329.6,229,338.4,209.9Z"/><path class="cls-1" d="M314.2,189.4a28.9,28.9,0,0,1-2.5,7.7l-.2.5-.2.5c-1.8,5.6-13.7,11.3-36.1,11.3H270c-4.2-.1-8.6-.4-13.1-.9,2.1-2.1,4.1-4.4,6-6.7h4.6C285.5,201.7,301.9,197.4,314.2,189.4Z"/><path class="cls-2" d="M311.1,133.6a33,33,0,0,1,.6,16.5,23.6,23.6,0,0,1-1,3.8c-.4,1.1-.8,2.3-1.3,3.4v.2a20.9,20.9,0,0,1-4.1,6.2,22.2,22.2,0,0,0,4-6.1v-.3c.5-1.1.9-2.3,1.3-3.4a23.6,23.6,0,0,0,1-3.8,33,33,0,0,0-.6-16.5,42.3,42.3,0,0,0-2.4-6.8,40,40,0,0,0-2-4.2l.3-.6.4-.8c.1-.2.1-.4.2-.6l.2-.4h.1l-.2.4c-.1.2-.1.4-.2.6l-.4.8-.3.6a40,40,0,0,1,2,4.2A42.3,42.3,0,0,1,311.1,133.6Z"/><path class="cls-2" d="M309.9,111.7h.1c-.1,1.1-.3,2-.5,3.1l-.6,2.5-1,2.8h-.1l1-2.8.6-2.5C309.6,113.8,309.8,112.8,309.9,111.7Z"/><path class="cls-1" d="M302,136.1a25.2,25.2,0,0,1,.4,11.9,12.9,12.9,0,0,1-.8,2.8,12.5,12.5,0,0,1-.9,2.5l-.2.4c-1.8,3.8-4.7,7.3-16.6,8.5a118.4,118.4,0,0,0,4.1-22l1.3-.7,2.1-1.1c1-.7,2.2-1.4,3.2-2.2h.2a31.1,31.1,0,0,0,2.8-2.3,21.6,21.6,0,0,0,2.7-2.5C301,133,301.5,134.6,302,136.1Z"/><path class="cls-2" d="M300.7,105.3a11.3,11.3,0,0,1,0,2.6,26.4,26.4,0,0,1-.2,2.8l-.3,2c-.1.5-.3,1-.4,1.5a11.8,11.8,0,0,1-.7,2l-.5,1.1a12.4,12.4,0,0,1-1,2l-.4.7a19.5,19.5,0,0,1-1.7,2.3,27.8,27.8,0,0,1-4.1,4.3,21.1,21.1,0,0,1-2.3,1.9l-.7.4a13.7,13.7,0,0,1-2,1.3l-1.6.9-1.2.6-1.8.9-3,1.2v-5c0-1.1-.1-2.1-.2-3.2a10.9,10.9,0,0,0-.1-1.8V123c-.1-.7-.1-1.5-.2-2.3l1.4-.6,1.5-.7,1.3-.9.3-.2a5.2,5.2,0,0,0,1.1-1,15.7,15.7,0,0,0,3-3.8,10.9,10.9,0,0,0,.8-1.5,14.5,14.5,0,0,0,1.1-2.9l.2-.4a28.6,28.6,0,0,0,.7-2.8c0-.3.1-.6.1-.8a28.3,28.3,0,0,0,.2-2.9v-1.3a29.1,29.1,0,0,0-3.7-13.5,45.1,45.1,0,0,0-5.1-8l-1.3-1.8c-2.5-3-5.1-6-8.1-9a93.8,93.8,0,0,0-8.7-7.9,143.4,143.4,0,0,0-16.9-12,115.9,115.9,0,0,0-20-13.3l1.4-2.7L236,37h.1c18.9,10.3,35.2,22.4,46.8,35a88.6,88.6,0,0,1,10.7,13.7c1.3,2.2,2.5,4.5,3.6,6.8l.5,1.1a51.7,51.7,0,0,1,2.1,6.3A24.4,24.4,0,0,1,300.7,105.3Z"/><path class="cls-2" d="M300.5,110.7a26.4,26.4,0,0,0,.2-2.8,28.3,28.3,0,0,1-.2,2.9l-.3,2c-.1.5-.3,1-.4,1.5a11.8,11.8,0,0,1-.7,2l-.5,1.1a12.4,12.4,0,0,1-1,2,2.5,2.5,0,0,0-.4.7,19.5,19.5,0,0,1-1.7,2.3,27.8,27.8,0,0,1-4.1,4.3,21.1,21.1,0,0,1-2.3,1.9l-.7.4a13.7,13.7,0,0,1-2,1.3l-1.6.9-1.2.6-1.8.9-3,1.2h0l3-1.2,1.8-.9,1.2-.6,1.6-.9a13.7,13.7,0,0,0,2-1.3l.7-.4a21.1,21.1,0,0,0,2.3-1.9,27.8,27.8,0,0,0,4.1-4.3,19.5,19.5,0,0,0,1.7-2.3l.4-.7a12.4,12.4,0,0,0,1-2l.5-1.1a11.8,11.8,0,0,0,.7-2c.1-.5.3-1,.4-1.5Z"/><path class="cls-1" d="M289.9,100.9v1.3a28.3,28.3,0,0,1-.2,2.9c0,.2-.1.5-.1.8a28.6,28.6,0,0,1-.7,2.8l-.2.4a14.5,14.5,0,0,1-1.1,2.9,10.9,10.9,0,0,1-.8,1.5,15.7,15.7,0,0,1-3,3.8,5.2,5.2,0,0,1-1.1,1l-.3.2-1.3.9-1.5.7-1.3.6-.6-4.9-.3-1.5-.6-3.4a89.3,89.3,0,0,0-2.3-8.9,99.1,99.1,0,0,0-7.7-18.8l-2.5-4.4-.4-.7-1.6-2.5c-1.9-2.8-3.8-5.5-6-8.2s-2.2-2.7-3.4-4A100.1,100.1,0,0,0,206.6,34a101.8,101.8,0,0,0-27.4-4.3h-2.4a96.7,96.7,0,0,0-20.1,2.2,103,103,0,0,0-21,6.8,81.5,81.5,0,0,0-11.3,6l-2.6,1.7-1.4.9-3.9,2.8-.8-1.4-.7-1.1c-.4-.6-.6-1.1-.9-1.6a.8.8,0,0,1-.2-.5l-.3-.7a20.6,20.6,0,0,1-1.2-3.5,16.5,16.5,0,0,1-.5-7.3v-.4a9.2,9.2,0,0,1,.9-2.3l.3-.6a17.1,17.1,0,0,1,1.3-2.3l.5-.6,1.7-2.1,1.8-1.8h.1a26.3,26.3,0,0,1,9.3-5,44.4,44.4,0,0,1,9.5-1.9l4.9-.2h3.6c3.4.2,6.8.3,10.1.6a145.9,145.9,0,0,1,21.9,2.9A152.1,152.1,0,0,1,195.4,25l1.6.6a105.3,105.3,0,0,1,49.1,23.1,143.4,143.4,0,0,1,16.9,12,93.8,93.8,0,0,1,8.7,7.9c3,3,5.6,6,8.1,9l1.3,1.8a45.1,45.1,0,0,1,5.1,8A29.1,29.1,0,0,1,289.9,100.9Zm-4.8,3.5a19.4,19.4,0,0,0,.2-3.4,14.3,14.3,0,0,0-.3-2.9,28.5,28.5,0,0,0-2.9-8.5,44.1,44.1,0,0,0-4.7-7.4,7.6,7.6,0,0,0-1.1-1.4,108.7,108.7,0,0,1,6.4,15.4c.4,1,.7,2,1,3S284.6,102.6,285.1,104.4ZM141.2,26.3h-3a31.4,31.4,0,0,0-7.4,1.5q-5.6,1.8-8.1,5.4l-.5.7-.3.4-.4.9h-.1v.2A102.4,102.4,0,0,1,131.8,30C134.9,28.6,138,27.4,141.2,26.3Z"/><path class="cls-1" d="M285.3,101a19.4,19.4,0,0,1-.2,3.4c-.5-1.8-1.1-4.2-1.4-5.2s-.6-2-1-3a108.7,108.7,0,0,0-6.4-15.4,7.6,7.6,0,0,1,1.1,1.4,44.1,44.1,0,0,1,4.7,7.4,28.5,28.5,0,0,1,2.9,8.5A14.3,14.3,0,0,1,285.3,101Z"/><polygon class="cls-2" points="278.8 133.8 278.8 133.9 278.8 133.9 278.8 133.8"/><path class="cls-1" d="M278.8,128.8v5h0a39.7,39.7,0,0,1-4.9,1.5l-4.8,1.1a70.6,70.6,0,0,1-12.1,1h-3.9c-21.7-.8-47.8-7.7-73.5-19.4s-47.9-27-62.7-42.9a59.7,59.7,0,0,1-6-7.3c-1-1.3-1.9-2.6-2.8-4s-1.7-2.8-2.5-4.2l3.6-3.4,3.6-3.1c0-.1,0-.1.1-.1l1.7-1.4,1.9-1.5c.8,1.2,1.8,2.5,2.8,3.8l3,3.8c1.1,1.3,3.2,3.7,5.1,5.7,14,15.1,35.2,29.6,59.7,40.8a215,215,0,0,0,49.6,16.1h0l4.2.8a161.2,161.2,0,0,0,16.2,1.6,116.2,116.2,0,0,0,11.8-.2l4.7-.7a35.9,35.9,0,0,0,4.7-1.2c.1.8.1,1.6.2,2.3v.8a10.9,10.9,0,0,1,.1,1.8C278.7,126.7,278.8,127.7,278.8,128.8Z"/><path class="cls-2" d="M278.8,133.9l-.3,5.2a46,46,0,0,1-.6,5.2,106.2,106.2,0,0,1-4.1,18.4l-1.7,4.8c-.6,1.6-1.3,3-2,4.6h0c.7-1.6,1.4-3.1,2-4.7l1.7-4.8a104.2,104.2,0,0,0,4.1-18.4,46,46,0,0,0,.6-5.2l.3-5.1Z"/><path class="cls-2" d="M278.8,133.9l-.3,5.1a46,46,0,0,1-.6,5.2,104.2,104.2,0,0,1-4.1,18.4l-1.7,4.8c-.6,1.6-1.3,3.1-2,4.7h-2.6v-.2H265l-5.1-.3c-26.4-2.2-57.2-10.9-87.6-24.8-32-14.6-59.8-33.3-78.8-52.9l-2.6-2.7h-.1l-.9-1-3.2-3.6v-.2h-.1c.6-1.4,1.4-2.8,2.1-4.2s1.7-2.9,2.6-4.3a77.1,77.1,0,0,1,7.5-10.5,39,39,0,0,1,3.3-3.8c1.1-1.3,2.2-2.5,3.4-3.7.8,1.4,1.6,2.8,2.5,4.2s1.8,2.7,2.8,4a59.7,59.7,0,0,0,6,7.3c14.8,15.9,37,31.2,62.7,42.9s51.8,18.6,73.5,19.4H257a70.6,70.6,0,0,0,12.1-1l4.8-1.1A39.7,39.7,0,0,0,278.8,133.9Z"/><path class="cls-2" d="M278.3,120.7h0a35.9,35.9,0,0,1-4.7,1.2l-4.7.7a116.2,116.2,0,0,1-11.8.2,161.2,161.2,0,0,1-16.2-1.6l-4.2-.8h0a212.3,212.3,0,0,1-49.6-16.2c-24.6-11.3-45.7-25.7-59.7-40.8q-2.9-3-5.1-5.7c-1.1-1.3-2.1-2.5-3-3.8s-2-2.6-2.8-3.8l3.9-2.8,1.4-.9,2.6-1.7a81.5,81.5,0,0,1,11.3-6,103,103,0,0,1,21-6.8,96.7,96.7,0,0,1,20.1-2.2h2.4A101.8,101.8,0,0,1,206.6,34a100.1,100.1,0,0,1,46.3,29.4c1.2,1.3,2.3,2.7,3.4,4s4.1,5.4,6,8.2l1.6,2.5.4.7,2.5,4.4a99.1,99.1,0,0,1,7.7,18.8,88.9,88.9,0,0,1,2.2,8.9l.6,3.4.3,1.5.6,4.9Z"/><path class="cls-2" d="M278.3,120.7h-.1l-.6-4.9-.3-1.5-.6-3.4a88.9,88.9,0,0,0-2.2-8.9,89.3,89.3,0,0,1,2.3,8.9l.6,3.4.3,1.5Z"/><path class="cls-3" d="M270.1,172.1h0Z"/><path class="cls-2" d="M270.1,172.1H265l-5.1-.3c-26.4-2.2-57.2-10.9-87.6-24.8-32-14.6-59.8-33.3-78.8-52.9l-2.6-2.7h-.1l-.9-1-3.3-3.7a.3.3,0,0,0,.1-.2l3.2,3.6.9,1h.1l2.6,2.7c19,19.6,46.8,38.3,78.8,52.9,30.4,13.9,61.2,22.6,87.6,24.8l5.1.3h2.5v.2Z"/><path class="cls-1" d="M265,172.2h5.1c-.7,1.6-1.4,3.1-2.2,4.6l-2.3,4.3-.2.4-.7,1.1c-1,1.6-1.9,3.2-2.9,4.6h-.1c-1,1.6-2.1,3.2-3.2,4.7l-5.6-.5-5.6-.5c-26.3-3.1-56-11.9-85.3-25.3S106.1,135.1,86.5,117l-3.1-2.9-.9-.9-4-4V109l.3.3a49.2,49.2,0,0,1,1.4-5.5c.4-1.8,1-3.5,1.5-5.2l.9-2.5.6-1.5c.4-1.1.7-1.8,1.4-3.4s1.3-3,2-4.4l3.3,3.7.9,1h.1l2.6,2.7c19,19.6,46.8,38.3,78.8,52.9,30.4,13.9,61.2,22.6,87.6,24.8Z"/><path class="cls-1" d="M234.8,214.6l-5.8,3.7-2.2,1.3-4.2,2.2-4,1.9c-2.3,1-4.8,2-7.2,2.8l-3.2,1.1-2.3.7-2.8.8q-4.3-1.2-8.7-2.7c-2.8-.8-5.5-1.7-8.3-2.7H186c-7.8-2.7-15.8-5.7-23.9-9.1-6-2.4-12.1-5.1-18.1-7.9-14.5-6.6-28.6-13.7-41.8-21.2l-7.6-4.3-.2-.2-7.5-4.6a68.6,68.6,0,0,1-3.5-7.8c-1-2.4-1.8-4.8-2.6-7.2s-.7-2.3-1-3.5-1.2-4.4-1.7-6.7c0-.2-.1-.3-.1-.5-.4-2-.7-4-1-6v-.5l2.8,2h.1l2.5,1.8,2.1,1.5c1.1.8,2.3,1.7,3.6,2.5,19.3,13.2,42.1,25.3,66,36.2,6.2,2.9,12.4,5.5,18.6,8l.5.2a367.3,367.3,0,0,0,48,15.4l6.9,1.5,3.8.7,2.8.6h.1Z"/><path class="cls-2" d="M234.7,214.6h0l-2.8-.6-3.8-.7-6.9-1.5a367.3,367.3,0,0,1-48-15.4l-.5-.2c-6.2-2.5-12.4-5.1-18.6-8-23.9-10.9-46.7-23-66-36.2-1.3-.8-2.5-1.7-3.6-2.5L82.4,148l-2.5-1.8h-.1l-2.8-2V144l2.9,2.1H80l2.5,1.8,2.1,1.5c1.1.8,2.3,1.7,3.6,2.5,9.7,6.6,20.2,12.9,31.3,19s22.8,11.7,34.7,17.2c6.2,2.9,12.4,5.5,18.6,8l.5.2a367.3,367.3,0,0,0,48,15.4c2.3.5,4.6,1.1,6.9,1.5l3.8.8Z"/><path class="cls-2" d="M194.3,226.4q4.3,1.5,8.7,2.7c-3.3.8-6.7,1.5-10.1,2h0a95.2,95.2,0,0,1-13.1,1.2h-2.3a101.4,101.4,0,0,1-79-37.8,95.9,95.9,0,0,1-6.9-9.8,86.8,86.8,0,0,1-4.8-8.4l7.5,4.6.2.2,7.6,4.3c6.6,3.8,13.4,7.4,20.4,10.9s14.2,7,21.4,10.3,12.1,5.5,18.1,7.9c8.1,3.4,16.1,6.4,23.9,9.1h.1C188.8,224.7,191.5,225.6,194.3,226.4Z"/><path class="cls-1" d="M138.2,26.3h3c-3.2,1.1-6.3,2.3-9.4,3.7a102.4,102.4,0,0,0-10.4,5.4v-.2h.1l.4-.9.3-.4.5-.7q2.5-3.6,8.1-5.4A31.4,31.4,0,0,1,138.2,26.3Z"/><path class="cls-3" d="M116.6,25.7l-1.7,2.1-.5.6a17.1,17.1,0,0,0-1.3,2.3l-.3.6a9.2,9.2,0,0,0-.9,2.3V34a16.5,16.5,0,0,0,.5,7.3,20.6,20.6,0,0,0,1.2,3.5,19.9,19.9,0,0,1-1.3-3.4,16.5,16.5,0,0,1-.5-7.3v-.4a9.2,9.2,0,0,1,.9-2.3l.3-.6a17.1,17.1,0,0,1,1.3-2.3l.5-.6Z"/><path class="cls-2" d="M105.4,59.2c-.4-.8-.8-1.5-1.2-2.4Z"/><path class="cls-2" d="M103,54a7.6,7.6,0,0,0,.4,1.1A7.6,7.6,0,0,1,103,54Z"/><path class="cls-2" d="M95.5,19.1h.3a24.3,24.3,0,0,0-2,3.5c-.1.1-.1.2-.2.2V23l-.2.5L92.8,25l-.3.7-.2.5-.2.5v.4l-.6,2.2-.3,1.3v.2l-2.9,1.1a30.6,30.6,0,0,0-5.1,2.6h-.1a31.5,31.5,0,0,0-9.6,9.3A33.7,33.7,0,0,0,71.6,47l-.3.7a11.7,11.7,0,0,0-.9,2.4c-2.4,8.1,1.2,17.1,9.8,28.3l2.3,3,.9,1.1L84.6,84l2,2.2h-.1L84.3,84l-1.2-1.5-.9-1.1-2.3-3c-8.6-11.2-12.2-20.2-9.8-28.3a11.7,11.7,0,0,1,.9-2.4l.3-.7a33.7,33.7,0,0,1,1.9-3.2,30.5,30.5,0,0,1,9.6-9.3h.1A30.6,30.6,0,0,1,88,31.9l2.9-1.1v-.2l.3-1.3.6-2.2v-.4l.2-.5.2-.5.3-.7.6-1.5.2-.5v-.3c.1,0,.1-.1.2-.2A19,19,0,0,1,95.5,19.1Z"/><path class="cls-1" d="M94.1,57.3c0,.2.1.3.1.5a114.8,114.8,0,0,0-9,11.8c-5.2-7.4-7.1-12.9-5.6-16.7l.3-.9.3-.4v-.5a11.8,11.8,0,0,1,1.1-1.9,22.4,22.4,0,0,1,9.2-7.8c.1,1.5.3,3.4.5,4.6s.5,2.4.7,3.6v.6l.9,3.2C93.1,54.9,94.1,57.1,94.1,57.3Z"/><path class="cls-2" d="M95.5,19.1a19,19,0,0,0-2,3.4c-.1.1-.1.2-.2.2V23l-.2.5L92.5,25l-.3.7-.2.5-.2.5v.4l-.6,2.2-.3,1.3v.2L88,31.9a30.6,30.6,0,0,0-5.1,2.6h-.1a30.5,30.5,0,0,0-9.6,9.3A33.7,33.7,0,0,0,71.3,47l-.3.7a11.7,11.7,0,0,0-.9,2.4c-2.4,8.1,1.2,17.1,9.8,28.3l2.3,3,.9,1.1L84.3,84l2.2,2.4c-.8,1.6-1.7,3.6-2.2,4.7s-1,2.3-1.4,3.4L82.3,96l-.9,2.5c-.5,1.7-1.1,3.4-1.5,5.2s-1,3.5-1.4,5.3l-1.6-1.8-.6-.6L74.9,105l-1-1.1L71,100.4C59.6,86,53.8,71.2,53.5,58.5c0-1.3,0-2.7.1-4a31.8,31.8,0,0,1,.4-3.4c.2-1.1.4-2.4.7-3.5a33.5,33.5,0,0,1,1.9-5.3l.2-.4a29.5,29.5,0,0,1,6.6-9.1,26.4,26.4,0,0,1,4-3.5l3.2-2.1,1.9-1.3C78.7,22.5,86.5,20.3,95.5,19.1Z"/><path class="cls-3" d="M86.7,86.3h.1v0A.1.1,0,0,1,86.7,86.3Z"/><path class="cls-3" d="M86.7,86.6a.3.3,0,0,1-.1.2c0-.1-.1-.1-.1-.2v0Z"/><path class="cls-3" d="M86.7,86.3a.1.1,0,0,0-.1.1h.1Z"/><path class="cls-3" d="M86.5,86.6c0,.1.1.1.1.2s-1.3,2.9-2,4.4-1,2.3-1.4,3.4l-.6,1.5-.9,2.5c-.5,1.7-1.1,3.4-1.5,5.2a49.2,49.2,0,0,0-1.4,5.5l-.3-.3c.4-1.8.9-3.6,1.4-5.3s1-3.5,1.5-5.2l.9-2.5.6-1.5c.4-1.1.9-2.3,1.4-3.4s1.4-3.1,2.2-4.7h.1Z"/><path class="cls-2" d="M86.5,86.3Z"/><path class="cls-2" d="M76.8,143.7h0l-3.2-2.5-1.9-1.5-1.3-1.1-3.7-3.1a163.8,163.8,0,0,1-13.5-12.9H53v-.2h.1a182.3,182.3,0,0,0,13.5,12.9l3.7,3.1,1.3,1.1,1.9,1.5Z"/><path class="cls-2" d="M76.3,138v-.4c-.2-2.2-.2-4.2-.2-6.3,0,2,.1,4.1.2,6.1Z"/><path class="cls-1" d="M67.2,111l1,1.2a98.3,98.3,0,0,0-1.3,10.9c-2.4-2.3-4.6-4.5-6.7-6.8-12.5-13.4-26.1-32-20.4-44.4a26.2,26.2,0,0,1,4.4-6.6c2,14.7,9.6,30.3,22.1,44.9h.2Z"/><path class="cls-2" d="M49.2,35.2l-.2.3C31.3,39.9,19.1,48.7,13.3,61.3A42,42,0,0,0,9.6,76.7a42.5,42.5,0,0,1,3.7-15.5C19.1,48.5,31.4,39.7,49.2,35.2Z"/></svg>