<svg id="LOGO_FIN" data-name="LOGO FIN" xmlns="http://www.w3.org/2000/svg" viewBox="0 0 476.6 136.4"><defs><style>.cls-1{fill:#5f1023;}.cls-2{fill:#fdf3f8;}.cls-3{fill:none;}.cls-4{fill:#298999;}</style></defs><title>pinchpym_logo_navbar</title><path class="cls-1" d="M183,803.5l-.5.2h-.2v-.2Z" transform="translate(-144 -712.2)"/><path class="cls-1" d="M212,792.9h-.1a.1.1,0,0,0,.1-.1Z" transform="translate(-144 -712.2)"/><path class="cls-2" d="M475,795l-10.4,10.6-1.5,1.5c-5.8,5.3-13.9,8.1-24.4,8.5V803.2h9.8a63.9,63.9,0,0,0,7.8-.5,40.9,40.9,0,0,0,12.8-3.9A23.9,23.9,0,0,0,475,795Z" transform="translate(-144 -712.2)"/><path class="cls-1" d="M197.4,808.4a21.1,21.1,0,0,0,2.5-2.7Z" transform="translate(-144 -712.2)"/><path class="cls-2" d="M211.9,793l-12,12.7-2.5,2.7c-5.7,5.3-13.8,8.1-24.3,8.5V803.4h9.2v.2h.2l.5-.2h1.7c7.6-.3,14.1-1.8,19.4-4.6a33.9,33.9,0,0,0,6.6-4.6Z" transform="translate(-144 -712.2)"/><path class="cls-1" d="M409.7,753.7h0Zm56.1,27.8-.3.4h.2l.8-1.6Zm.7-1.1.8-1.8Z" transform="translate(-144 -712.2)"/><polygon class="cls-2" points="294.1 122.5 280.4 134.9 265.6 134.9 265.6 41.6 265.7 41.5 273.8 23.6 273.8 122.5 294.1 122.5"/><polygon class="cls-1" points="265.6 41.6 265.6 41.7 265.6 41.7 265.6 41.6"/><path class="cls-1" d="M465.8,781.5l-.3.4h.2l.8-1.6Z" transform="translate(-144 -712.2)"/><path class="cls-1" d="M183,803.5l-.5.2h-.2v-.2Z" transform="translate(-144 -712.2)"/><polygon class="cls-2" points="29 122.8 14.8 136.4 14.7 136.2 0 136.2 0 42.7 8.2 23.8 8.2 122.8 28.9 122.8 29 122.8"/><path class="cls-1" d="M216.5,749.1a27.2,27.2,0,0,0-12.7-11.2,48.9,48.9,0,0,0-18.8-3.4c-4.2,0-8.3.2-12.2.5s-7.4.5-11.1.5h-9.4v99.4h20.8V803.4h11.6c7.6-.3,14.1-1.8,19.4-4.6a33.9,33.9,0,0,0,6.6-4.6l1.2-1.2a.1.1,0,0,0,.1-.1c5.9-6.2,8.9-14.4,8.9-24.7C220.9,760.5,219.4,754.1,216.5,749.1Zm-6.7,41.8a11.4,11.4,0,0,0-1.1,1.1,39.2,39.2,0,0,1-3.2,2.5,35.3,35.3,0,0,1-14.2,5.3l-4,.5-3.7.2H170.1v31.5H155.3V738.5h6.4c3.8,0,7.6-.2,11.4-.5s7.8-.5,11.9-.5a44.6,44.6,0,0,1,17.6,3.2,23.3,23.3,0,0,1,11.3,9.9c2.6,4.5,4,10.4,4,17.6C217.9,777.8,215.2,785.3,209.8,790.9Z" transform="translate(-144 -712.2)"/><path class="cls-2" d="M213.9,750.6a23.3,23.3,0,0,0-11.3-9.9,44.6,44.6,0,0,0-17.6-3.2c-4.1,0-8.1.2-11.9.5s-7.6.5-11.4.5h-6.4v93.4h14.8V800.4h13.5l3.7-.2,4-.5a35.3,35.3,0,0,0,14.2-5.3,39.2,39.2,0,0,0,3.2-2.5,11.4,11.4,0,0,1,1.1-1.1c5.4-5.6,8.1-13.1,8.1-22.7C217.9,761,216.5,755.1,213.9,750.6Zm-10.6,17.6c0,5.9-1,10.5-3.1,13.5a2.1,2.1,0,0,0-.4.6A15.6,15.6,0,0,1,192,788h-.1a22.4,22.4,0,0,1-3.7,1,33.8,33.8,0,0,1-7.2.7h-5.3l-5.6-.5V749.2a39.5,39.5,0,0,1,5.3-.8l5.5-.3h1.5c6.5,0,11.6,1.6,15.1,4.6s5.8,8.4,5.8,15.5Z" transform="translate(-144 -712.2)"/><path class="cls-1" d="M197.5,752.6c-3.5-3-8.6-4.6-15.1-4.6h-1.5l-5.5.3a39.5,39.5,0,0,0-5.3.8v39.9l5.6.5H181a33.8,33.8,0,0,0,7.2-.7,22.4,22.4,0,0,0,3.7-1h.1a15.6,15.6,0,0,0,7.8-5.7,2.1,2.1,0,0,1,.4-.6c2.1-3,3.1-7.6,3.1-13.5h0C203.3,761,201.3,755.8,197.5,752.6Zm.2,27.5c-.1.1-.2.2-.2.3a13.4,13.4,0,0,1-5.4,4.4l-1.1.4-1.4.4a34.3,34.3,0,0,1-8.6,1.1h-5.2l-2.7-.2V751.7l2.5-.3,5.4-.3h1.4q8.7,0,13.2,3.9c2.2,1.8,3.6,4.6,4.3,8.2a39.1,39.1,0,0,1,.4,5.1C200.3,773.5,199.4,777.5,197.7,780.1Z" transform="translate(-144 -712.2)"/><path class="cls-2" d="M200.3,768.2c0,5.3-.9,9.3-2.6,11.9-.1.1-.2.2-.2.3a13.4,13.4,0,0,1-5.4,4.4l-1.1.4-1.4.4a34.3,34.3,0,0,1-8.6,1.1h-5.2l-2.7-.2V751.7l2.5-.3,5.4-.3h1.4q8.7,0,13.2,3.9c2.2,1.8,3.6,4.6,4.3,8.2A39.1,39.1,0,0,1,200.3,768.2Z" transform="translate(-144 -712.2)"/><path class="cls-1" d="M225.5,735.5v56.6h16.4V735.5Zm13.4,53.6H228.5V738.5h10.4Z" transform="translate(-144 -712.2)"/><rect class="cls-2" x="84.4" y="26.4" width="10.5" height="50.56"/><path class="cls-1" d="M295.8,740.1c-2.8-3.6-7.3-5.4-13.2-5.4h-.9a28.1,28.1,0,0,0-7.4,1.3,47.3,47.3,0,0,0-6.6,2.5l-.4.3v-3.3H251.9v56.6h16.5V752.5a10.1,10.1,0,0,1,2.3-1.2,21.3,21.3,0,0,1,3.7-1.4,12.5,12.5,0,0,1,3.1-.4h1c1.9,0,3.3.4,3.7,1.1s1.3,2.8,1.3,7.5v34.1H300V757.5C300,749.3,298.6,743.6,295.8,740.1Zm1.2,49H286.5V758c0-4.2-.6-7.2-1.7-9.1s-3.1-2.5-6.3-2.5h-1.1a18,18,0,0,0-3.7.5,35.2,35.2,0,0,0-4.2,1.5,21.4,21.4,0,0,0-4.1,2.5v38.1H254.9V738.5h9.4v5.4c1.2-.8,2.8-1.7,4.7-2.7a48.4,48.4,0,0,1,6.1-2.4,25.3,25.3,0,0,1,6.6-1.1h.8c5,0,8.6,1.4,10.9,4.2s3.5,8.2,3.5,15.6Z" transform="translate(-144 -712.2)"/><path class="cls-2" d="M297,757.5v31.6H286.5V758c0-4.2-.6-7.2-1.7-9.1s-3.1-2.5-6.3-2.5h-1.1a18,18,0,0,0-3.7.5,35.2,35.2,0,0,0-4.2,1.5,21.4,21.4,0,0,0-4.1,2.5v38.1H254.9V738.5h9.4v5.4c1.2-.8,2.8-1.7,4.7-2.7a48.4,48.4,0,0,1,6.1-2.4,25.3,25.3,0,0,1,6.6-1.1h.8c5,0,8.6,1.4,10.9,4.2S297,750.1,297,757.5Z" transform="translate(-144 -712.2)"/><path class="cls-1" d="M349,784.1l-2-6.1-1.2-3.6-3.3,1.9a16.2,16.2,0,0,1-4.1,1.7,23.7,23.7,0,0,1-6.1.8,9.3,9.3,0,0,1-5.6-1.7,10.9,10.9,0,0,1-4-5.2,22.8,22.8,0,0,1-1.4-9.3,17.9,17.9,0,0,1,1.9-8.1,10.3,10.3,0,0,1,9.3-5.5,23.5,23.5,0,0,1,5.8.6,8.5,8.5,0,0,1,3.6,1.5l3.8,2.6.9-4.5,1.6-8.2.4-2-1.7-1.1a17.2,17.2,0,0,0-5.4-2.1,33.1,33.1,0,0,0-8.9-1,27.9,27.9,0,0,0-15.2,4,25.7,25.7,0,0,0-9.3,10.8,35.6,35.6,0,0,0-3,14.8,34.3,34.3,0,0,0,2.9,14.2,25.3,25.3,0,0,0,8.7,10.4,24.8,24.8,0,0,0,13.8,3.8,36.6,36.6,0,0,0,10-1.4,19.5,19.5,0,0,0,7.7-4.2l1.3-1.3Zm-9.5,4.4a29.2,29.2,0,0,1-9,1.3,21.8,21.8,0,0,1-12.2-3.3,22.2,22.2,0,0,1-7.6-9.2,31.3,31.3,0,0,1-2.6-12.9,32.5,32.5,0,0,1,2.7-13.5,22.5,22.5,0,0,1,8.2-9.6,25,25,0,0,1,13.6-3.5,31.2,31.2,0,0,1,8.1.9,14.8,14.8,0,0,1,4.6,1.7l-1.6,8.2a15.4,15.4,0,0,0-4.7-1.9,23.9,23.9,0,0,0-6.5-.7,12.9,12.9,0,0,0-6.5,1.7,13.1,13.1,0,0,0-5.4,5.3,19.9,19.9,0,0,0-2.3,9.5,25.7,25.7,0,0,0,1.6,10.6,15.5,15.5,0,0,0,5.1,6.5,12.6,12.6,0,0,0,7.3,2.2,26.3,26.3,0,0,0,7-.9,23.1,23.1,0,0,0,4.8-2l2,6.1A16.4,16.4,0,0,1,339.5,788.5Z" transform="translate(-144 -712.2)"/><path class="cls-2" d="M346.1,785a16.4,16.4,0,0,1-6.6,3.5,29.2,29.2,0,0,1-9,1.3,21.8,21.8,0,0,1-12.2-3.3,22.2,22.2,0,0,1-7.6-9.2,31.3,31.3,0,0,1-2.6-12.9,32.5,32.5,0,0,1,2.7-13.5,22.5,22.5,0,0,1,8.2-9.6,25,25,0,0,1,13.6-3.5,31.2,31.2,0,0,1,8.1.9,14.8,14.8,0,0,1,4.6,1.7l-1.6,8.2a15.4,15.4,0,0,0-4.7-1.9,23.9,23.9,0,0,0-6.5-.7,12.9,12.9,0,0,0-6.5,1.7,13.1,13.1,0,0,0-5.4,5.3,19.9,19.9,0,0,0-2.3,9.5,25.7,25.7,0,0,0,1.6,10.6,15.5,15.5,0,0,0,5.1,6.5,12.6,12.6,0,0,0,7.3,2.2,26.3,26.3,0,0,0,7-.9,23.1,23.1,0,0,0,4.8-2Z" transform="translate(-144 -712.2)"/><path class="cls-1" d="M397.6,740.4c-2.9-3.8-7.5-5.7-13.6-5.7h-.8a30.9,30.9,0,0,0-7.3,1.2,49.6,49.6,0,0,0-5.8,2.1V712.2H353.6v79.9h16.5V752.6a16.5,16.5,0,0,1,4.2-2.1,23.6,23.6,0,0,1,4.9-1h.9c1.5,0,3.4.2,4.1,1.3s1.4,2.9,1.4,7.2v34.1H402v-34C402,750,400.6,744.2,397.6,740.4Zm1.4,48.7H388.6V758c0-4.1-.7-7.1-2-9s-3.3-2.5-6.5-2.5h-.9a24,24,0,0,0-5.8,1.2,19,19,0,0,0-6.3,3.3v38.1H356.6V715.2h10.5V743h0a19,19,0,0,1,3.5-2,28.7,28.7,0,0,1,6-2.3,25.3,25.3,0,0,1,6.5-1.1h.8c5.1,0,8.9,1.5,11.3,4.6s3.7,8.4,3.7,15.8Z" transform="translate(-144 -712.2)"/><path class="cls-2" d="M399,758.1v31H388.6V758c0-4.1-.7-7.1-2-9s-3.3-2.5-6.5-2.5h-.9a24,24,0,0,0-5.8,1.2,19,19,0,0,0-6.3,3.3v38.1H356.6V715.2h10.5V743h0a19,19,0,0,1,3.5-2,28.7,28.7,0,0,1,6-2.3,25.3,25.3,0,0,1,6.5-1.1h.8c5.1,0,8.9,1.5,11.3,4.6S399,750.7,399,758.1Z" transform="translate(-144 -712.2)"/><path class="cls-1" d="M466.5,780.4l.8-1.8Zm-.7,1.1-.3.4h.2l.8-1.6Zm0,0-.3.4h.2l.8-1.6Zm.7-1.1.8-1.8Zm-.7,1.1-.3.4h.2l.8-1.6Zm.7-1.1.8-1.8Zm-.7,1.1-.3.4h.2l.8-1.6Zm.7-1.1.8-1.8Zm-.7,1.1-.3.4h.2l.8-1.6Zm.7-1.1.8-1.8Zm-.7,1.1-.3.4h.2l.8-1.6Zm.7-1.1.8-1.8Zm-.7,1.1-.3.4h.2l.8-1.6Zm.7-1.1.8-1.8Zm-.7,1.1-.3.4h.2l.8-1.6Zm.7-1.1.8-1.8Zm-.7,1.1-.3.4h.2l.8-1.6Zm.7-1.1.8-1.8Zm-.7,1.1-.3.4h.2l.8-1.6Zm.7-1.1.8-1.8Z" transform="translate(-144 -712.2)"/><path class="cls-2" d="M466.5,780.4l.8-1.8Zm0,0,.8-1.8Zm0,0,.8-1.8Zm0,0,.8-1.8Zm0,0,.8-1.8Zm0,0,.8-1.8Zm0,0,.8-1.8Zm0,0,.8-1.8Zm0,0,.8-1.8Zm0,0,.8-1.8Zm0,0,.8-1.8Zm0,0,.8-1.8Zm0,0,.8-1.8Zm0,0,.8-1.8Zm0,0,.8-1.8Zm0,0,.8-1.8Zm0,0,.8-1.8Zm0,0,.8-1.8Zm0,0,.8-1.8Z" transform="translate(-144 -712.2)"/><path class="cls-1" d="M482.1,748.8a26,26,0,0,0-12.7-11.1,46.9,46.9,0,0,0-18.7-3.4,118.3,118.3,0,0,0-12.2.5c-3.7.3-7.5.5-11.2.5h-9.4v99.4h20.8V803.2h9.8a63.9,63.9,0,0,0,7.8-.5,40.9,40.9,0,0,0,12.8-3.9A23.9,23.9,0,0,0,475,795h.1l1.2-1.1c6.8-6.2,10.2-15,10.2-26C486.5,760.2,485,753.8,482.1,748.8Zm-6.4,41.6-1.4,1.3c-1.1,1-2.3,1.9-3.5,2.8a35.9,35.9,0,0,1-13,4.9,54.8,54.8,0,0,1-6,.7H435.7v31.6H420.9V738.3h7.5c3.4-.1,6.9-.2,10.3-.5a115.5,115.5,0,0,1,12-.5c6.8,0,12.6,1,17.5,3.1a23.5,23.5,0,0,1,11.3,10c2.7,4.5,4,10.3,4,17.5Q483.5,782,475.7,790.4Z" transform="translate(-144 -712.2)"/><path class="cls-2" d="M479.5,750.4a23.5,23.5,0,0,0-11.3-10c-4.9-2.1-10.7-3.1-17.5-3.1a115.5,115.5,0,0,0-12,.5c-3.4.3-6.9.4-10.3.5h-7.5v93.4h14.8V800.1h16.1a54.8,54.8,0,0,0,6-.7,35.9,35.9,0,0,0,13-4.9c1.2-.9,2.4-1.8,3.5-2.8l1.4-1.3q7.8-8.4,7.8-22.5C483.5,760.7,482.2,754.9,479.5,750.4Zm-12.2,28.2-.8,1.8-.8,1.6h-.2a16,16,0,0,1-7.9,5.9h-.1a27.3,27.3,0,0,1-4.1,1,37.1,37.1,0,0,1-6.7.6h-5.4a55.4,55.4,0,0,1-5.6-.5V749a38.9,38.9,0,0,1,5.3-.9l5.5-.3h1.6c6.5,0,11.5,1.5,15.1,4.5s5.5,7.9,5.7,14.5v1.1A29.4,29.4,0,0,1,467.3,778.6Z" transform="translate(-144 -712.2)"/><path class="cls-1" d="M468.9,766.8c-.2-6.6-2.1-11.4-5.7-14.5s-8.6-4.5-15.1-4.5h-1.6l-5.5.3a38.9,38.9,0,0,0-5.3.9v39.8a55.4,55.4,0,0,0,5.6.5h5.4a37.1,37.1,0,0,0,6.7-.6,27.3,27.3,0,0,0,4.1-1h.1a16,16,0,0,0,7.9-5.9l.3-.4.7-1.1.8-1.8a29.4,29.4,0,0,0,1.6-10.7Zm-5.6,13a.1.1,0,0,1-.1.1,11.6,11.6,0,0,1-5.5,4.6l-1,.4-1.9.6a35.9,35.9,0,0,1-8.1.9h-5.2l-2.8-.2V751.4l2.6-.3,5.3-.3h1.5c5.7,0,10.1,1.3,13.1,3.8a12.8,12.8,0,0,1,4,7,24.8,24.8,0,0,1,.7,6.3C465.9,773.3,465,777.3,463.3,779.8Z" transform="translate(-144 -712.2)"/><path class="cls-2" d="M465.9,767.9c0,5.4-.9,9.4-2.6,11.9a.1.1,0,0,1-.1.1,11.6,11.6,0,0,1-5.5,4.6l-1,.4-1.9.6a35.9,35.9,0,0,1-8.1.9h-5.2l-2.8-.2V751.4l2.6-.3,5.3-.3h1.5c5.7,0,10.1,1.3,13.1,3.8a12.8,12.8,0,0,1,4,7A24.8,24.8,0,0,1,465.9,767.9Z" transform="translate(-144 -712.2)"/><path class="cls-1" d="M523,738.2l-.6,2.2-8.7,32-10.4-32.1-.6-2.1H485l1.4,4.1,18.1,50.6.7,2h1.7a14.3,14.3,0,0,1-2,3.7,10,10,0,0,1-3.8,3.3,9.8,9.8,0,0,1-3.4.9l-1.9-.2-1.6-.3-4-1.4v14.4l1.4.9a5.6,5.6,0,0,0,2.4.8l2.4.3h2.1l3.1-.3a18.4,18.4,0,0,0,2.9-.6,21.4,21.4,0,0,0,10.4-7.2c3-3.5,5.6-8.5,7.7-14.9l16.8-52.2,1.3-4Zm-3.2,55.2c-2,6.1-4.4,10.8-7.2,14a18.6,18.6,0,0,1-9,6.2l-2.5.6-2.6.2h-1.8l-2.2-.3-1.3-.3v-8.6a8.9,8.9,0,0,0,2.3.5l2.2.2a12.2,12.2,0,0,0,4.5-1.1,11.8,11.8,0,0,0,5.1-4.3c1.6-2.2,2.6-4.2,3.5-8.5h-3.5l-18.1-50.7h11.3L511,774.1l2.8,9.3,2.5-9.3,9-32.9h11.3Z" transform="translate(-144 -712.2)"/><path class="cls-2" d="M536.6,741.2l-16.8,52.2c-2,6.1-4.4,10.8-7.2,14a18.6,18.6,0,0,1-9,6.2l-2.5.6-2.6.2h-1.8l-2.2-.3-1.3-.3v-8.6a8.9,8.9,0,0,0,2.3.5l2.2.2a12.2,12.2,0,0,0,4.5-1.1,11.8,11.8,0,0,0,5.1-4.3c1.6-2.2,2.6-4.2,3.5-8.5h-3.5l-18.1-50.7h11.3L511,774.1l2.8,9.3,2.5-9.3,9-32.9Z" transform="translate(-144 -712.2)"/><path class="cls-1" d="M585.9,751.1Z" transform="translate(-144 -712.2)"/><path class="cls-1" d="M586,751.2Z" transform="translate(-144 -712.2)"/><path class="cls-3" d="M585.9,751.2h0m.1.2h0m0,.1h0m-.1-.1h0" transform="translate(-144 -712.2)"/><path class="cls-1" d="M584.6,746.8h0Z" transform="translate(-144 -712.2)"/><path class="cls-1" d="M585.9,751.1Z" transform="translate(-144 -712.2)"/><path class="cls-1" d="M586,751.2Z" transform="translate(-144 -712.2)"/><path class="cls-3" d="M584.5,746.7h0m1.9,7.2v.2h.1m-1.9-7.4Zm0,.1h0v.2Zm0,0h0v.2Zm0-.1Zm0,.1h0v.2Zm0-.1Z" transform="translate(-144 -712.2)"/><path class="cls-1" d="M618.8,747.3a13.8,13.8,0,0,0-6.4-7.7,20,20,0,0,0-9.6-2.1h-.7a30.9,30.9,0,0,0-7.9,1.2,43.2,43.2,0,0,0-6.9,2.8l-1.9,1a11.2,11.2,0,0,0-3.6-2.9,18.2,18.2,0,0,0-9.2-2.1h-1.1a30.9,30.9,0,0,0-7.4,1.2,51.8,51.8,0,0,0-6.5,2.6l-.4.2v-3.2H541.8v56.6h16.5V755.3a20.3,20.3,0,0,1,4.2-2,15.1,15.1,0,0,1,4.8-1h.9a6.4,6.4,0,0,1,3.1.5,3,3,0,0,1,1.3,2,24.7,24.7,0,0,1,.6,6v34.1h16.5V760.2c0-1.9-.1-3.6-.2-4.9a19.3,19.3,0,0,1,3.8-1.9,15.1,15.1,0,0,1,5-1.1h1a5.8,5.8,0,0,1,3,.5,2.7,2.7,0,0,1,1.3,2,24.1,24.1,0,0,1,.6,6v34.1h16.5V760.1C620.7,754.8,620.1,750.6,618.8,747.3Zm-1.1,44.6H607.2V760.8a29.9,29.9,0,0,0-.7-6.7,6.3,6.3,0,0,0-2.5-3.8,9.1,9.1,0,0,0-4.7-1h-1a15.9,15.9,0,0,0-6,1.3,16.6,16.6,0,0,0-3.3,1.5l-2.7,1.7h.1v.4a6.6,6.6,0,0,1,.1,1.5c.1,1.1.2,2.7.2,4.4v31.7H576.2V760.8a25,25,0,0,0-.7-6.7,5.6,5.6,0,0,0-2.6-3.8,8.6,8.6,0,0,0-4.7-1h-.9a19.5,19.5,0,0,0-5.7,1.1,22.7,22.7,0,0,0-6.3,3.4v38.1H544.8V741.3h9.4v5.4a43.4,43.4,0,0,1,4.6-2.7,48.4,48.4,0,0,1,6.1-2.4,25.3,25.3,0,0,1,6.6-1.1h1a14.9,14.9,0,0,1,7.7,1.7,10.2,10.2,0,0,1,4.2,4.5h0a27.3,27.3,0,0,1,4.1-2.5,38.3,38.3,0,0,1,6.5-2.6,24.5,24.5,0,0,1,7.1-1.1h.6a17.8,17.8,0,0,1,8.2,1.7,10.8,10.8,0,0,1,5,6.2,33.7,33.7,0,0,1,1.7,11.7Z" transform="translate(-144 -712.2)"/><path class="cls-4" d="M586,751.2Z" transform="translate(-144 -712.2)"/><path class="cls-2" d="M616,748.4a10.8,10.8,0,0,0-5-6.2,17.8,17.8,0,0,0-8.2-1.7h-.6a24.5,24.5,0,0,0-7.1,1.1,38.3,38.3,0,0,0-6.5,2.6,27.3,27.3,0,0,0-4.1,2.5h0a10.2,10.2,0,0,0-4.2-4.5,14.9,14.9,0,0,0-7.7-1.7h-1a25.3,25.3,0,0,0-6.6,1.1,48.4,48.4,0,0,0-6.1,2.4,43.4,43.4,0,0,0-4.6,2.7v-5.4h-9.4v50.6h10.5V753.8a22.7,22.7,0,0,1,6.3-3.4,19.5,19.5,0,0,1,5.7-1.1h.9a8.6,8.6,0,0,1,4.7,1,5.6,5.6,0,0,1,2.6,3.8,25,25,0,0,1,.7,6.7v31.1h10.5V760.2c0-1.7-.1-3.3-.2-4.4a6.6,6.6,0,0,0-.1-1.5v-.4h-.1l2.7-1.7a16.6,16.6,0,0,1,3.3-1.5,15.9,15.9,0,0,1,6-1.3h1a9.1,9.1,0,0,1,4.7,1,6.3,6.3,0,0,1,2.5,3.8,29.9,29.9,0,0,1,.7,6.7v31.1h10.5V760.1A33.7,33.7,0,0,0,616,748.4Zm-31.4-1.6h0Zm1.3,4.3Zm.1.1Z" transform="translate(-144 -712.2)"/><path class="cls-1" d="M233.7,717.4a8.2,8.2,0,1,0,8.2,8.2A8.2,8.2,0,0,0,233.7,717.4Zm0,13.4a5.2,5.2,0,1,1,5.2-5.2A5.2,5.2,0,0,1,233.7,730.8Z" transform="translate(-144 -712.2)"/><path class="cls-2" d="M238.9,725.6a5.2,5.2,0,1,1-5.2-5.2A5.2,5.2,0,0,1,238.9,725.6Z" transform="translate(-144 -712.2)"/></svg>