<svg xmlns="http://www.w3.org/2000/svg" viewBox="0 0 1920 650"><defs><style>.cls-1{fill:#9e6679;}.cls-2{fill:#170e11;}.cls-3{fill:#600320;}.cls-4{fill:#4f0b23;}.cls-5{fill:#3d061f;}.cls-6{fill:#fdf3fa;}</style></defs><title>prx-fixed</title><g id="Livello_21" data-name="Livello 21"><rect class="cls-1" x="-396" y="-915" width="2651" height="1830"/></g><g id="Layer_24" data-name="Layer 24"><path class="cls-2" d="M1710.3,147h-.6a21.2,21.2,0,0,0-3.8.2,3.5,3.5,0,0,1,2.3-.9A3.8,3.8,0,0,1,1710.3,147Z"/><path class="cls-2" d="M1710.6,147v.2l-.3-.2Z"/><path class="cls-2" d="M1713.2,160.3h-.3v-.7Z"/><path class="cls-2" d="M1813,144.3l-1.3-8.8h1.1Z"/><path class="cls-2" d="M1813,144.3l-1.3-8.8h1.1Z"/><path class="cls-2" d="M73,111.4h-.7a23.7,23.7,0,0,0-4.1.3,4.1,4.1,0,0,1,2.6-.9A4.3,4.3,0,0,1,73,111.4Z"/><path class="cls-2" d="M1869,236v38.5q-12,1.2-24,3V271h-29.6L1813,144.3l-1.3-8.8h1.1l.2,8.8,2.6,18.2c.1.2.1.4.2.6l27.7,89c.8,2.1,2.6,1.6,2.3-.6l-19.3-91.2c-.1-.2-.1-.4-.2-.6l-9.5-24.7c5.6-1,9.5-3.4,9.5-6.2s-1.6-3.4-4.2-4.6l18.8-13.3.4-.3,66.9-65c1.5-1.7.2-3.1-1.6-1.8L1834,102.3l-.4.4-17.8,19.7a28.5,28.5,0,0,0-5.1-.4,17.2,17.2,0,0,0-6,.8L1782,111.3l-.6-.3-39.3-12.7L1768,39.4c.7-2.1-1-3-2.2-1.1L1734,95.6l-41.2-13.3c-2.2-.6-2.9,1.2-.9,2.2l38.9,16.8-10.2,18.5a1.3,1.3,0,0,0-.3.5l-9.7,26.7h0v.2l-.3-.2h-.6a21.2,21.2,0,0,0-3.8.2h0c-2.7.4-4.1,1.4-4.7,2.7l-25.4-2.2h-.6l-93,6.7c-2.2.3-2.2,2.2.1,2.4l93.2,1.9c.2.1.3,0,.5,0l24.6-3.4a4.5,4.5,0,0,0,3,4.3l-2.9,156.7-8.7,3V290h-79v27h-56v48c-7,2-14,3.8-21,5.6V284h-60v42h-45v72.7a207.5,207.5,0,0,0-29,17.3V372h-95v60h-6V340h-9V298h-5v42h-18v92h-11V362h-79v27h-51V280h-60v63h-48V443H991V389H896v60h-6V357h-9V315h-5v42H858v92H847V379H768v27H717V297H657V444q-31.8-6.9-63.2-15.5c-7.5-25.3-24.6-69.8-22.1-105a292.6,292.6,0,0,1,8.3-51.3,4,4,0,0,0-3.6-5.1h-82a4,4,0,0,0-3.6,5,310,310,0,0,1,7.8,46.8,140.7,140.7,0,0,1-1,28.8,69,69,0,0,0-58.3-32c-2.2,0-4.3.1-6.4.3V188.7a6.3,6.3,0,0,0-2-4.7,6.6,6.6,0,0,0-11.4,4.7V318.5l-6.2,2.2c-3.1-14.1-4.9-28.4-3.7-41.4a271.2,271.2,0,0,1,9.5-51.5,4,4,0,0,0-3.9-5.1l-90.3-.8a3.9,3.9,0,0,0-3.9,5,277.2,277.2,0,0,1,8.1,47c1.3,16-1.5,33.8-5.9,51-11.7-5.1-23.4-9.9-35.2-14.6V242.1H215.2v43.2l-4.7-1.3V217.6h-6.8V185.4h-3.9v32.2H186v60.5l-5.1-1.1-3.3-.6V234.5h-46L95.1,149.1l-.3-.6L80.1,125.3c5.5-1.3,9.2-3.7,9.2-6.5s-3-4.8-7.4-6.1l18.1-19,.4-.4,57.2-82.9c1.3-2.1-.4-3.4-2-1.6L90.8,86l-.3.5-15,25.1-.9,1.5-.4-.5a3.4,3.4,0,0,0-1.2-1.2h-.7a23.7,23.7,0,0,0-4.1.3c-2.3.4-3.7,1.1-4.5,2.1l-26.1-7.3-.6-.2L0,101.9v8.7l35,7.5h.7l26.8,1.4c.1,2.4.6,4.4,3.3,5.5l-2.1,116H31.2v20.1l-4.7-.6v-44H19.7V184.4H15.8v32.2H2v41.2l-2-.2V650H1920V236ZM117,234.5v36.9c-4.3-.2-8.7-.5-13-.9V241.1H77.9l-2-110.6L84,153.7l.3.6,43.5,80.2ZM1803.7,134.2,1801.1,271H1750v29l-15,4.7V268h-9V226h-5v42h-6.1l-2-107.7v-.7l.4.7,13,22.2.3.5,59.2,72c1.5,1.7,3.1.5,1.9-1.4l-52.2-77.3-.3-.4-15.8-16.8c3.7-1.3,6.1-3.2,6.1-5.4s-4-5.2-9.6-6.2l14.4-22.3.3-.5,8.7-19.8,38.4,16.5.5.2,23.5,5.9v1.3c0,2.2.1,4.2,2.1,5.4Z"/><path class="cls-2" d="M75.5,111.6l-.9,1.5-.4-.5a3.4,3.4,0,0,0-1.2-1.2Z"/></g><g id="Layer_36_copy" data-name="Layer 36 copy"><path class="cls-2" d="M1920,326.7V650H0V358l6.7-3.3V335l45.3-22.2,69.6,33.9v25.2l30.8,15-.4,117,29.8-14.6,10.2,4.9,1.2-.6v-7.3l10.2-5.7V432.9h0l-.5.6-.5.5h-.1l-.5.4-.7.4h-.4l-.8.3a.1.1,0,0,1-.1.1l-.6.2H199l-.6.2h-.8l-.7.2h-.7l-1.3.2h-5.4v.2l-3.6,1.8-7.5-3.7v-5.3l3.4-1.7V401.8c0-1.3.9-2.5,2.8-3.6v-6a1.2,1.2,0,0,1,.8-.9,4.7,4.7,0,0,1,4,0c.7.2,1,.7.9,1.1h0v4.2a22.5,22.5,0,0,1,8.2.6v-3.2l3.6-1.8,1.5.7V379l-24.9-12.1v-5.4l.9-.4v-3.9l4-1.9,5.1,2.5v5l.6.3V362l4-2,5.1,2.5v5l5.5,2.6V356.2L182,345.6v-5.4l3.6-1.7,18.2,8.8v-14c0-.5.4-1.1,1.3-1.5a7.9,7.9,0,0,1,6.4,0c.9.4,1.4,1,1.4,1.6v18.4l10.6,5.1v-1.4l3.7-1.8,7.4,3.6v5l6.7,3.3v5.3l-3.6,1.8-24.8-12.1v14l12.6,6.1v-1.2l3.9-1.9,5.1,2.4v5.1l3.7,1.8v5.3l-3.6,1.8-21.7-10.6v13.8L236.9,409v-1.7l2.7-1.4,2.9,1.4v4.4l1,.5v5.3l-3.6,1.8L221,410.1V421l9,4.4v-1.8l2.8-1.3,2.8,1.4v4.4l9.6,4.7v5.4l-3.6,1.7-28.8-14-.2,38.8,45.3-25.2L289,456.8v6.9l16.2,9v4.2l11.3,6.3v2.1l10.7-5.2v-4.2l19.8-9.7v-6.1l48.3-23.6,48.6,23.6v6.2l19.8,9.6v3.6l5.8,2.8,12.3-6v-8.2l-53.1-25.9v-5.3l1.5-.8v-3.8l3.7-1.8,3.9,1.9v4.1L466,450.2V431.1L431,414v-5.3l2.3-1.2v-3.4l3.8-1.8,3.8,1.9v4.5l1,.4v-1l3.7-1.9,3.9,1.9v4.7l32.4,15.8.3-65.8-35.5-17.3v-5.3l4.9-2.5h.1l5.4-2.6,7,3.4v5.2l18,8.8V333.1l-32.5-15.8v-5.4l1.6-.8v-3.4l5-2.5,10.2,5v5.1l15.6,7.6V293.2c0-.8.6-1.6,1.8-2.2a12.1,12.1,0,0,1,8.8,0c1.3.6,1.9,1.4,1.8,2.2h0V329l6.4,3.1v-.3l5.4-2.6,7,3.3v5.4h-.2l4.2,2v-.3l5.4-2.7,6.9,3.4v5.4h-.3l1.5.7V352l-5,2.4-31.3-15.3v19.5l13.4,6.5v-.3l4.9-2.5,10.2,5v5.2l4.8,2.3v5.4l-5,2.4-28.3-13.8v7.5c4.9-.5,10.2.1,14,2s4.5,3.5,4.4,5.4h0V413c-.1,1.9-1.5,3.8-4.5,5.2s-9.2,2.5-14.1,2v50l19.7-9.7V418.3L579,386.5l62.5,30.4.2-47.8,29.4-14.4V335l45.4-22.2,69.5,33.9v25.2l30.7,15-.4,117,29.9-14.6,21.5,10.4.2-66.8a6.9,6.9,0,0,1-2.7,2.2,20.5,20.5,0,0,1-11.4,1.3v.2l-3.6,1.8-7.5-3.7v-5.3l3.4-1.7V401.8q0-1.9,2.7-3.6v-6c0-.3.3-.7.9-.9a4.7,4.7,0,0,1,4,0,1.2,1.2,0,0,1,.8.9v4.3a23,23,0,0,1,8.3.6v-3.2l3.6-1.8,1.4.7V379l-25-12.1v-5.4l.9-.4v-3.9l3.9-1.9,5.1,2.5v5l.6.3V362l3.9-2,5.1,2.5v5l5.4,2.6V356.2l-21.8-10.6v-5.4l3.6-1.7,18.3,8.8v-14c0-.5.5-1.1,1.3-1.5a8.2,8.2,0,0,1,6.5,0c.9.4,1.3,1,1.3,1.5v18.5l10.6,5.1v-1.4l3.3-1.6v-2l2.7-1.4,2.8,1.4v4.4l2.3,1v5l6.8,3.3v5.3l-3.6,1.8-24.8-12.1v14l12.5,6.1v-1.2l4-1.9,5.1,2.4v5.1l3.7,1.8v5.3L899,394l-21.7-10.6v13.8h0L901.3,409v-2.7l2.8-1.4,2.8,1.4v5.4h-.1l1.1.5v5.3l-3.6,1.8-18.9-9.2V421l9,4.4v-1.8l2.8-1.3,2.8,1.4v4.4l9.7,4.7v5.4l-3.6,1.7-28.8-14-.3,78.2.7.4v6.1l16.2,7.9v3.7l11.3,5.5-.2,65.3h1l.4-106.7,12.6-6.2v-4.2l19.8-9.7v-6.1l48.3-23.6,48.6,23.6v6.2l19.8,9.6v3.6l5.8,2.8,12.2-6v-8.2l-53.2-25.9v-5.3l1.5-.8v-3.8l3.7-1.8,3.9,1.9v4.1l28.2,13.7V431.1L1022.5,414v-5.3l2.4-1.2v-3.4l3.7-1.8,3.9,1.9v4.5l.9.4v-1l3.8-1.9,3.9,1.9v4.7l32.5,15.8.2-65.8-35.4-17.3v-5.3l4.9-2.5h.2l5.4-2.6,6.9,3.4v5.2l18.1,8.8V333.1l-32.4-15.8v-5.4l1.7-.8v-3.4l4.9-2.5,10.2,5v5.1l15.7,7.6V293.2c0-.8.6-1.6,1.8-2.2a12.1,12.1,0,0,1,8.8,0c1.2.6,1.8,1.4,1.8,2.2h0V329l6.4,3.1v-.3l5.4-2.6,7,3.3v5.4h-.2l4.2,2v-.3l5.4-2.7,7,3.4v5.4h-.3l1.5.7V352l-4.9,2.4-31.3-15.3v19.5l13.3,6.5v-.3l4.9-2.5,10.3,5v5.2l4.8,2.3v5.4l-4.9,2.4-28.3-13.8v7.5c4.9-.5,10.2.1,14,2s4.6,3.5,4.5,5.4h0V413c0,1.9-1.5,3.8-4.4,5.2s-9.2,2.5-14.1,2l-.2,50,19.8-9.7V418.3l64.9-31.8,62.5,30.4V369.1l29.5-14.4V335l45.3-22.2,69.6,33.9v25.2l30.8,15-.4,117,29.8-14.6,11,5.3.2-46.7a6.9,6.9,0,0,1-2.7,2.2,20.5,20.5,0,0,1-11.4,1.3v.2l-3.6,1.8-7.5-3.7v-5.3l3.4-1.7V416.8q0-1.9,2.7-3.6v-6c0-.3.3-.7.9-.9a4.7,4.7,0,0,1,4,0,1,1,0,0,1,.8.9v4.3a23,23,0,0,1,8.3.6v-3.2l3.6-1.8,1.4.7V394l-25-12.1v-5.4l.9-.4v-3.9l3.9-1.9,5.1,2.5v5l.6.3V377l3.9-2,5.1,2.5v5l5.4,2.6V371.2l-21.8-10.6v-5.4l3.6-1.7,18.3,8.8v-14c0-.5.5-1.1,1.3-1.5a8.2,8.2,0,0,1,6.5,0c.9.4,1.3,1,1.3,1.5v18.5l10.6,5.1v-1.4l3.3-1.6v-2l2.7-1.4,2.8,1.4v4.4l2.3,1v5l6.7,3.3v5.3l-3.6,1.8-24.8-12.1v14l12.5,6.1v-1.2l4-1.9,5.1,2.4v5.1l3.7,1.8v5.3l-3.7,1.8-21.6-10.6v13.8h0l24.1,11.7v-2.7l2.8-1.4,2.8,1.4v5.4h-.1l1.1.5v5.3l-3.6,1.8-18.9-9.2V436l8.9,4.4v-1.8l2.8-1.3,2.8,1.4v4.4l9.7,4.7v5.4l-3.6,1.7-28.8-14-.2,58.1,8.6,4.2V475.1l12.6-6.2v-4.1L1499,455v-6l48.3-23.7,48.6,23.7v6.1l19.8,9.7v3.6l5.8,2.8,11.4-5.6v-8.3l-53.2-25.9V426l1.5-.7v-3.8l3.7-1.8,3.9,1.9v4.1l28.1,13.7V420.2l-35.1-17v-5.4l2.3-1.1v-3.4l3.8-1.8,3.8,1.8v4.5l1,.5v-1.1l3.7-1.8,3.9,1.9V402l32.4,15.8.3-65.9-35.5-17.2v-5.4l5-2.4h.1l5.4-2.7,7,3.4V333l18.1,8.8V322.2h0l-32.5-15.7v-5.4l1.7-.8v-3.5l5-2.4,10.2,5v5.1l15.6,7.6V282.4c0-.8.6-1.6,1.8-2.2a11.2,11.2,0,0,1,8.8,0c1.2.6,1.8,1.4,1.8,2.2v35.7l6.4,3.1V321l5.4-2.7,7,3.4v5.4h-.2l4.2,2.1v-.4l5.3-2.6,7,3.4v5.3l-.2.2,1.4.7v5.3l-5,2.4-31.3-15.2v19.5l13.3,6.5v-.4l5-2.4,10.2,5v5.1l4.8,2.4v5.3l-5,2.5L1645.7,358v7.5a26.1,26.1,0,0,1,14,2c2.9,1.4,4.4,3.3,4.4,5.2v29.4c0,1.9-1.4,3.8-4.4,5.3a27.1,27.1,0,0,1-14.1,1.9l-.2,50.2,20.7-10.1V407.2l64.9-31.8,62.5,30.4V358l29.5-14.5V323.9l45.4-22.3Z"/><path class="cls-3" d="M1868.6,301.6l-45.4,22.3v19.6L1793.6,358v47.8L1731,375.4l-64.9,31.8v42.2l-20.7,10.1.2-50.2a27.1,27.1,0,0,0,14.1-1.9c3-1.5,4.4-3.4,4.4-5.3V372.7c0-1.9-1.5-3.8-4.4-5.2a26.1,26.1,0,0,0-14-2V358l28.3,13.8,5-2.5V364l-4.8-2.4v-5.1l-10.2-5-5,2.4v.4l-13.3-6.5V328.3l31.3,15.2,5-2.4v-5.3l-1.4-.7.2-.2v-5.3l-7-3.4-5.3,2.6v.4l-4.2-2.1h.2v-5.4l-7-3.4-5.4,2.7v.2l-6.4-3.1V282.4c0-.8-.6-1.6-1.8-2.2a11.2,11.2,0,0,0-8.8,0c-1.2.6-1.8,1.4-1.8,2.2v29.7l-15.6-7.6v-5.1l-10.2-5-5,2.4v3.5l-1.7.8v5.4l32.5,15.7h0v19.6l-18.1-8.8v-5.3l-7-3.4-5.4,2.7h-.1l-5,2.4v5.4l35.5,17.2-.3,65.9L1600.6,402v-4.7l-3.9-1.9-3.7,1.8v1.1l-1-.5v-4.5l-3.8-1.8-3.8,1.8v3.4l-2.3,1.1v5.4l35.1,17v19.2l-28.1-13.7v-4.1l-3.9-1.9-3.7,1.8v3.8l-1.5.7v5.4l53.2,25.9v8.3l-11.4,5.6-5.8-2.8v-3.6l-19.8-9.7V449l-48.6-23.7L1499,449v6l-19.8,9.8v4.1l-12.6,6.2v28.1l-8.6-4.2.2-58.1,28.8,14,3.6-1.7v-5.4l-9.7-4.7v-4.4l-2.8-1.4-2.8,1.3v1.8l-8.9-4.4V425.1l18.9,9.2,3.6-1.8v-5.3l-1.1-.5h.1v-5.4l-2.8-1.4-2.8,1.4V424l-24.1-11.7h0V398.4l21.6,10.6,3.7-1.8v-5.3l-3.7-1.8V395l-5.1-2.4-4,1.9v1.2l-12.5-6.1v-14l24.8,12.1,3.6-1.8v-5.3l-6.7-3.3v-5l-2.3-1v-4.4l-2.8-1.4-2.7,1.4v2l-3.3,1.6v1.4l-10.6-5.1V348.3c0-.5-.4-1.1-1.3-1.5a8.2,8.2,0,0,0-6.5,0c-.8.4-1.3,1-1.3,1.5v14l-18.3-8.8-3.6,1.7v5.4l21.8,10.6v13.9l-5.4-2.6v-5l-5.1-2.5-3.9,2v1.1l-.6-.3v-5l-5.1-2.5-3.9,1.9v3.9l-.9.4v5.4l25,12.1v13.8l-1.4-.7-3.6,1.8v3.2a23,23,0,0,0-8.3-.6v-4.3a1,1,0,0,0-.8-.9,4.7,4.7,0,0,0-4,0c-.6.2-.9.6-.9.9v6q-2.7,1.7-2.7,3.6v25.9l-3.4,1.7v5.3l7.5,3.7,3.6-1.8v-.2a20.5,20.5,0,0,0,11.4-1.3,6.9,6.9,0,0,0,2.7-2.2l-.2,46.7-11-5.3L1408,503.9l.4-117-30.8-15V346.7l-69.6-33.9L1262.8,335v19.7l-29.5,14.4v47.8l-62.5-30.4-64.9,31.8v42.2l-19.8,9.7.2-50c4.9.5,10.3-.1,14.1-2s4.4-3.3,4.4-5.2V383.6h0c.1-1.9-1.4-3.9-4.5-5.4s-9.1-2.5-14-2v-7.5l28.3,13.8,4.9-2.4v-5.4l-4.8-2.3v-5.2l-10.3-5-4.9,2.5v.3l-13.3-6.5V339.1l31.3,15.3,4.9-2.4v-5.4l-1.5-.7h.3v-5.4l-7-3.4-5.4,2.7v.3l-4.2-2h.2v-5.4l-7-3.3-5.4,2.6v.3l-6.4-3.1V293.2h0c0-.8-.6-1.6-1.8-2.2a12.1,12.1,0,0,0-8.8,0c-1.2.6-1.8,1.4-1.8,2.2v29.7l-15.7-7.6v-5.1l-10.2-5-4.9,2.5v3.4l-1.7.8v5.4l32.4,15.8v19.5l-18.1-8.8v-5.2l-6.9-3.4-5.4,2.6h-.2l-4.9,2.5v5.3l35.4,17.3-.2,65.8L1041,412.8v-4.7l-3.9-1.9-3.8,1.9v1l-.9-.4v-4.5l-3.9-1.9-3.7,1.8v3.4l-2.4,1.2V414l35.1,17.1v19.1l-28.2-13.7v-4.1l-3.9-1.9-3.7,1.8v3.8l-1.5.8v5.3l53.2,25.9v8.2l-12.2,6-5.8-2.8v-3.6l-19.8-9.6v-6.2l-48.6-23.6-48.3,23.6v6.1l-19.8,9.7v4.2l-12.6,6.2L905.8,593h-1l.2-65.3-11.3-5.5v-3.7l-16.2-7.9v-6.1l-.7.3v-.7l.3-78.2,28.8,14,3.6-1.7v-5.4l-9.7-4.7v-4.4l-2.8-1.4-2.8,1.3v1.8l-9-4.4V410.1l18.9,9.2,3.6-1.8v-5.3l-1.1-.5h.1v-5.4l-2.8-1.4-2.8,1.4V409l-24.1-11.7h0V383.4L899,394l3.6-1.8v-5.3l-3.7-1.8V380l-5.1-2.4-4,1.9v1.2l-12.5-6.1v-14l24.8,12.1,3.6-1.8v-5.3l-6.8-3.3v-5l-2.3-1v-4.4l-2.8-1.4-2.7,1.4v2l-3.3,1.6v1.4l-10.6-5.1V333.3c0-.5-.4-1.1-1.3-1.5a8.2,8.2,0,0,0-6.5,0c-.8.4-1.3,1-1.3,1.5v14L850,338.5l-3.6,1.7v5.4l21.8,10.6v13.9l-5.4-2.6v-5l-5.1-2.5-3.9,2v1.1l-.6-.3v-5l-5.1-2.5-3.9,1.9V362l-.9-.5v5.4l25,12.1v13.8l-1.4-.7-3.6,1.8v3.2a23,23,0,0,0-8.3-.6v-4.3a1.2,1.2,0,0,0-.8-.9,4.7,4.7,0,0,0-4,0c-.6.2-.9.6-.9.9v6q-2.7,1.7-2.7,3.6v25.9l-3.4,1.7v5.3l7.5,3.7,3.6-1.8v-.2a20.5,20.5,0,0,0,11.4-1.3,6.9,6.9,0,0,0,2.7-2.2l-.2,66.8-21.5-10.4-29.9,14.6.4-117-30.7-15V346.7l-69.5-33.9L671.2,335v19.7l-29.4,14.4-.2,47.8L579,386.5l-64.9,31.8v42.2l-19.7,9.7v-50c4.9.5,10.3-.1,14.1-2s4.4-3.3,4.5-5.2V383.6h0c.1-1.9-1.4-3.9-4.4-5.4s-9.1-2.5-14-2v-7.5l28.3,13.8,5-2.4v-5.4l-4.8-2.3v-5.2l-10.2-5-4.9,2.5v.3l-13.4-6.5V339.1L526,354.4l5-2.4v-5.4l-1.5-.7h.3v-5.4l-6.9-3.4-5.4,2.7v.3l-4.2-2h.2v-5.4l-7-3.3-5.4,2.6v.3l-6.4-3.1V293.2h0c.1-.8-.5-1.6-1.8-2.2a12.1,12.1,0,0,0-8.8,0c-1.2.6-1.8,1.4-1.8,2.2v29.7l-15.6-7.6v-5.1l-10.2-5-5,2.5v3.4l-1.6.8v5.4l32.5,15.8v19.5l-18-8.8v-5.2l-7-3.4-5.4,2.6h-.1l-4.9,2.5v5.3l35.5,17.3-.3,65.8-32.4-15.8v-4.7l-3.9-1.9-3.7,1.9v1l-1-.4v-4.5l-3.8-1.9-3.8,1.8v3.4l-2.3,1.2V414l35,17.1v19.1l-28.2-13.7v-4.1l-3.9-1.9-3.7,1.8v3.8l-1.5.8v5.3l53.1,25.9v8.2l-12.3,6-5.8-2.8v-3.6l-19.8-9.6v-6.2l-48.6-23.6L347,460.1v6.1l-19.8,9.7v4.2l-10.7,5.2v-2.1l-11.3-6.3v-4.2l-16.2-9v-6.9l-31.2-17.3-45.3,25.2.2-38.8,28.8,14,3.6-1.7v-5.4l-9.6-4.7v-4.4l-2.8-1.4-2.8,1.3v1.8l-9-4.4V410.1l18.8,9.2,3.6-1.8v-5.3l-1-.5v-4.4l-2.9-1.4-2.7,1.4V409l-24.1-11.8V383.4L234.5,394l3.6-1.8v-5.3l-3.7-1.8V380l-5.1-2.4-3.9,1.9v1.2l-12.6-6.1v-14l24.8,12.1,3.6-1.8v-5.3l-6.7-3.3v-5l-7.4-3.6-3.7,1.8v1.4l-10.6-5.1V333.4c0-.6-.5-1.2-1.4-1.6a7.9,7.9,0,0,0-6.4,0c-.9.4-1.3,1-1.3,1.5v14l-18.2-8.8-3.6,1.7v5.4l21.8,10.6v13.9l-5.5-2.6v-5l-5.1-2.5-4,2v1.1l-.6-.3v-5l-5.1-2.5-4,1.9v3.9l-.9.4v5.4L203.7,379v13.8l-1.5-.7-3.6,1.8v3.2a22.5,22.5,0,0,0-8.2-.6v-4.2h0c.1-.4-.2-.9-.9-1.1a4.7,4.7,0,0,0-4,0,1.2,1.2,0,0,0-.8.9v6c-1.9,1.1-2.8,2.3-2.8,3.6v25.9l-3.4,1.7v5.3l7.5,3.7,3.6-1.8v-.2h5.4l1.3-.2h.7l.7-.2h.8l.6-.2h.3l.6-.2a.1.1,0,0,0,.1-.1l.8-.3h.4l.7-.4.5-.4h.1l.5-.5.5-.6h0v47.7l-10.2,5.7v7.3l-1.2.6-10.2-4.9L152,503.9l.4-117-30.8-15V346.7L52.1,312.8,6.8,335v19.7L0,358V650H1920V326.7ZM212.8,334h0a.1.1,0,0,0-.1.1A.1.1,0,0,1,212.8,334Z"/><path class="cls-4" d="M1086.4,293.2h0v-.1Z"/><path class="cls-3" d="M1086.4,293.2h0v-.1Z"/><path class="cls-4" d="M494.8,293.2h0v-.1Z"/><path class="cls-3" d="M494.8,293.2h0v-.1Z"/><polygon class="cls-3" points="844.1 361.1 844.1 361.9 843.2 361.5 844.1 361.1"/><polygon class="cls-3" points="877.5 504.4 876.8 504.8 876.9 504.1 877.5 504.4"/><path class="cls-4" d="M212.8,334h0a.1.1,0,0,0-.1.1A.1.1,0,0,1,212.8,334Z"/><path class="cls-5" d="M202.5,434h0Z"/><path class="cls-5" d="M202.4,434.1h0l-.5.4Z"/><path class="cls-5" d="M196.5,436.4h0Z"/><path class="cls-5" d="M196.3,436.4Z"/><path class="cls-4" d="M190.4,392.4Z"/></g><g id="Livello_19_copy" data-name="Livello 19 copy"><path class="cls-6" d="M1920,642V556.9a49.9,49.9,0,0,0-22.2,6.1,27,27,0,0,0-4.9,3.6l.4-157.4-39.5-22.8V347.9l-89.4-51.6-58.3,33.9v30l-37.9,22-.6,209.7-29.8-17.3-44.7,26-3-1.7v-5.6l-25.5-14.7v-5.9l1.5-.8c3.7-2.2,5.6-5.1,5.6-7.9l.2-44.6a.4.4,0,0,1-.1.3v0c0-.1.1-.3.1-.4h0c0-2.9-1.9-5.9-5.8-8.1s-11.7-3.8-18-3.1V496.7l36.4,21,6.3-3.7v-8.2l-6.2-3.5v-7.9l-13.1-7.6-6.4,3.7v.5l-17.1-9.8V451.4l40.3,23.3,6.3-3.7v-8.2l-1.8-1,.3-.2v-8.2l-8.9-5.2-6.9,4.1v.5l-5.4-3.1h.2v-8.2l-8.9-5.2-6.9,4.1v.4l-8.3-4.8.2-54.4c0-1.2-.8-2.4-2.4-3.3a12.5,12.5,0,0,0-11.3,0,4.1,4.1,0,0,0-2.3,3.2v45.3l-20.1-11.6v-7.7l-13.1-7.6-6.3,3.7v5.3l-2.1,1.2v8.2l41.6,24V472l-23.1-13.4v-8l-9-5.2-6.9,4h-.2l-6.3,3.7v8.2l45.5,26.2-.2,63.1-29.9-17.3L1476,548.6l-1.6-.9-4.8,2.8v1.8l-29.3,17v6.6l-79.6-46-4.7,2.7v-8.9h0v-.2h0a2.5,2.5,0,0,0-1.3-1.9,7,7,0,0,0-6.3,0,2.3,2.3,0,0,0-1.3,1.9v14.2l-88.4,51.5.2-97.1-27.7-16,.3-123.3h-.3l.3-.2.5-.2.5-.2.4-.2,1.3-.7.4-.2.5-.3.2-.2.9-.6.9-.7.8-.6h.1l.3-.3.3-.3h.2l.6-.7.6-.7h.1l.4-.6.5-.7a.8.8,0,0,0,.2-.4h.1l.3-.5.2-.4a.6.6,0,0,0,.1-.4h.1v-.2h.1l.2-.5v-.2a2.4,2.4,0,0,0,.2-.8c.1-.2.1-.5.2-.8V307.3h0v-.2c.1-4.4-2.8-8.8-8.6-12.2a40.2,40.2,0,0,0-11.8-4.1h0V259.6c0-2.6,0-5.3.1-7.9V226.2c0-1.4-.8-2.7-2.6-3.7a14,14,0,0,0-12.6,0c-1.7,1-2.6,2.3-2.6,3.6v19.6c0,6-.1,12.3-.1,18.5v26.6h-.1a39.6,39.6,0,0,0-11.7,4.1c-5.6,3.3-8.5,7.6-8.5,12v32.5c0,4.4,2.9,8.8,8.7,12.1l1,.5c.2.1.4.3.6.3s.4.2.6.3l.7.4-.3,123.8-26.5,15.4-.2,75.7-10.5,6.1v20.6l-11.8,6.8v14.3l-7.8,4.6V639l-22.3-12.9v-9.3l-62.5-36.1L1005,609.1V581l-8.7-5V565.2l-13.2-7.6V542.5l-20.7-11.9-11.2,6.5h-.2v1.4l-3.4,2h-.2l-1-.6-2.6-1.5h0l2.7,1.5.9-.5V535l3.5,2v-6.7l-3.6-2.1-3.6,2v2.7l-11.5-6.7V509.6l24.3,14,4.6-2.7v-8.2L960,512v-6.7l-3.7-2.1-3.5,2.1v2.6l-31-17.9h0V468.9L949.8,485v-8.1l4.6-2.7-4.8-2.8v.5l-4.2,2.5-.8.5v-8.2l5.1-2.9-6.6-3.8-5.1,3v1.7L922,455.4V434.2l31.8,18.4,4.7-2.7v-8.2l-8.6-4.9v-7.6l-2.9-1.7v-6.6l-3.6-2.1-3.5,2v3.1l-4.2,2.4v2.3l-13.7-7.9V392.6a3,3,0,0,0-1.7-2.4,9.3,9.3,0,0,0-8.3,0,3,3,0,0,0-1.7,2.4v21.3L887,400.4l-4.7,2.7v8.2l28.1,16.2v21.2l-6.9-4v-7.6l-6.5-3.8-5.1,2.9V438l-.8-.5v-7.7l-6.6-3.7-5.1,2.9v5.9l-1.1.6v8.2l32,18.5h0v21l-1.8-1-4.6,2.7v4.9a23.2,23.2,0,0,0-10.5-.9v-6.6c0-.5-.4-1-1.1-1.5a5.9,5.9,0,0,0-5.2,0c-.7.5-1.1,1-1,1.6h0v9.1c-2.3,1.5-3.5,3.5-3.5,5.4v39.5l-4.4,2.6v8.1l9.5,5.5L892,550v-.4a21.9,21.9,0,0,0,14.6-2,10.2,10.2,0,0,0,3.5-3.3l-.2,51.7-7.4,4.3v11.3c-2.6-6.6-8.3-12.8-17.2-18l-3.4-1.8c-2.1-5.5-6.9-10.6-14.2-14.8a59.5,59.5,0,0,0-7.6-3.7c-1.5-3.7-4.8-7.3-9.9-10.3a42.5,42.5,0,0,0-7.2-3.2V537.9c.1-1.7-1-3.4-3.2-4.7a17.2,17.2,0,0,0-15.6,0c-2.1,1.2-3.2,2.9-3.2,4.5s.1.4.1.6a.4.4,0,0,0-.1-.3v18.8c-8.5.4-16.7,2.5-23.2,6.2a32.5,32.5,0,0,0-4.9,3.5l.4-157.3-39.5-22.8V347.9l-89.4-51.6-58.2,33.9v30l-37.9,22-.6,209.7-29.8-17.3L475,611.2V601l-8.7-5.1V585.2l-13.2-7.6v-2.4a28.3,28.3,0,0,0,13.2-3.3c3.7-2.2,5.6-5.1,5.6-7.9l.2-44.9c0-2.9-1.9-5.8-5.8-8s-11.7-3.8-18-3.1V496.7l36.4,21,6.3-3.7v-8.2l-6.2-3.5v-7.9l-13.1-7.6-6.4,3.7v.5l-17.1-9.8V451.4l40.3,23.3,6.3-3.7v-8.2l-1.8-1,.3-.2v-8.2l-9-5.2-6.9,4.1v.5l-5.4-3.1h.2v-8.2l-8.9-5.2-6.9,4.1v.4l-8.3-4.7h0l.2-54.4v.2a3.9,3.9,0,0,0-2.4-3.5,12.5,12.5,0,0,0-11.3,0,4.1,4.1,0,0,0-2.3,3.2v45.3l-20.1-11.6v-7.7l-13.1-7.6-6.3,3.7v5.3l-2.1,1.2v8.2l41.6,24h0V472l-23.1-13.4v-8l-9-5.2-6.9,4h-.2l-6.3,3.7v8.2l45.5,26.2-.2,63.4-40,23.2v20.6l-7.9,4.5V578.2l-83.7-48.3-4.7,2.7v-9a2.3,2.3,0,0,0-1.3-1.9,7,7,0,0,0-6.3,0c-.9.6-1.4,1.2-1.4,1.9v14.2l-80.1,46.6-8.3-4.8.2-87.4-27.7-16,.4-123.3,2.6-1.4c5.7-3.3,8.5-7.6,8.5-11.9V307.1h0c0-4.4-2.9-8.7-8.6-12.1a37.5,37.5,0,0,0-11.8-4.1c0-21.3.1-45.5.1-64.6,0-1.4-.8-2.7-2.6-3.7a14,14,0,0,0-12.6,0c-1.7,1-2.6,2.3-2.6,3.6v19.6c-.1,13.8-.1,28.6-.1,42.3v2.8a39.2,39.2,0,0,0-11.8,4.1c-5.6,3.3-8.5,7.6-8.5,11.9h0v32.6c0,4.4,2.9,8.8,8.7,12.1l2.9,1.5-.3,123.8-26.5,15.4v64.3L79.6,573.4v12.7L57.1,599.2v8.5l-8.2,4.8L28.2,600.6l.2-46.1,3.6-2.2V548a22.9,22.9,0,0,0,16.9.8l6.6,3.8,4.6-2.6v-8.2l-4.6-2.6V497c.1-2-1.2-4-3.6-5.6v-8l-.3-.2h0a1.1,1.1,0,0,0,.3-.8v1.1L55,485l4.6-2.7v-8.1L28.6,456.3V439.8l22.2,12.8,4.7-2.7v-8.2L28.7,426.2V392.6a2.9,2.9,0,0,0-1.7-2.4,9.3,9.3,0,0,0-8.3,0,3,3,0,0,0-1.7,2.4v26.9L0,409.6v13.6L17,433h0v16.5L0,439.7v13.6L16.9,463v39.7L0,493v13.5l5.5,3.2v19.1L0,525.7v13.5l16.7,9.6-.2,45L0,584.3V642H-23V761H1975V642ZM1578.6,506h0Zm8.1-40.7.2.2h-.2Zm-21-12.1.3.2-.3.2Zm-59.6-34v-.4l.4.2Zm-3.8,43.6v-.9l.8.4ZM1240.6,313.3l-.5.7h-.1Zm-2.6,2.9h0ZM956.5,515.3h0Zm-11.2-75.8.5.2-.5.3Zm-1.7-8.7.2.2h-.2ZM886,441v-1l.8.5ZM478.6,506h0Zm8.1-40.7.2.2h-.2Zm-21-12.1.3.2-.3.2Zm-63.4,9.6v-.9l.7.4ZM1218,356.2h0Zm344.7,164.7c-.1.1-.1.1-.1.2h-.1Zm-.5,16.8.2-.2-.2.2Zm-3.7-15h0Zm-2.4-.2h-.3c0-.1,0-.1-.1-.1Zm-.8-.2h-.4Zm1.4,51.7,1.3.8a18.7,18.7,0,0,1-3.4.3Zm-194.8-33a9.7,9.7,0,0,1,1.5,1l-3.2-1.8ZM1230.2,334l-.7.9Zm-2.5,20.3h0Zm-2.2-32h.1l-1,.2Zm-3.3,33.4.9-.2-.9.2h0Zm-3.3-32.2h0Zm-5.4.3h0Zm-1.3,32.6h0Zm-8.6-.9h0l-.5-.2Zm-3-33.4h.3l.7.2-.6.3-.4.2Zm-.1,32.6Zm-1.2-33-.6-.2-.5-.2Zm-2.2-.8h0ZM1004.9,624.3l.4.3-.4.2Zm-76.1-94.8.7.4-.7.4Zm-7.2,58.4,1.2.6-1.2.7ZM910.8,497h0Zm-.6,16.8.3-.2.3.2v5.3l-.7-.4Zm-7.7,114.3v.5h-.2C902.4,628.4,902.4,628.3,902.5,628.1ZM448.5,575h-.3Zm0-192.7a1.8,1.8,0,0,1-.4.9A1.8,1.8,0,0,0,448.5,382.3ZM135.8,330h0v.2c0,.3.1.6.1.9a3.8,3.8,0,0,1-.1-1ZM27.2,508.7l1.3.7v5.4l-1.3-.7Zm-.1,32.6,1.3.8v3.1a5.4,5.4,0,0,1-1.3-3.5Z"/></g></svg>