<svg id="Layer_36_copy" data-name="Layer 36 copy" xmlns="http://www.w3.org/2000/svg" viewBox="0 0 1920 650"><defs><style>.cls-1{fill:#170e11;}.cls-2{fill:#600320;}.cls-3{fill:#4f0b23;}.cls-4{fill:#3d061f;}</style></defs><title>Prx_mid</title><path class="cls-1" d="M1920,289.7V650H0V321l6.7-3.3V298l45.3-22.2,69.6,33.9v25.2l30.8,15-.4,117,29.8-14.6,10.2,4.9,1.2-.6v-7.3l10.2-5.7V395.9h0l-.5.6-.5.5h-.1l-.5.4-.7.4h-.4l-.8.3a.1.1,0,0,1-.1.1l-.6.2H199l-.6.2h-.8l-.7.2h-.7l-1.3.2h-5.4v.2l-3.6,1.8-7.5-3.7v-5.3l3.4-1.7V364.8c0-1.3.9-2.5,2.8-3.6v-6a1.2,1.2,0,0,1,.8-.9,4.7,4.7,0,0,1,4,0c.7.2,1,.7.9,1.1h0v4.2a22.5,22.5,0,0,1,8.2.6v-3.2l3.6-1.8,1.5.7V342l-24.9-12.1v-5.4l.9-.4v-3.9l4-1.9,5.1,2.5v5l.6.3V325l4-2,5.1,2.5v5l5.5,2.6V319.2L182,308.6v-5.4l3.6-1.7,18.2,8.8v-14c0-.5.4-1.1,1.3-1.5a7.9,7.9,0,0,1,6.4,0c.9.4,1.4,1,1.4,1.6v18.4l10.6,5.1v-1.4l3.7-1.8,7.4,3.6v5l6.7,3.3v5.3l-3.6,1.8-24.8-12.1v14l12.6,6.1v-1.2l3.9-1.9,5.1,2.4v5.1l3.7,1.8v5.3l-3.6,1.8-21.7-10.6v13.8L236.9,372v-1.7l2.7-1.4,2.9,1.4v4.4l1,.5v5.3l-3.6,1.8L221,373.1V384l9,4.4v-1.8l2.8-1.3,2.8,1.4v4.4l9.6,4.7v5.4l-3.6,1.7-28.8-14-.2,38.8,45.3-25.2L289,419.8v6.9l16.2,9v4.2l11.3,6.3v2.1l10.7-5.2v-4.2l19.8-9.7v-6.1l48.3-23.6,48.6,23.6v6.2l19.8,9.6v3.6l5.8,2.8,12.3-6v-8.2l-53.1-25.9v-5.3l1.5-.8v-3.8l3.7-1.8,3.9,1.9v4.1L466,413.2V394.1L431,377v-5.3l2.3-1.2v-3.4l3.8-1.8,3.8,1.9v4.5l1,.4v-1l3.7-1.9,3.9,1.9v4.7l32.4,15.8.3-65.8-35.5-17.3v-5.3l4.9-2.5h.1l5.4-2.6,7,3.4v5.2l18,8.8V296.1l-32.5-15.8v-5.4l1.6-.8v-3.4l5-2.5,10.2,5v5.1l15.6,7.6V256.2c0-.8.6-1.6,1.8-2.2a12.1,12.1,0,0,1,8.8,0c1.3.6,1.9,1.4,1.8,2.2h0V292l6.4,3.1v-.3l5.4-2.6,7,3.3v5.4h-.2l4.2,2v-.3l5.4-2.7,6.9,3.4v5.4h-.3l1.5.7V315l-5,2.4-31.3-15.3v19.5l13.4,6.5v-.3l4.9-2.5,10.2,5v5.2l4.8,2.3v5.4l-5,2.4-28.3-13.8v7.5c4.9-.5,10.2.1,14,2s4.5,3.5,4.4,5.4h0V376c-.1,1.9-1.5,3.8-4.5,5.2s-9.2,2.5-14.1,2v50l19.7-9.7V381.3L579,349.5l62.5,30.4.2-47.8,29.4-14.4V298l45.4-22.2,69.5,33.9v25.2l30.7,15-.4,117,29.9-14.6,21.5,10.4.2-66.8a6.9,6.9,0,0,1-2.7,2.2,20.5,20.5,0,0,1-11.4,1.3v.2l-3.6,1.8-7.5-3.7v-5.3l3.4-1.7V364.8q0-1.9,2.7-3.6v-6c0-.3.3-.7.9-.9a4.7,4.7,0,0,1,4,0,1.2,1.2,0,0,1,.8.9v4.3a23,23,0,0,1,8.3.6v-3.2l3.6-1.8,1.4.7V342l-25-12.1v-5.4l.9-.4v-3.9l3.9-1.9,5.1,2.5v5l.6.3V325l3.9-2,5.1,2.5v5l5.4,2.6V319.2l-21.8-10.6v-5.4l3.6-1.7,18.3,8.8v-14c0-.5.5-1.1,1.3-1.5a8.2,8.2,0,0,1,6.5,0c.9.4,1.3,1,1.3,1.5v18.5l10.6,5.1v-1.4l3.3-1.6v-2l2.7-1.4,2.8,1.4v4.4l2.3,1v5l6.8,3.3v5.3l-3.6,1.8-24.8-12.1v14l12.5,6.1v-1.2l4-1.9,5.1,2.4v5.1l3.7,1.8v5.3L899,357l-21.7-10.6v13.8h0L901.3,372v-2.7l2.8-1.4,2.8,1.4v5.4h-.1l1.1.5v5.3l-3.6,1.8-18.9-9.2V384l9,4.4v-1.8l2.8-1.3,2.8,1.4v4.4l9.7,4.7v5.4l-3.6,1.7-28.8-14-.3,78.2.7.4v6.1l16.2,7.9v3.7l11.3,5.5-.2,65.3h1l.4-106.7,12.6-6.2v-4.2l19.8-9.7v-6.1l48.3-23.6,48.6,23.6v6.2l19.8,9.6v3.6l5.8,2.8,12.2-6v-8.2l-53.2-25.9v-5.3l1.5-.8v-3.8l3.7-1.8,3.9,1.9v4.1l28.2,13.7V394.1L1022.5,377v-5.3l2.4-1.2v-3.4l3.7-1.8,3.9,1.9v4.5l.9.4v-1l3.8-1.9,3.9,1.9v4.7l32.5,15.8.2-65.8-35.4-17.3v-5.3l4.9-2.5h.2l5.4-2.6,6.9,3.4v5.2l18.1,8.8V296.1l-32.4-15.8v-5.4l1.7-.8v-3.4l4.9-2.5,10.2,5v5.1l15.7,7.6V256.2c0-.8.6-1.6,1.8-2.2a12.1,12.1,0,0,1,8.8,0c1.2.6,1.8,1.4,1.8,2.2h0V292l6.4,3.1v-.3l5.4-2.6,7,3.3v5.4h-.2l4.2,2v-.3l5.4-2.7,7,3.4v5.4h-.3l1.5.7V315l-4.9,2.4-31.3-15.3v19.5l13.3,6.5v-.3l4.9-2.5,10.3,5v5.2l4.8,2.3v5.4l-4.9,2.4-28.3-13.8v7.5c4.9-.5,10.2.1,14,2s4.6,3.5,4.5,5.4h0V376c0,1.9-1.5,3.8-4.4,5.2s-9.2,2.5-14.1,2l-.2,50,19.8-9.7V381.3l64.9-31.8,62.5,30.4V332.1l29.5-14.4V298l45.3-22.2,69.6,33.9v25.2l30.8,15-.4,117,29.8-14.6,11,5.3.2-46.7a6.9,6.9,0,0,1-2.7,2.2,20.5,20.5,0,0,1-11.4,1.3v.2l-3.6,1.8-7.5-3.7v-5.3l3.4-1.7V379.8q0-1.9,2.7-3.6v-6c0-.3.3-.7.9-.9a4.7,4.7,0,0,1,4,0,1,1,0,0,1,.8.9v4.3a23,23,0,0,1,8.3.6v-3.2l3.6-1.8,1.4.7V357l-25-12.1v-5.4l.9-.4v-3.9l3.9-1.9,5.1,2.5v5l.6.3V340l3.9-2,5.1,2.5v5l5.4,2.6V334.2l-21.8-10.6v-5.4l3.6-1.7,18.3,8.8v-14c0-.5.5-1.1,1.3-1.5a8.2,8.2,0,0,1,6.5,0c.9.4,1.3,1,1.3,1.5v18.5l10.6,5.1v-1.4l3.3-1.6v-2l2.7-1.4,2.8,1.4v4.4l2.3,1v5l6.7,3.3v5.3l-3.6,1.8-24.8-12.1v14l12.5,6.1v-1.2l4-1.9,5.1,2.4v5.1l3.7,1.8v5.3l-3.7,1.8-21.6-10.6v13.8h0l24.1,11.7v-2.7l2.8-1.4,2.8,1.4v5.4h-.1l1.1.5v5.3l-3.6,1.8-18.9-9.2V399l8.9,4.4v-1.8l2.8-1.3,2.8,1.4v4.4l9.7,4.7v5.4l-3.6,1.7-28.8-14-.2,58.1,8.6,4.2V438.1l12.6-6.2v-4.1L1499,418v-6l48.3-23.7,48.6,23.7v6.1l19.8,9.7v3.6l5.8,2.8,11.4-5.6v-8.3l-53.2-25.9V389l1.5-.7v-3.8l3.7-1.8,3.9,1.9v4.1l28.1,13.7V383.2l-35.1-17v-5.4l2.3-1.1v-3.4l3.8-1.8,3.8,1.8v4.5l1,.5v-1.1l3.7-1.8,3.9,1.9V365l32.4,15.8.3-65.9-35.5-17.2v-5.4l5-2.4h.1l5.4-2.7,7,3.4V296l18.1,8.8V285.2h0l-32.5-15.7v-5.4l1.7-.8v-3.5l5-2.4,10.2,5v5.1l15.6,7.6V245.4c0-.8.6-1.6,1.8-2.2a11.2,11.2,0,0,1,8.8,0c1.2.6,1.8,1.4,1.8,2.2v35.7l6.4,3.1V284l5.4-2.7,7,3.4v5.4h-.2l4.2,2.1v-.4l5.3-2.6,7,3.4v5.3l-.2.2,1.4.7v5.3l-5,2.4-31.3-15.2v19.5l13.3,6.5v-.4l5-2.4,10.2,5v5.1l4.8,2.4v5.3l-5,2.5L1645.7,321v7.5a26.1,26.1,0,0,1,14,2c2.9,1.4,4.4,3.3,4.4,5.2v29.4c0,1.9-1.4,3.8-4.4,5.3a27.1,27.1,0,0,1-14.1,1.9l-.2,50.2,20.7-10.1V370.2l64.9-31.8,62.5,30.4V321l29.5-14.5V286.9l45.4-22.3Z"/><path class="cls-2" d="M1868.6,264.6l-45.4,22.3v19.6L1793.6,321v47.8L1731,338.4l-64.9,31.8v42.2l-20.7,10.1.2-50.2a27.1,27.1,0,0,0,14.1-1.9c3-1.5,4.4-3.4,4.4-5.3V335.7c0-1.9-1.5-3.8-4.4-5.2a26.1,26.1,0,0,0-14-2V321l28.3,13.8,5-2.5V327l-4.8-2.4v-5.1l-10.2-5-5,2.4v.4l-13.3-6.5V291.3l31.3,15.2,5-2.4v-5.3l-1.4-.7.2-.2v-5.3l-7-3.4-5.3,2.6v.4l-4.2-2.1h.2v-5.4l-7-3.4-5.4,2.7v.2l-6.4-3.1V245.4c0-.8-.6-1.6-1.8-2.2a11.2,11.2,0,0,0-8.8,0c-1.2.6-1.8,1.4-1.8,2.2v29.7l-15.6-7.6v-5.1l-10.2-5-5,2.4v3.5l-1.7.8v5.4l32.5,15.7h0v19.6l-18.1-8.8v-5.3l-7-3.4-5.4,2.7h-.1l-5,2.4v5.4l35.5,17.2-.3,65.9L1600.6,365v-4.7l-3.9-1.9-3.7,1.8v1.1l-1-.5v-4.5l-3.8-1.8-3.8,1.8v3.4l-2.3,1.1v5.4l35.1,17v19.2l-28.1-13.7v-4.1l-3.9-1.9-3.7,1.8v3.8l-1.5.7v5.4l53.2,25.9v8.3l-11.4,5.6-5.8-2.8v-3.6l-19.8-9.7V412l-48.6-23.7L1499,412v6l-19.8,9.8v4.1l-12.6,6.2v28.1l-8.6-4.2.2-58.1,28.8,14,3.6-1.7v-5.4l-9.7-4.7v-4.4l-2.8-1.4-2.8,1.3v1.8l-8.9-4.4V388.1l18.9,9.2,3.6-1.8v-5.3l-1.1-.5h.1v-5.4l-2.8-1.4-2.8,1.4V387l-24.1-11.7h0V361.4l21.6,10.6,3.7-1.8v-5.3l-3.7-1.8V358l-5.1-2.4-4,1.9v1.2l-12.5-6.1v-14l24.8,12.1,3.6-1.8v-5.3l-6.7-3.3v-5l-2.3-1v-4.4l-2.8-1.4-2.7,1.4v2l-3.3,1.6v1.4l-10.6-5.1V311.3c0-.5-.4-1.1-1.3-1.5a8.2,8.2,0,0,0-6.5,0c-.8.4-1.3,1-1.3,1.5v14l-18.3-8.8-3.6,1.7v5.4l21.8,10.6v13.9l-5.4-2.6v-5l-5.1-2.5-3.9,2v1.1l-.6-.3v-5l-5.1-2.5-3.9,1.9v3.9l-.9.4v5.4l25,12.1v13.8l-1.4-.7-3.6,1.8v3.2a23,23,0,0,0-8.3-.6v-4.3a1,1,0,0,0-.8-.9,4.7,4.7,0,0,0-4,0c-.6.2-.9.6-.9.9v6q-2.7,1.7-2.7,3.6v25.9l-3.4,1.7v5.3l7.5,3.7,3.6-1.8v-.2a20.5,20.5,0,0,0,11.4-1.3,6.9,6.9,0,0,0,2.7-2.2l-.2,46.7-11-5.3L1408,466.9l.4-117-30.8-15V309.7l-69.6-33.9L1262.8,298v19.7l-29.5,14.4v47.8l-62.5-30.4-64.9,31.8v42.2l-19.8,9.7.2-50c4.9.5,10.3-.1,14.1-2s4.4-3.3,4.4-5.2V346.6h0c.1-1.9-1.4-3.9-4.5-5.4s-9.1-2.5-14-2v-7.5l28.3,13.8,4.9-2.4v-5.4l-4.8-2.3v-5.2l-10.3-5-4.9,2.5v.3l-13.3-6.5V302.1l31.3,15.3,4.9-2.4v-5.4l-1.5-.7h.3v-5.4l-7-3.4-5.4,2.7v.3l-4.2-2h.2v-5.4l-7-3.3-5.4,2.6v.3l-6.4-3.1V256.2h0c0-.8-.6-1.6-1.8-2.2a12.1,12.1,0,0,0-8.8,0c-1.2.6-1.8,1.4-1.8,2.2v29.7l-15.7-7.6v-5.1l-10.2-5-4.9,2.5v3.4l-1.7.8v5.4l32.4,15.8v19.5l-18.1-8.8v-5.2l-6.9-3.4-5.4,2.6h-.2l-4.9,2.5v5.3l35.4,17.3-.2,65.8L1041,375.8v-4.7l-3.9-1.9-3.8,1.9v1l-.9-.4v-4.5l-3.9-1.9-3.7,1.8v3.4l-2.4,1.2V377l35.1,17.1v19.1l-28.2-13.7v-4.1l-3.9-1.9-3.7,1.8v3.8l-1.5.8v5.3l53.2,25.9v8.2l-12.2,6-5.8-2.8v-3.6l-19.8-9.6v-6.2l-48.6-23.6-48.3,23.6v6.1l-19.8,9.7v4.2l-12.6,6.2L905.8,556h-1l.2-65.3-11.3-5.5v-3.7l-16.2-7.9v-6.1l-.7.3v-.7l.3-78.2,28.8,14,3.6-1.7v-5.4l-9.7-4.7v-4.4l-2.8-1.4-2.8,1.3v1.8l-9-4.4V373.1l18.9,9.2,3.6-1.8v-5.3l-1.1-.5h.1v-5.4l-2.8-1.4-2.8,1.4V372l-24.1-11.7h0V346.4L899,357l3.6-1.8v-5.3l-3.7-1.8V343l-5.1-2.4-4,1.9v1.2l-12.5-6.1v-14l24.8,12.1,3.6-1.8v-5.3l-6.8-3.3v-5l-2.3-1v-4.4l-2.8-1.4-2.7,1.4v2l-3.3,1.6v1.4l-10.6-5.1V296.3c0-.5-.4-1.1-1.3-1.5a8.2,8.2,0,0,0-6.5,0c-.8.4-1.3,1-1.3,1.5v14L850,301.5l-3.6,1.7v5.4l21.8,10.6v13.9l-5.4-2.6v-5l-5.1-2.5-3.9,2v1.1l-.6-.3v-5l-5.1-2.5-3.9,1.9V325l-.9-.5v5.4l25,12.1v13.8l-1.4-.7-3.6,1.8v3.2a23,23,0,0,0-8.3-.6v-4.3a1.2,1.2,0,0,0-.8-.9,4.7,4.7,0,0,0-4,0c-.6.2-.9.6-.9.9v6q-2.7,1.7-2.7,3.6v25.9l-3.4,1.7v5.3l7.5,3.7,3.6-1.8v-.2a20.5,20.5,0,0,0,11.4-1.3,6.9,6.9,0,0,0,2.7-2.2l-.2,66.8-21.5-10.4-29.9,14.6.4-117-30.7-15V309.7l-69.5-33.9L671.2,298v19.7l-29.4,14.4-.2,47.8L579,349.5l-64.9,31.8v42.2l-19.7,9.7v-50c4.9.5,10.3-.1,14.1-2s4.4-3.3,4.5-5.2V346.6h0c.1-1.9-1.4-3.9-4.4-5.4s-9.1-2.5-14-2v-7.5l28.3,13.8,5-2.4v-5.4l-4.8-2.3v-5.2l-10.2-5-4.9,2.5v.3l-13.4-6.5V302.1L526,317.4l5-2.4v-5.4l-1.5-.7h.3v-5.4l-6.9-3.4-5.4,2.7v.3l-4.2-2h.2v-5.4l-7-3.3-5.4,2.6v.3l-6.4-3.1V256.2h0c.1-.8-.5-1.6-1.8-2.2a12.1,12.1,0,0,0-8.8,0c-1.2.6-1.8,1.4-1.8,2.2v29.7l-15.6-7.6v-5.1l-10.2-5-5,2.5v3.4l-1.6.8v5.4l32.5,15.8v19.5l-18-8.8v-5.2l-7-3.4-5.4,2.6h-.1l-4.9,2.5v5.3l35.5,17.3-.3,65.8-32.4-15.8v-4.7l-3.9-1.9-3.7,1.9v1l-1-.4v-4.5l-3.8-1.9-3.8,1.8v3.4l-2.3,1.2V377l35,17.1v19.1l-28.2-13.7v-4.1l-3.9-1.9-3.7,1.8v3.8l-1.5.8v5.3l53.1,25.9v8.2l-12.3,6-5.8-2.8v-3.6l-19.8-9.6v-6.2l-48.6-23.6L347,423.1v6.1l-19.8,9.7v4.2l-10.7,5.2v-2.1l-11.3-6.3v-4.2l-16.2-9v-6.9l-31.2-17.3-45.3,25.2.2-38.8,28.8,14,3.6-1.7v-5.4l-9.6-4.7v-4.4l-2.8-1.4-2.8,1.3v1.8l-9-4.4V373.1l18.8,9.2,3.6-1.8v-5.3l-1-.5v-4.4l-2.9-1.4-2.7,1.4V372l-24.1-11.8V346.4L234.5,357l3.6-1.8v-5.3l-3.7-1.8V343l-5.1-2.4-3.9,1.9v1.2l-12.6-6.1v-14l24.8,12.1,3.6-1.8v-5.3l-6.7-3.3v-5l-7.4-3.6-3.7,1.8v1.4l-10.6-5.1V296.4c0-.6-.5-1.2-1.4-1.6a7.9,7.9,0,0,0-6.4,0c-.9.4-1.3,1-1.3,1.5v14l-18.2-8.8-3.6,1.7v5.4l21.8,10.6v13.9l-5.5-2.6v-5l-5.1-2.5-4,2v1.1l-.6-.3v-5l-5.1-2.5-4,1.9v3.9l-.9.4v5.4L203.7,342v13.8l-1.5-.7-3.6,1.8v3.2a22.5,22.5,0,0,0-8.2-.6v-4.2h0c.1-.4-.2-.9-.9-1.1a4.7,4.7,0,0,0-4,0,1.2,1.2,0,0,0-.8.9v6c-1.9,1.1-2.8,2.3-2.8,3.6v25.9l-3.4,1.7v5.3l7.5,3.7,3.6-1.8v-.2h5.4l1.3-.2h.7l.7-.2h.8l.6-.2h.3l.6-.2a.1.1,0,0,0,.1-.1l.8-.3h.4l.7-.4.5-.4h.1l.5-.5.5-.6h0v47.7l-10.2,5.7v7.3l-1.2.6-10.2-4.9L152,466.9l.4-117-30.8-15V309.7L52.1,275.8,6.8,298v19.7L0,321V650H1920V289.7ZM212.8,297h0a.1.1,0,0,0-.1.1A.1.1,0,0,1,212.8,297Z"/><path class="cls-3" d="M1086.4,256.2h0v-.1Z"/><path class="cls-2" d="M1086.4,256.2h0v-.1Z"/><path class="cls-3" d="M494.8,256.2h0v-.1Z"/><path class="cls-2" d="M494.8,256.2h0v-.1Z"/><polygon class="cls-2" points="844.1 324.1 844.1 324.9 843.2 324.5 844.1 324.1"/><polygon class="cls-2" points="877.5 467.4 876.8 467.8 876.9 467.1 877.5 467.4"/><path class="cls-3" d="M212.8,297h0a.1.1,0,0,0-.1.1A.1.1,0,0,1,212.8,297Z"/><path class="cls-4" d="M202.5,397h0Z"/><path class="cls-4" d="M202.4,397.1h0l-.5.4Z"/><path class="cls-4" d="M196.5,399.4h0Z"/><path class="cls-4" d="M196.3,399.4Z"/><path class="cls-3" d="M190.4,355.4Z"/></svg>