<svg id="Layer_24" data-name="Layer 24" xmlns="http://www.w3.org/2000/svg" viewBox="0 0 1920 650"><defs><style>.cls-1{fill:#170e11;}</style></defs><title>Prx_back</title><path class="cls-1" d="M1710.3,147h-.6a21.2,21.2,0,0,0-3.8.2,3.5,3.5,0,0,1,2.3-.9A3.8,3.8,0,0,1,1710.3,147Z"/><path class="cls-1" d="M1710.6,147v.2l-.3-.2Z"/><path class="cls-1" d="M1713.2,160.3h-.3v-.7Z"/><path class="cls-1" d="M1813,144.3l-1.3-8.8h1.1Z"/><path class="cls-1" d="M1813,144.3l-1.3-8.8h1.1Z"/><path class="cls-1" d="M73,111.4h-.7a23.7,23.7,0,0,0-4.1.3,4.1,4.1,0,0,1,2.6-.9A4.3,4.3,0,0,1,73,111.4Z"/><path class="cls-1" d="M1869,236v38.5q-12,1.2-24,3V271h-29.6L1813,144.3l-1.3-8.8h1.1l.2,8.8,2.6,18.2c.1.2.1.4.2.6l27.7,89c.8,2.1,2.6,1.6,2.3-.6l-19.3-91.2c-.1-.2-.1-.4-.2-.6l-9.5-24.7c5.6-1,9.5-3.4,9.5-6.2s-1.6-3.4-4.2-4.6l18.8-13.3.4-.3,66.9-65c1.5-1.7.2-3.1-1.6-1.8L1834,102.3l-.4.4-17.8,19.7a28.5,28.5,0,0,0-5.1-.4,17.2,17.2,0,0,0-6,.8L1782,111.3l-.6-.3-39.3-12.7L1768,39.4c.7-2.1-1-3-2.2-1.1L1734,95.6l-41.2-13.3c-2.2-.6-2.9,1.2-.9,2.2l38.9,16.8-10.2,18.5a1.3,1.3,0,0,0-.3.5l-9.7,26.7h0v.2l-.3-.2h-.6a21.2,21.2,0,0,0-3.8.2h0c-2.7.4-4.1,1.4-4.7,2.7l-25.4-2.2h-.6l-93,6.7c-2.2.3-2.2,2.2.1,2.4l93.2,1.9c.2.1.3,0,.5,0l24.6-3.4a4.5,4.5,0,0,0,3,4.3l-2.9,156.7-8.7,3V290h-79v27h-56v48c-7,2-14,3.8-21,5.6V284h-60v42h-45v72.7a207.5,207.5,0,0,0-29,17.3V372h-95v60h-6V340h-9V298h-5v42h-18v92h-11V362h-79v27h-51V280h-60v63h-48V443H991V389H896v60h-6V357h-9V315h-5v42H858v92H847V379H768v27H717V297H657V444q-31.8-6.9-63.2-15.5c-7.5-25.3-24.6-69.8-22.1-105a292.6,292.6,0,0,1,8.3-51.3,4,4,0,0,0-3.6-5.1h-82a4,4,0,0,0-3.6,5,310,310,0,0,1,7.8,46.8,140.7,140.7,0,0,1-1,28.8,69,69,0,0,0-58.3-32c-2.2,0-4.3.1-6.4.3V188.7a6.3,6.3,0,0,0-2-4.7,6.6,6.6,0,0,0-11.4,4.7V318.5l-6.2,2.2c-3.1-14.1-4.9-28.4-3.7-41.4a271.2,271.2,0,0,1,9.5-51.5,4,4,0,0,0-3.9-5.1l-90.3-.8a3.9,3.9,0,0,0-3.9,5,277.2,277.2,0,0,1,8.1,47c1.3,16-1.5,33.8-5.9,51-11.7-5.1-23.4-9.9-35.2-14.6V242.1H215.2v43.2l-4.7-1.3V217.6h-6.8V185.4h-3.9v32.2H186v60.5l-5.1-1.1-3.3-.6V234.5h-46L95.1,149.1l-.3-.6L80.1,125.3c5.5-1.3,9.2-3.7,9.2-6.5s-3-4.8-7.4-6.1l18.1-19,.4-.4,57.2-82.9c1.3-2.1-.4-3.4-2-1.6L90.8,86l-.3.5-15,25.1-.9,1.5-.4-.5a3.4,3.4,0,0,0-1.2-1.2h-.7a23.7,23.7,0,0,0-4.1.3c-2.3.4-3.7,1.1-4.5,2.1l-26.1-7.3-.6-.2L0,101.9v8.7l35,7.5h.7l26.8,1.4c.1,2.4.6,4.4,3.3,5.5l-2.1,116H31.2v20.1l-4.7-.6v-44H19.7V184.4H15.8v32.2H2v41.2l-2-.2V650H1920V236ZM117,234.5v36.9c-4.3-.2-8.7-.5-13-.9V241.1H77.9l-2-110.6L84,153.7l.3.6,43.5,80.2ZM1803.7,134.2,1801.1,271H1750v29l-15,4.7V268h-9V226h-5v42h-6.1l-2-107.7v-.7l.4.7,13,22.2.3.5,59.2,72c1.5,1.7,3.1.5,1.9-1.4l-52.2-77.3-.3-.4-15.8-16.8c3.7-1.3,6.1-3.2,6.1-5.4s-4-5.2-9.6-6.2l14.4-22.3.3-.5,8.7-19.8,38.4,16.5.5.2,23.5,5.9v1.3c0,2.2.1,4.2,2.1,5.4Z"/><path class="cls-1" d="M75.5,111.6l-.9,1.5-.4-.5a3.4,3.4,0,0,0-1.2-1.2Z"/></svg>