<svg id="Livello_19_copy" data-name="Livello 19 copy" xmlns="http://www.w3.org/2000/svg" viewBox="0 0 1920 650"><defs><style>.cls-1{fill:#fdf3fa;}</style></defs><title>Prx_front</title><path class="cls-1" d="M1897.8,462a27,27,0,0,0-4.9,3.6l.4-157.4-39.5-22.8V246.9l-89.4-51.6-58.3,33.9v30l-37.9,22-.6,209.7-29.8-17.3-44.7,26-3-1.7v-5.6l-25.5-14.7v-5.9l1.5-.8c3.7-2.2,5.6-5.1,5.6-7.9l.2-44.6a.4.4,0,0,1-.1.3v-.4h0c0-2.9-1.9-5.9-5.8-8.1s-11.7-3.8-18-3.1V395.7l36.4,21,6.3-3.7v-8.2l-6.2-3.5v-7.9l-13.1-7.6-6.4,3.7v.5l-17.1-9.8V350.4l40.3,23.3,6.3-3.7v-8.2l-1.8-1,.3-.2v-8.2l-8.9-5.2-6.9,4.1v.5l-5.4-3.1h.2v-8.2l-8.9-5.2-6.9,4.1v.4l-8.3-4.8.2-54.4c0-1.2-.8-2.4-2.4-3.3a12.5,12.5,0,0,0-11.3,0,4.1,4.1,0,0,0-2.3,3.2v45.3l-20.1-11.6v-7.7l-13.1-7.6-6.3,3.7v5.3l-2.1,1.2v8.2l41.6,24V371l-23.1-13.4v-8l-9-5.2-6.9,4h-.2l-6.3,3.7v8.2l45.5,26.2-.2,63.1-29.9-17.3L1476,447.6l-1.6-.9-4.8,2.8v1.8l-29.3,17v6.6l-79.6-46-4.7,2.7v-8.9h0v-.2h0a2.5,2.5,0,0,0-1.3-1.9,7,7,0,0,0-6.3,0,2.3,2.3,0,0,0-1.3,1.9v14.2l-88.4,51.5.2-97.1-27.7-16,.3-123.3h-.3l.3-.2.5-.2.5-.2.4-.2,1.3-.7.4-.2.5-.3.2-.2.9-.6.9-.7.8-.6h.1l.3-.3.3-.3h.2l.6-.7.6-.7h.1l.4-.6.5-.7.2-.4h.1l.3-.5.2-.4a.6.6,0,0,0,.1-.4h.1v-.2h.1l.2-.5v-.2a2.4,2.4,0,0,0,.2-.8c.1-.2.1-.5.2-.8V206.3h0v-.2c.1-4.4-2.8-8.8-8.6-12.2a40.2,40.2,0,0,0-11.8-4.1h0V158.6c0-2.6,0-5.3.1-7.9V125.2c0-1.4-.8-2.7-2.6-3.7a14,14,0,0,0-12.6,0c-1.7,1-2.6,2.3-2.6,3.6v19.6c0,6-.1,12.3-.1,18.5v26.6h-.1a39.6,39.6,0,0,0-11.7,4.1c-5.6,3.3-8.5,7.6-8.5,12v32.5c0,4.4,2.9,8.8,8.7,12.1l1,.5.6.3c.2.2.4.2.6.3l.7.4-.3,123.8-26.5,15.4-.2,75.7-10.5,6.1v20.6l-11.8,6.8v14.3l-7.8,4.6V538l-22.3-12.9v-9.3l-62.5-36.1L1005,508.1V480l-8.7-5V464.2l-13.2-7.6V441.5l-20.7-11.9-11.2,6.5h-.2v1.4l-3.4,2h-.2l-1-.6-2.6-1.5h0l2.7,1.5.9-.5V434l3.5,2v-6.7l-3.6-2.1-3.6,2v2.7l-11.5-6.7V408.6l24.3,14,4.6-2.7v-8.2L960,411v-6.7l-3.7-2.1-3.5,2.1v2.6l-31-17.9h0V367.9L949.8,384v-8.1l4.6-2.7-4.8-2.8v.5l-4.2,2.5-.8.5v-8.2l5.1-2.9-6.6-3.8-5.1,3v1.7L922,354.4V333.2l31.8,18.4,4.7-2.7v-8.2l-8.6-4.9v-7.6l-2.9-1.7v-6.6l-3.6-2.1-3.5,2v3.1l-4.2,2.4v2.3l-13.7-7.9V291.6a3,3,0,0,0-1.7-2.4,9.3,9.3,0,0,0-8.3,0,3,3,0,0,0-1.7,2.4v21.3L887,299.4l-4.7,2.7v8.2l28.1,16.2v21.2l-6.9-4v-7.6l-6.5-3.8-5.1,2.9V337l-.8-.5v-7.7l-6.6-3.7-5.1,2.9v5.9l-1.1.6v8.2l32,18.5h0v21l-1.8-1-4.6,2.7v4.9a23.2,23.2,0,0,0-10.5-.9v-6.6c0-.5-.4-1-1.1-1.5a5.9,5.9,0,0,0-5.2,0c-.7.5-1.1,1-1,1.6h0v9.1c-2.3,1.5-3.5,3.5-3.5,5.4v39.5l-4.4,2.6v8.1l9.5,5.5L892,449v-.4a21.9,21.9,0,0,0,14.6-2,10.2,10.2,0,0,0,3.5-3.3l-.2,51.7-7.4,4.3v11.3c-2.6-6.6-8.3-12.8-17.2-18l-3.4-1.8c-2.1-5.5-6.9-10.6-14.2-14.8a59.5,59.5,0,0,0-7.6-3.7c-1.5-3.7-4.8-7.3-9.9-10.3a42.5,42.5,0,0,0-7.2-3.2V436.9c.1-1.7-1-3.4-3.2-4.7a17.2,17.2,0,0,0-15.6,0c-2.1,1.2-3.2,2.9-3.2,4.5s.1.4.1.6a.4.4,0,0,0-.1-.3v18.8c-8.5.4-16.7,2.5-23.2,6.2a32.5,32.5,0,0,0-4.9,3.5l.4-157.3-39.5-22.8V246.9l-89.4-51.6-58.2,33.9v30l-37.9,22-.6,209.7-29.8-17.3L475,510.2V500l-8.7-5.1V484.2l-13.2-7.6v-2.4a28.3,28.3,0,0,0,13.2-3.3c3.7-2.2,5.6-5.1,5.6-7.9l.2-44.9c0-2.9-1.9-5.8-5.8-8s-11.7-3.8-18-3.1V395.7l36.4,21,6.3-3.7v-8.2l-6.2-3.5v-7.9l-13.1-7.6-6.4,3.7v.5l-17.1-9.8V350.4l40.3,23.3,6.3-3.7v-8.2l-1.8-1,.3-.2v-8.2l-9-5.2-6.9,4.1v.5l-5.4-3.1h.2v-8.2l-8.9-5.2-6.9,4.1v.4l-8.3-4.7h0l.2-54.4v.2a3.9,3.9,0,0,0-2.4-3.5,12.5,12.5,0,0,0-11.3,0,4.1,4.1,0,0,0-2.3,3.2v45.3l-20.1-11.6v-7.7l-13.1-7.6-6.3,3.7v5.3l-2.1,1.2v8.2l41.6,24h0V371l-23.1-13.4v-8l-9-5.2-6.9,4h-.2l-6.3,3.7v8.2l45.5,26.2-.2,63.4-40,23.2v20.6l-7.9,4.5V477.2l-83.7-48.3-4.7,2.7v-9a2.3,2.3,0,0,0-1.3-1.9,7,7,0,0,0-6.3,0c-.9.6-1.4,1.2-1.4,1.9v14.2l-80.1,46.6-8.3-4.8.2-87.4-27.7-16,.4-123.3,2.6-1.4c5.7-3.3,8.5-7.6,8.5-11.9V206.1h0c0-4.4-2.9-8.7-8.6-12.1a37.5,37.5,0,0,0-11.8-4.1c0-21.3.1-45.5.1-64.6,0-1.4-.8-2.7-2.6-3.7a14,14,0,0,0-12.6,0c-1.7,1-2.6,2.3-2.6,3.6v19.6c-.1,13.8-.1,28.6-.1,42.3v2.8a39.2,39.2,0,0,0-11.8,4.1c-5.6,3.3-8.5,7.6-8.5,11.9h0v32.6c0,4.4,2.9,8.8,8.7,12.1l2.9,1.5-.3,123.8-26.5,15.4v64.3L79.6,472.4v12.7L57.1,498.2v8.5l-8.2,4.8L28.2,499.6l.2-46.1,3.6-2.2V447a22.9,22.9,0,0,0,16.9.8l6.6,3.8,4.6-2.6v-8.2l-4.6-2.6V396c.1-2-1.2-4-3.6-5.6v-8l-.3-.2h0a1.1,1.1,0,0,0,.3-.8v1.1L55,384l4.6-2.7v-8.1L28.6,355.3V338.8l22.2,12.8,4.7-2.7v-8.2L28.7,325.2V291.6a2.9,2.9,0,0,0-1.7-2.4,9.3,9.3,0,0,0-8.3,0,3,3,0,0,0-1.7,2.4v26.9L0,308.6v13.6L17,332h0v16.5L0,338.7v13.6L16.9,362v39.7L0,392v13.5l5.5,3.2v19.1L0,424.7v13.5l16.7,9.6-.2,45L0,483.3V650H1920V455.9A49.9,49.9,0,0,0,1897.8,462Zm-319.2-57h0Zm8.1-40.7.2.2h-.2Zm-21-12.1.3.2-.3.2Zm-59.6-34v-.4l.4.2Zm-3.8,43.6v-.9l.8.4ZM1240.6,212.3l-.5.7h-.1Zm-2.6,2.9h0ZM956.5,414.3h0Zm-11.2-75.8.5.2-.5.3Zm-1.7-8.7.2.2h-.2ZM886,340v-1l.8.5ZM478.6,405h0Zm8.1-40.7.2.2h-.2Zm-21-12.1.3.2-.3.2Zm-63.4,9.6v-.9l.7.4ZM27.2,407.7l1.3.7v5.4l-1.3-.7Zm-.1,32.6,1.3.8v3.1a5.4,5.4,0,0,1-1.3-3.5Zm108.7-211V229h0v.2c0,.3.1.6.1.9A3.8,3.8,0,0,1,135.8,229.3Zm312.7,52a1.8,1.8,0,0,1-.4.9A1.8,1.8,0,0,0,448.5,281.3Zm-.3,192.6h0l.3.2Zm454.3,53.7h-.2c.1-.1.1-.2.2-.4Zm8.3-109.5-.7-.4v-4.9l.3-.2.3.2Zm0-22Zm10.8,92.1v-1.3l1.2.6Zm7.2-58.9v-.8l.7.4Zm76.1,94.5v-.5l.4.3Zm192.2-303.9h0Zm1.6.6-.5-.2,1.1.4Zm1.8,33.2h0Zm.5-32-.4.2v-.8h.3l.7.2Zm2.6,32.8-.5-.2.5.2Zm8.6.9h0Zm.1-32.6h0Zm6.1,32.4h0Zm.1-32.6h0Zm3.7,32.1h0l.9-.2Zm3.4-33.3-1,.2.9-.3h.1Zm2.1,31.9Zm1.8-19.4.7-.9Zm130.7,205.3,1.7.8,1.5,1Zm195.9-17.7h-.3c0-.1,0-.1-.1-.1Zm-.8-.2a.1.1,0,0,1-.1-.1h-.3Zm-.7,52.8,2.1-1.1,1.3.8A18.7,18.7,0,0,1,1554.6,474.1Zm3.7-52.4h0Zm3.9,15h0l.2-.2Zm.4-16.6h-.1l.2-.2C1562.6,420,1562.6,420,1562.6,420.1Z"/></svg>